<?xml version="1.0" encoding="utf-8"?>
<!-- Generator: Adobe Illustrator 24.1.0, SVG Export Plug-In . SVG Version: 6.00 Build 0)  -->
<svg version="1.1" id="Layer_1" xmlns="http://www.w3.org/2000/svg" xmlns:xlink="http://www.w3.org/1999/xlink" x="0px" y="0px"
	 viewBox="0 0 186.35 54.66" style="enable-background:new 0 0 186.35 54.66;" xml:space="preserve">
<style type="text/css">
	.st0{fill:#03428E;}
	.st1{fill:#EE312F;}
	.st2{fill:#939598;}
</style>
<g>
	<g>
		<path class="st0" d="M51.43,18.77c0,0.91-0.63,1.53-1.56,1.53h-4.99v4.95c0,0.93-0.63,1.56-1.56,1.56h-2.46
			c-0.95,0-1.56-0.61-1.56-1.56V20.3h-5.03c-0.93,0-1.56-0.61-1.56-1.53v-2.31c0-0.95,0.61-1.56,1.56-1.56h5.03V9.94
			c0-0.91,0.63-1.52,1.56-1.52h2.46c0.92,0,1.56,0.63,1.56,1.52v4.96h4.99c0.95,0,1.56,0.61,1.56,1.56V18.77z M42.04,0
			c-10.3,0-18.22,7.91-18.22,17.62c0,9.77,7.91,17.62,18.22,17.62c10.31,0,18.28-7.84,18.28-17.62C60.32,7.98,52.34,0,42.04,0"/>
		<path class="st1" d="M129.31,9.78c-0.21-0.04-0.68-0.08-0.85-0.08c-2.2,0-4.94,1.56-5.66,5.24v-2.96c0-1.14-0.63-1.82-1.77-1.82
			h-1.6c-1.14,0-1.77,0.68-1.77,1.82l0.06,27.58c0,5.97-4.04,10.14-9.82,10.14c-5.78,0-9.82-4.17-9.82-10.14v-4.24
			c10.35-0.09,17.85-7.49,17.85-17.66C115.92,7.43,108.34,0,97.88,0h-8.96c-2.73,0-4.64,1.91-4.64,4.64v9.21
			c0,1.58,1.29,2.87,2.87,2.87c1.58,0,2.87-1.29,2.87-2.87l0-8.11h7.87c7.25,0,12.31,4.9,12.31,11.93c0,7.02-5.06,11.93-12.31,11.93
			l-7.87,0v-8.13c0-1.58-1.29-2.87-2.87-2.87c-1.58,0-2.87,1.29-2.87,2.87v9.23c0,2.73,1.91,4.64,4.64,4.64h4.18v4.24
			c0,8.75,6.22,15.1,14.79,15.1c8.57,0,14.79-6.35,14.79-15.1l-0.03-16.43c0-7.02,3.32-8.24,5.35-8.24c0.34,0,0.72,0.04,1.1,0.13
			c0.8,0.13,1.31-0.34,1.31-1.44v-2.11C130.41,10.62,130.24,9.86,129.31,9.78z"/>
		<path class="st0" d="M57.39,28.59c-0.86-1.79,0.07-3.06,1.86-3.52l1.73-0.4c1.6-0.4,2.39,0.33,3.52,1.59
			c1.2,1.46,3.26,2.39,5.58,2.39c2.93,0,4.99-1.6,4.99-3.72c0-1.79-1.4-2.73-3.59-3.52l-4.32-1.53c-4.32-1.33-8.98-3.99-8.98-9.51
			C58.19,4.39,63.11,0,70.09,0c4.26,0,8.18,1.4,10.5,5.38c1.13,1.73,0.2,3.13-1.66,3.59l-1.53,0.4c-1.59,0.4-2.46-0.2-3.52-1.33
			c-1-1.2-2.33-1.53-3.66-1.53c-2.59,0-4.12,1.6-4.12,3.52c0,1.79,1.6,2.73,3.46,3.32l4.52,1.6c6.71,2.13,8.84,6.05,8.91,9.91
			c0,6.78-5.98,10.37-12.9,10.37C64.44,35.24,59.65,32.98,57.39,28.59"/>
		<path class="st0" d="M0.33,28.61c-0.86-1.79,0.07-3.06,1.86-3.52l1.73-0.4c1.6-0.4,2.39,0.33,3.52,1.59
			c1.2,1.46,3.26,2.39,5.58,2.39c2.93,0,4.99-1.6,4.99-3.72c0-1.79-1.4-2.73-3.59-3.52L10.1,19.9c-4.32-1.33-8.98-3.99-8.98-9.51
			c0-5.98,4.92-10.37,11.9-10.37c4.26,0,8.18,1.4,10.51,5.38c1.13,1.73,0.2,3.13-1.66,3.59l-1.53,0.4c-1.6,0.4-2.46-0.2-3.52-1.33
			c-1-1.2-2.33-1.53-3.66-1.53c-2.59,0-4.12,1.6-4.12,3.52c0,1.79,1.6,2.73,3.46,3.32l4.52,1.6c6.71,2.13,8.84,6.05,8.91,9.91
			c0,6.78-5.98,10.37-12.9,10.37C7.37,35.26,2.59,33,0.33,28.61"/>
	</g>
</g>
<g>
	<g>
		<path class="st2" d="M141.99,9.7V9.67c0-3.19,2.52-5.8,5.98-5.8s5.95,2.58,5.95,5.77v0.03c0,3.19-2.52,5.81-5.98,5.81
			S141.99,12.89,141.99,9.7z M151.34,9.7V9.67c0-1.92-1.41-3.53-3.4-3.53s-3.37,1.57-3.37,3.5v0.03c0,1.92,1.41,3.53,3.4,3.53
			C149.96,13.2,151.34,11.63,151.34,9.7z"/>
		<path class="st2" d="M158.53,5.23c0-0.69,0.55-1.23,1.24-1.23h0.26c0.59,0,0.95,0.29,1.28,0.72l4.76,6.25V5.18
			c0-0.67,0.54-1.22,1.22-1.22c0.67,0,1.22,0.54,1.22,1.22v8.93c0,0.69-0.55,1.24-1.24,1.24h-0.08c-0.59,0-0.95-0.29-1.28-0.72
			l-4.94-6.48v6.01c0,0.67-0.55,1.22-1.22,1.22c-0.67,0-1.22-0.55-1.22-1.22V5.23z"/>
		<path class="st2" d="M142.49,21.24c0-0.69,0.55-1.24,1.24-1.24s1.23,0.55,1.23,1.24v7.84h4.57c0.62,0,1.12,0.5,1.12,1.12
			c0,0.63-0.5,1.12-1.12,1.12h-5.81c-0.69,0-1.24-0.54-1.24-1.23V21.24z"/>
		<path class="st2" d="M154.94,21.24c0-0.69,0.55-1.24,1.24-1.24s1.23,0.55,1.23,1.24v8.95c0,0.69-0.54,1.24-1.23,1.24
			s-1.24-0.55-1.24-1.24V21.24z"/>
		<path class="st2" d="M162.62,21.27c0-0.69,0.55-1.23,1.24-1.23h0.26c0.59,0,0.95,0.29,1.28,0.72l4.76,6.25v-5.79
			c0-0.67,0.54-1.22,1.22-1.22s1.22,0.55,1.22,1.22v8.93c0,0.69-0.54,1.24-1.24,1.24h-0.08c-0.59,0-0.95-0.29-1.28-0.72l-4.94-6.48
			v6.01c0,0.67-0.55,1.22-1.22,1.22c-0.67,0-1.22-0.55-1.22-1.22V21.27z"/>
		<path class="st2" d="M177.7,30.09v-8.76c0-0.69,0.55-1.23,1.24-1.23h6.22c0.61,0,1.11,0.5,1.11,1.11s-0.5,1.09-1.11,1.09h-5v2.28
			h4.28c0.61,0,1.11,0.5,1.11,1.11c0,0.61-0.5,1.09-1.11,1.09h-4.28v2.36h5.08c0.61,0,1.11,0.5,1.11,1.11s-0.5,1.09-1.11,1.09h-6.3
			C178.25,31.33,177.7,30.78,177.7,30.09z"/>
	</g>
	<g>
		<path class="st1" d="M186.03,6.88c-1.8-1.8-4.19-2.79-6.74-2.79l0,0c-2.55,0-4.95,0.99-6.74,2.79c-0.42,0.42-0.42,1.07,0,1.49
			c0.21,0.21,0.48,0.31,0.74,0.31s0.53-0.1,0.74-0.31c1.4-1.41,3.27-2.18,5.26-2.18l0,0c1.99,0,3.86,0.77,5.26,2.18
			c0.42,0.42,1.07,0.42,1.49,0C186.45,7.95,186.45,7.28,186.03,6.88z"/>
		<path class="st1" d="M175.34,9.68c-0.42,0.42-0.42,1.07,0,1.49c0.21,0.21,0.48,0.31,0.74,0.31c0.27,0,0.53-0.1,0.74-0.31
			c1.37-1.37,3.58-1.37,4.93-0.01c0.4,0.42,1.07,0.42,1.49,0s0.42-1.07,0-1.49C181.06,7.5,177.52,7.5,175.34,9.68z"/>
		<circle class="st1" cx="179.31" cy="13.62" r="1.63"/>
	</g>
</g>
</svg>
