<?xml version="1.0" encoding="utf-8"?>
<!-- Generator: Adobe Illustrator 24.1.0, SVG Export Plug-In . SVG Version: 6.00 Build 0)  -->
<svg version="1.1" id="Layer_1" xmlns="http://www.w3.org/2000/svg" xmlns:xlink="http://www.w3.org/1999/xlink" x="0px" y="0px"
	 viewBox="0 0 194.43 196.98" style="enable-background:new 0 0 194.43 196.98;" xml:space="preserve">
<style type="text/css">
	.st0{fill:#E20A18;}
	.st1{fill:#FFFFFF;}
	.st2{fill:#02428E;}
</style>
<circle class="st0" cx="97.22" cy="56.97" r="56.97"/>
<g>
	<g>
		<g>
			<path class="st1" d="M80.21,37.77c0,0.47,0.12,1.05,0.23,1.51c0,0.23,0.12,0.47,0.12,0.7c0.23,2.33,1.4,4.08,3.15,5.01
				c0,0,0,0.12,0.12,0.12c1.05,4.19,3.26,7.34,6.41,9.55c0.35,0.23,0.82,0.58,1.28,0.82c0.58,0.35,1.4,0.58,2.1,0.93h0.12
				c0.58,0.23,1.16,0.47,1.86,0.58c0.47,0.12,1.05,0.12,1.51,0.12c0.12,0,0.23,0,0.35,0c0.58,0,1.05,0,1.51-0.12
				c0.58-0.12,1.16-0.23,1.75-0.58h0.12c0.82-0.23,1.51-0.58,2.21-0.93c0.47-0.23,0.82-0.47,1.28-0.82
				c1.75-1.16,3.15-2.68,4.31-4.43c0.47-0.82,0.93-1.63,1.4-2.8c0.12-0.35,0.23-0.82,0.35-1.16c0.12-0.47,0.23-0.82,0.35-1.05
				c0.23-0.23,0.47-0.58,0.82-0.82c0.23-0.12,0.35-0.35,0.58-0.47c1.4-1.28,1.75-2.8,1.86-4.08c0-0.23,0.12-0.47,0.12-0.7
				c0.12-0.47,0.12-1.05,0.23-1.51c0-0.47,0-0.82,0-1.16v-0.12c0.12-1.4-0.7-3.03-2.21-3.49v-0.12v-0.58c0-0.47,0.12-1.05,0.23-1.4
				c0.35-1.4,0.58-2.8,0.58-4.19c0.12-4.66-2.21-8.5-6.41-10.37c-0.47-0.23-0.93-0.35-1.4-0.58c-2.45-0.93-5.13-1.4-7.92-1.4
				c-0.58,0-1.16,0-1.75,0c-1.63,0.12-3.84,0.23-5.82,1.16c-0.23,0.12-0.47,0.23-0.58,0.35c-0.7,0.47-1.4,1.16-1.86,1.86
				c-0.12,0.12-0.23,0.23-0.23,0.35c-0.23,0.35-0.35,0.47-0.58,0.7c-0.47,0.35-0.82,0.58-1.28,0.82c-0.82,0.35-1.51,0.93-1.98,1.75
				c-0.58,1.28-0.93,2.68-1.05,4.31c-0.12,1.63,0,3.26,0.12,4.54c0,0.58,0.12,1.16,0.23,1.86c0.12,0.35,0.12,0.7,0.23,1.16
				c0,0,0,0-0.12,0c-1.63,0.35-2.45,2.1-2.33,3.61v0.12C80.21,36.95,80.21,37.3,80.21,37.77z M83.24,35.79c0.12,0,0.23,0,0.23,0
				c0.12,0,0.23,0,0.35,0s0.23,0,0.35,0h0.23l0.23-0.12c0.58-0.35,0.93-0.93,0.93-1.63c0-0.93-0.12-1.86-0.35-2.68
				c-0.12-0.47-0.23-0.93-0.23-1.4c-0.12-1.16-0.12-2.68-0.12-4.19c0-1.16,0.23-2.1,0.58-2.8c0.12-0.23,0.35-0.35,0.58-0.47
				c0.7-0.23,1.28-0.7,1.86-1.16c0.7-0.58,0.93-0.93,1.16-1.4l0.23-0.35c0.35-0.47,0.7-0.82,1.05-1.05
				c0.12-0.12,0.23-0.12,0.35-0.23c1.28-0.58,2.91-0.82,4.78-0.93c0.47,0,1.05,0,1.51,0c2.45,0,4.78,0.47,6.87,1.28
				c0.35,0.12,0.82,0.35,1.16,0.47c3.15,1.4,4.78,4.19,4.66,7.69c0,1.16-0.23,2.33-0.47,3.61c-0.12,0.58-0.23,1.28-0.23,1.86
				l-0.12,0.7c-0.12,0.58-0.23,1.16,0,1.86c0.47,1.16,1.63,1.16,1.98,1.16l0,0c0.12,0.12,0.23,0.35,0.23,0.58v0.23v0.12
				c0,0.35,0,0.58,0,0.93c0,0.47-0.12,0.82-0.12,1.28c0,0.23-0.12,0.58-0.12,0.82c-0.12,1.05-0.35,1.75-0.93,2.21
				c-0.12,0.12-0.35,0.23-0.47,0.35c-0.35,0.35-0.82,0.7-1.28,1.16c-0.58,0.7-0.82,1.51-0.93,2.21c-0.12,0.23-0.12,0.47-0.23,0.7
				c-0.35,0.93-0.7,1.63-1.16,2.33c-0.93,1.4-2.1,2.68-3.38,3.61c-0.35,0.23-0.7,0.47-1.05,0.58c-0.47,0.23-1.05,0.47-1.75,0.7
				c-0.12,0-0.23,0.12-0.23,0.12c-0.35,0.12-0.82,0.35-1.16,0.35c-0.35,0.12-0.82,0.12-1.16,0.12c-0.35,0-0.82,0-1.16-0.12
				c-0.47-0.12-0.82-0.23-1.28-0.35l-0.23-0.12c-0.7-0.23-1.28-0.47-1.75-0.7c-0.35-0.23-0.7-0.47-1.05-0.58
				c-2.56-1.75-4.31-4.31-5.13-7.8c-0.23-0.93-0.7-1.4-1.16-1.75l-0.23-0.12c-1.28-0.7-1.63-2.1-1.75-2.91
				c0-0.23-0.12-0.58-0.12-0.82c-0.12-0.47-0.12-0.82-0.12-1.28c0-0.35,0-0.58,0-0.93V36.6C83.12,36.14,83.24,35.79,83.24,35.79z"/>
			<g>
				<path class="st1" d="M128.44,69.92c-1.05-2.45-3.14-4.19-5.13-5.71c-0.7-0.47-1.4-0.93-2.21-1.51l-2.56-1.51
					c-0.7-0.35-1.4-0.7-2.21-1.16l-0.82-0.47c-0.7-0.35-1.51-0.82-2.33-1.16c-1.05-0.47-1.98-0.93-3.03-1.17l-1.28-0.35l-0.58,0.93
					c-0.58,0.82-5.94,5.94-11.07,10.6c-5.13-4.78-10.48-9.78-11.07-10.6l-0.58-0.93l-1.28,0.47c-0.93,0.23-1.86,0.58-2.91,1.16
					c-0.82,0.35-1.63,0.82-2.45,1.17L78,60.13c-0.23,0.12-0.47,0.23-0.7,0.35L74.62,62c-1.16,0.7-2.33,1.4-3.26,2.1
					c-2.21,1.63-4.31,3.38-5.36,5.71c-0.93,2.1-0.93,4.54-0.82,6.64v0.82c0,0.23,0,2.8,0,6.29c0,2.45,1.98,4.54,4.54,4.54h6.54h2.23
					v-1.2c0-0.7,0.26-1.33,0.7-1.83h-9.47c-0.93,0-1.63-0.7-1.63-1.63c0-4.08,0-6.17,0-6.41v-0.82c-0.12-1.75-0.12-3.73,0.58-5.24
					c0.82-1.75,2.56-3.15,4.31-4.43c0.82-0.7,1.86-1.28,2.91-1.98l1.4-0.82c0.23,1.05,0.47,2.21,0.82,3.26
					c-0.7,0.35-1.28,0.7-1.75,1.28c-0.58,0.58-1.17,1.28-1.51,2.1c-0.7,1.51-0.93,3.26-0.58,4.89l1.51,6.41l4.54-1.05
					c0.82-0.23,1.28-0.93,1.05-1.75c-0.23-0.82-0.93-1.28-1.75-1.05l-1.75,0.35l-0.82-3.61c-0.23-1.05-0.12-1.98,0.35-2.91
					c0.23-0.47,0.58-0.93,0.93-1.28c0.58-0.58,1.28-0.93,2.1-1.16c0.82-0.23,1.63-0.12,2.33,0.12c0.35,0.12,0.7,0.23,1.05,0.47
					c0.12,0.12,0.23,0.12,0.35,0.23c0.82,0.58,1.4,1.51,1.63,2.45l0.82,3.61l-1.75,0.35c-0.82,0.23-1.28,0.93-1.05,1.75
					c0.23,0.82,0.93,1.28,1.75,1.05l4.54-1.05l-1.51-6.41c-0.35-1.63-1.28-3.15-2.56-4.08c-0.23-0.23-0.47-0.35-0.7-0.47
					c-0.47-0.35-1.05-0.58-1.75-0.82c-0.82-0.12-1.75-0.12-2.68-0.12c-0.47-1.16-0.7-2.45-0.93-3.61c0-0.12,0-0.12-0.12-0.23
					l0.23-0.12c0.7-0.35,1.51-0.82,2.33-1.16c0.7-0.35,1.28-0.58,1.98-0.82c2.45,2.56,9.44,9.09,11.77,11.18l0.93,0.93l0.93-0.93
					c2.33-2.1,9.32-8.62,11.77-11.18c0.58,0.23,1.28,0.47,1.98,0.82s1.51,0.7,2.21,1.05l0.82,0.47c0.58,0.35,1.16,0.58,1.75,0.93
					c-0.35,1.86-0.93,3.61-1.86,5.36c-0.93-0.12-1.86-0.12-2.68,0.23c-1.51,0.47-2.8,1.51-3.49,3.03c-0.7,1.4-0.82,3.03-0.35,4.54
					c0.47,1.51,1.51,2.8,3.03,3.49c0.82,0.47,1.75,0.7,2.8,0.7c0.58,0,1.28-0.12,1.86-0.23c1.51-0.47,2.8-1.51,3.49-3.03
					c0.7-1.4,0.82-3.03,0.35-4.54c-0.35-1.17-1.17-2.21-2.1-3.03c0.82-1.63,1.4-3.26,1.75-5.01l0.23,0.12
					c0.7,0.47,1.4,0.93,1.98,1.28c1.75,1.28,3.49,2.68,4.31,4.43c0.58,1.51,0.58,3.49,0.47,5.36v0.7c0,0.12,0,1.05,0,6.41
					c0,0.93-0.7,1.63-1.63,1.63h-6.43c0.37,0.62,0.7,1.28,0.95,1.99c0.12,0.34,0.18,0.69,0.26,1.04h5.23c2.45,0,4.54-1.98,4.54-4.54
					s0-6.06,0-6.29v-0.7C129.37,74.46,129.37,72.02,128.44,69.92z M116.67,76.33c-0.35,0.7-1.05,1.28-1.86,1.51
					c-0.82,0.23-1.63,0.23-2.33-0.23c-0.7-0.35-1.28-1.05-1.51-1.86c-0.23-0.82-0.23-1.63,0.23-2.33c0.35-0.7,1.05-1.28,1.86-1.51
					c0.35-0.12,0.58-0.12,0.93-0.12c0.47,0,0.93,0.12,1.4,0.35c0.7,0.35,1.28,1.05,1.51,1.86
					C117.14,74.81,117.14,75.63,116.67,76.33z"/>
			</g>
		</g>
	</g>
	<g>
		<path class="st1" d="M81.05,97.74c-0.22,0-0.39-0.07-0.52-0.19c-0.13-0.13-0.19-0.3-0.19-0.52v-3.59h-3.77
			c-0.22,0-0.4-0.06-0.52-0.19c-0.13-0.13-0.19-0.3-0.19-0.52v-2.47c0-0.2,0.06-0.37,0.19-0.5c0.13-0.13,0.3-0.19,0.52-0.19h3.77
			v-3.62c0-0.22,0.06-0.4,0.19-0.52c0.13-0.13,0.3-0.19,0.52-0.19h2.7c0.2,0,0.37,0.06,0.5,0.19c0.13,0.13,0.19,0.3,0.19,0.52v3.62
			h3.74c0.22,0,0.39,0.07,0.52,0.19c0.13,0.13,0.19,0.29,0.19,0.5v2.47c0,0.22-0.06,0.4-0.19,0.52c-0.13,0.13-0.3,0.19-0.52,0.19
			h-3.74v3.59c0,0.22-0.07,0.39-0.19,0.52c-0.13,0.13-0.29,0.19-0.5,0.19H81.05z"/>
		<path class="st1" d="M90.2,99.42c-0.85,0-1.34-0.41-1.48-1.25l-0.05-0.41c-0.1-0.7,0.11-1.29,0.64-1.78l5.89-5.27
			c0.76-0.66,1.35-1.28,1.75-1.85c0.4-0.57,0.6-1.18,0.6-1.82c0-0.29-0.08-0.59-0.23-0.92c-0.15-0.32-0.43-0.59-0.84-0.8
			C96.06,85.11,95.61,85,95.12,85c-1.07,0-1.78,0.37-2.14,1.1c-0.25,0.43-0.48,0.72-0.67,0.89c-0.19,0.17-0.47,0.25-0.83,0.25h-1.68
			c-0.46,0-0.81-0.13-1.06-0.38c-0.25-0.25-0.32-0.6-0.22-1.05c0.2-0.95,0.6-1.76,1.2-2.42c0.6-0.66,1.35-1.18,2.27-1.54
			c0.92-0.37,2-0.55,3.24-0.55c0.97,0,1.87,0.14,2.7,0.41c0.83,0.27,1.55,0.67,2.14,1.18c0.6,0.52,1.06,1.14,1.39,1.87
			c0.33,0.73,0.5,1.53,0.5,2.4c0,0.61-0.12,1.27-0.36,1.96c-0.24,0.7-0.62,1.39-1.16,2.09c-0.54,0.7-1.15,1.33-1.85,1.91l-3.24,2.67
			l0.02,0.1c0.88-0.1,2.07-0.15,3.57-0.15h2.4c0.44,0,0.78,0.12,1.02,0.36c0.24,0.24,0.35,0.58,0.35,1.02v0.92
			c0,0.44-0.12,0.78-0.35,1.02c-0.24,0.24-0.58,0.36-1.02,0.36H90.2z"/>
		<path class="st1" d="M110.36,99.71c-1.21,0-2.31-0.24-3.32-0.71c-1.01-0.48-1.86-1.13-2.56-1.97c-0.7-0.84-1.23-1.83-1.6-2.95
			c-0.38-1.13-0.56-2.31-0.56-3.56c0-1.26,0.19-2.44,0.56-3.57c0.37-1.12,0.91-2.1,1.6-2.94c0.7-0.84,1.55-1.5,2.56-1.97
			c1.01-0.48,2.12-0.71,3.32-0.71s2.31,0.24,3.32,0.71c1.01,0.48,1.87,1.13,2.59,1.97c0.71,0.84,1.26,1.82,1.64,2.94
			c0.38,1.12,0.57,2.31,0.57,3.57c0,1.24-0.19,2.43-0.57,3.56c-0.38,1.13-0.93,2.11-1.64,2.95s-1.58,1.5-2.59,1.97
			C112.67,99.47,111.56,99.71,110.36,99.71z M110.36,96.01c1.09,0,1.97-0.52,2.64-1.57c0.67-1.04,1.01-2.36,1.01-3.94
			c0-0.76-0.07-1.44-0.22-2.04c-0.14-0.59-0.34-1.13-0.6-1.6c-0.25-0.48-0.62-0.9-1.1-1.29c-0.48-0.38-1.05-0.57-1.73-0.57
			c-0.66,0-1.26,0.21-1.78,0.64c-0.53,0.43-0.96,1.05-1.29,1.87c-0.33,0.82-0.5,1.82-0.5,2.99c0,0.56,0.06,1.15,0.17,1.77
			c0.11,0.62,0.3,1.21,0.57,1.76c0.27,0.55,0.65,1.02,1.12,1.4C109.12,95.82,109.69,96.01,110.36,96.01z"/>
	</g>
</g>
<g>
	<path class="st2" d="M50.08,147.78c-0.29,0-0.51-0.08-0.66-0.24c-0.15-0.16-0.21-0.39-0.17-0.67l1.01-10.85
		c0.01-0.26,0.1-0.47,0.26-0.61c0.16-0.14,0.38-0.22,0.64-0.22h1.3c0.48,0,0.82,0.23,1.01,0.68l3.2,7.83l3.22-7.83
		c0.18-0.46,0.51-0.68,0.99-0.68h1.31c0.54,0,0.84,0.28,0.9,0.83l1.01,10.85c0.02,0.29-0.04,0.51-0.18,0.67
		c-0.14,0.16-0.36,0.24-0.65,0.24h-1.1c-0.55,0-0.86-0.28-0.92-0.83l-0.58-6.88l-2.77,6.88c-0.18,0.46-0.51,0.68-0.99,0.68h-0.49
		c-0.48,0-0.81-0.23-0.99-0.68l-2.77-6.88l-0.59,6.88c-0.01,0.26-0.1,0.47-0.26,0.61c-0.16,0.14-0.38,0.22-0.64,0.22H50.08z"/>
	<path class="st2" d="M70.03,147.98c-0.47,0-0.92-0.07-1.35-0.21c-0.43-0.14-0.83-0.34-1.19-0.59c-0.36-0.26-0.67-0.57-0.94-0.93
		c-0.26-0.36-0.49-0.8-0.68-1.32c-0.19-0.52-0.29-1.11-0.29-1.77s0.11-1.29,0.33-1.88c0.22-0.59,0.53-1.11,0.93-1.55
		c0.4-0.44,0.87-0.78,1.42-1.03c0.55-0.25,1.14-0.37,1.76-0.37s1.19,0.13,1.71,0.38s0.94,0.63,1.26,1.13v-0.45
		c0-0.28,0.08-0.49,0.23-0.64c0.15-0.15,0.36-0.22,0.64-0.22h1.06c0.28,0,0.49,0.08,0.64,0.22c0.15,0.15,0.22,0.36,0.22,0.64v7.52
		c0,0.28-0.08,0.49-0.22,0.64c-0.15,0.15-0.36,0.22-0.64,0.22h-1.06c-0.28,0-0.49-0.08-0.64-0.22c-0.15-0.15-0.23-0.36-0.23-0.64
		v-0.43c-0.32,0.49-0.74,0.86-1.26,1.12S70.65,147.98,70.03,147.98z M70.68,145.74c0.35,0,0.7-0.08,1.06-0.24s0.67-0.46,0.92-0.89
		s0.38-0.92,0.38-1.46s-0.13-1.03-0.38-1.46s-0.56-0.73-0.92-0.89c-0.36-0.16-0.71-0.24-1.06-0.24c-0.53,0-0.98,0.14-1.34,0.43
		s-0.62,0.64-0.76,1.04c-0.14,0.41-0.21,0.78-0.21,1.12c0,0.71,0.2,1.32,0.61,1.83S69.96,145.74,70.68,145.74z"/>
	<path class="st2" d="M79.44,137.43c-0.49,0-0.89-0.14-1.21-0.41c-0.31-0.28-0.47-0.62-0.47-1.03c0-0.42,0.15-0.77,0.45-1.04
		c0.3-0.28,0.71-0.41,1.22-0.41c0.37,0,0.7,0.08,0.97,0.24s0.46,0.36,0.56,0.58c0.1,0.23,0.14,0.44,0.14,0.63
		c0,0.41-0.16,0.75-0.47,1.03C80.34,137.29,79.93,137.43,79.44,137.43z M78.92,147.78c-0.28,0-0.49-0.08-0.64-0.22
		c-0.15-0.15-0.22-0.36-0.22-0.64v-7.52c0-0.28,0.07-0.49,0.22-0.64c0.15-0.15,0.36-0.22,0.64-0.22h1.04c0.28,0,0.49,0.08,0.65,0.22
		c0.16,0.15,0.23,0.36,0.23,0.64v7.52c0,0.28-0.08,0.49-0.23,0.64c-0.16,0.15-0.37,0.22-0.65,0.22H78.92z"/>
	<path class="st2" d="M86.25,147.98c-0.83,0-1.56-0.16-2.19-0.48c-0.63-0.32-1.1-0.78-1.4-1.38c-0.13-0.25-0.14-0.48-0.03-0.67
		c0.11-0.2,0.31-0.33,0.6-0.41l0.56-0.13c0.11-0.02,0.23-0.03,0.38-0.02c0.14,0.01,0.38,0.18,0.7,0.5c0.16,0.17,0.36,0.3,0.6,0.4
		c0.25,0.1,0.51,0.14,0.78,0.14c0.35,0,0.63-0.08,0.85-0.22c0.22-0.15,0.33-0.35,0.33-0.59c0-0.14-0.05-0.28-0.14-0.4
		c-0.1-0.13-0.34-0.26-0.72-0.41l-1.13-0.4c-1.74-0.56-2.61-1.46-2.61-2.68c0-0.85,0.32-1.55,0.97-2.1
		c0.65-0.55,1.47-0.82,2.47-0.82c0.62,0,1.19,0.11,1.7,0.34c0.51,0.23,0.93,0.58,1.25,1.06c0.17,0.25,0.2,0.49,0.1,0.7
		c-0.1,0.22-0.3,0.36-0.6,0.43l-0.5,0.13c-0.17,0.05-0.33,0.05-0.48,0.02c-0.15-0.04-0.34-0.16-0.57-0.36
		c-0.23-0.23-0.53-0.34-0.9-0.34c-0.28,0-0.5,0.08-0.67,0.23c-0.17,0.16-0.26,0.34-0.26,0.56c0,0.13,0.05,0.26,0.16,0.39
		c0.11,0.13,0.34,0.25,0.68,0.37l1.15,0.43c0.58,0.19,1.05,0.42,1.42,0.68s0.66,0.57,0.87,0.93s0.32,0.75,0.33,1.18
		c0,0.58-0.15,1.08-0.45,1.5c-0.3,0.43-0.73,0.77-1.29,1.02C87.68,147.85,87.01,147.98,86.25,147.98z"/>
	<path class="st2" d="M99.87,147.98c-0.47,0-0.92-0.07-1.36-0.21c-0.44-0.14-0.84-0.34-1.2-0.59c-0.36-0.26-0.67-0.57-0.94-0.93
		c-0.26-0.36-0.49-0.8-0.68-1.32c-0.19-0.52-0.29-1.11-0.29-1.77s0.11-1.29,0.33-1.88c0.22-0.59,0.53-1.11,0.93-1.55
		c0.4-0.44,0.87-0.78,1.42-1.03c0.55-0.25,1.15-0.37,1.78-0.37c0.61,0,1.18,0.13,1.69,0.38s0.94,0.63,1.26,1.13v-4.21
		c0-0.28,0.08-0.49,0.23-0.64c0.16-0.15,0.37-0.22,0.65-0.22h1.04c0.28,0,0.49,0.08,0.64,0.22c0.15,0.15,0.22,0.36,0.22,0.64v11.29
		c0,0.28-0.08,0.49-0.22,0.64c-0.15,0.15-0.36,0.22-0.64,0.22h-1.04c-0.28,0-0.49-0.08-0.65-0.22c-0.16-0.15-0.23-0.36-0.23-0.64
		v-0.43c-0.32,0.49-0.74,0.86-1.26,1.12S100.48,147.98,99.87,147.98z M100.5,145.74c0.35,0,0.7-0.08,1.06-0.24s0.67-0.46,0.92-0.89
		s0.38-0.92,0.4-1.46c-0.01-0.54-0.14-1.03-0.4-1.46s-0.56-0.73-0.92-0.89c-0.36-0.16-0.71-0.24-1.06-0.24
		c-0.52,0-0.96,0.14-1.33,0.43c-0.37,0.29-0.63,0.64-0.77,1.04c-0.14,0.41-0.21,0.78-0.21,1.12s0.06,0.69,0.19,1.06
		c0.13,0.37,0.31,0.68,0.56,0.91c0.25,0.23,0.5,0.4,0.77,0.49C99.99,145.7,100.25,145.74,100.5,145.74z"/>
	<path class="st2" d="M112.6,147.98c-0.79,0-1.52-0.12-2.2-0.37s-1.24-0.59-1.7-1.03c-0.46-0.44-0.82-0.95-1.06-1.54
		c-0.25-0.59-0.37-1.21-0.37-1.85c0-0.64,0.12-1.25,0.36-1.84c0.24-0.59,0.58-1.12,1.03-1.57s0.98-0.8,1.62-1.06
		c0.64-0.26,1.33-0.39,2.07-0.39c0.65,0,1.27,0.1,1.85,0.3c0.59,0.2,1.1,0.49,1.55,0.87c0.44,0.38,0.8,0.86,1.06,1.44
		c0.26,0.58,0.41,1.22,0.45,1.93c0.01,0.25-0.06,0.44-0.23,0.57s-0.38,0.19-0.66,0.19h-6.44c-0.01,0.35,0.1,0.7,0.32,1.04
		c0.23,0.35,0.57,0.62,1.04,0.82c0.46,0.2,0.96,0.3,1.48,0.3c0.71,0,1.39-0.19,2.05-0.56c0.49-0.28,0.9-0.22,1.22,0.18l0.2,0.25
		c0.18,0.22,0.26,0.44,0.23,0.67c-0.02,0.23-0.16,0.43-0.4,0.61C115.13,147.63,113.97,147.98,112.6,147.98z M110.01,142.07h4.64
		c-0.12-0.56-0.39-0.98-0.82-1.24c-0.43-0.26-0.91-0.4-1.45-0.4c-0.38,0-0.76,0.07-1.12,0.22c-0.36,0.14-0.64,0.35-0.85,0.61
		C110.21,141.53,110.08,141.8,110.01,142.07z"/>
	<path class="st2" d="M123.96,147.78c-0.53,0-0.84-0.26-0.94-0.79l-0.04-0.23c-0.07-0.43,0.07-0.8,0.41-1.12l4.36-3.94
		c0.54-0.47,0.96-0.92,1.25-1.34s0.44-0.88,0.44-1.36c0-0.25-0.06-0.51-0.19-0.78c-0.13-0.27-0.35-0.49-0.67-0.67
		c-0.32-0.17-0.7-0.26-1.12-0.26c-0.49,0-0.89,0.09-1.19,0.27c-0.3,0.18-0.52,0.41-0.65,0.7c-0.16,0.34-0.31,0.55-0.45,0.63
		c-0.14,0.08-0.31,0.13-0.49,0.13h-0.99c-0.29,0-0.51-0.08-0.67-0.25c-0.16-0.17-0.2-0.38-0.14-0.65c0.14-0.65,0.42-1.2,0.82-1.67
		s0.92-0.82,1.55-1.08c0.63-0.26,1.38-0.39,2.26-0.39c0.67,0,1.3,0.1,1.87,0.29c0.58,0.19,1.07,0.46,1.48,0.82
		c0.41,0.35,0.72,0.78,0.94,1.29c0.22,0.5,0.33,1.06,0.33,1.67c0,1.46-0.78,2.86-2.34,4.19l-2.72,2.3l0.02,0.07
		c0.23-0.02,0.64-0.05,1.25-0.07c0.61-0.02,1.06-0.04,1.36-0.04h2.11c0.28,0,0.49,0.08,0.64,0.23c0.15,0.16,0.22,0.37,0.22,0.65
		v0.52c0,0.28-0.07,0.49-0.22,0.64c-0.15,0.15-0.36,0.22-0.64,0.22H123.96z"/>
	<path class="st2" d="M139.74,147.98c-0.84,0-1.61-0.17-2.32-0.5c-0.71-0.34-1.31-0.8-1.79-1.4c-0.49-0.59-0.86-1.29-1.12-2.09
		c-0.26-0.8-0.39-1.63-0.39-2.51c0-0.89,0.13-1.73,0.39-2.52c0.26-0.79,0.63-1.48,1.12-2.08c0.49-0.59,1.08-1.06,1.79-1.39
		c0.71-0.34,1.48-0.5,2.32-0.5s1.61,0.17,2.31,0.5s1.3,0.8,1.79,1.39c0.49,0.59,0.87,1.29,1.13,2.08s0.4,1.63,0.4,2.52
		c0,0.88-0.13,1.71-0.4,2.51s-0.64,1.49-1.13,2.09s-1.09,1.06-1.79,1.4S140.58,147.98,139.74,147.98z M139.74,145.67
		c0.54,0,1.04-0.18,1.5-0.54c0.46-0.36,0.81-0.88,1.04-1.55c0.23-0.67,0.35-1.37,0.35-2.11c0-0.73-0.12-1.44-0.35-2.12
		c-0.23-0.68-0.58-1.2-1.04-1.56c-0.46-0.36-0.96-0.54-1.5-0.54s-1.02,0.16-1.44,0.49c-0.42,0.32-0.77,0.8-1.04,1.44
		c-0.27,0.64-0.41,1.4-0.41,2.29c0,0.73,0.11,1.43,0.34,2.11c0.23,0.67,0.57,1.19,1.04,1.55
		C138.7,145.49,139.2,145.67,139.74,145.67z"/>
	<path class="st2" d="M10.22,169.87c-0.79,0-1.52-0.12-2.2-0.37s-1.24-0.59-1.7-1.03c-0.46-0.44-0.82-0.95-1.06-1.54
		c-0.25-0.59-0.37-1.21-0.37-1.85c0-0.64,0.12-1.25,0.36-1.84c0.24-0.59,0.58-1.12,1.03-1.57s0.98-0.8,1.62-1.06
		c0.64-0.26,1.33-0.39,2.07-0.39c0.65,0,1.27,0.1,1.85,0.3c0.59,0.2,1.1,0.49,1.55,0.87c0.44,0.38,0.8,0.86,1.06,1.44
		c0.26,0.58,0.41,1.22,0.45,1.93c0.01,0.25-0.06,0.44-0.23,0.57s-0.38,0.19-0.66,0.19H7.56c-0.01,0.35,0.1,0.7,0.32,1.04
		c0.23,0.35,0.57,0.62,1.04,0.82c0.46,0.2,0.96,0.3,1.48,0.3c0.71,0,1.39-0.19,2.05-0.56c0.49-0.28,0.9-0.22,1.22,0.18l0.2,0.25
		c0.18,0.22,0.26,0.44,0.23,0.67c-0.02,0.23-0.16,0.43-0.4,0.61C12.75,169.52,11.59,169.87,10.22,169.87z M7.63,163.96h4.64
		c-0.12-0.56-0.39-0.98-0.82-1.24c-0.43-0.26-0.91-0.4-1.45-0.4c-0.38,0-0.76,0.07-1.12,0.22c-0.36,0.14-0.64,0.35-0.85,0.61
		C7.84,163.42,7.7,163.69,7.63,163.96z"/>
	<path class="st2" d="M19.62,169.87c-0.83,0-1.56-0.16-2.19-0.48c-0.63-0.32-1.1-0.78-1.4-1.38c-0.13-0.25-0.14-0.48-0.03-0.67
		c0.11-0.2,0.31-0.33,0.6-0.41l0.56-0.13c0.11-0.02,0.23-0.03,0.38-0.02c0.14,0.01,0.38,0.18,0.7,0.5c0.16,0.17,0.36,0.3,0.6,0.4
		c0.25,0.1,0.51,0.14,0.78,0.14c0.35,0,0.63-0.08,0.85-0.22c0.22-0.15,0.33-0.35,0.33-0.59c0-0.14-0.05-0.28-0.14-0.4
		c-0.1-0.13-0.34-0.26-0.72-0.41l-1.13-0.4c-1.74-0.56-2.61-1.46-2.61-2.68c0-0.85,0.32-1.55,0.97-2.1
		c0.65-0.55,1.47-0.82,2.47-0.82c0.62,0,1.19,0.11,1.7,0.34c0.51,0.23,0.93,0.58,1.25,1.06c0.17,0.25,0.2,0.49,0.1,0.7
		c-0.1,0.22-0.3,0.36-0.6,0.43l-0.5,0.13c-0.17,0.05-0.33,0.05-0.48,0.02c-0.15-0.04-0.34-0.16-0.57-0.36
		c-0.23-0.23-0.53-0.34-0.9-0.34c-0.28,0-0.5,0.08-0.67,0.23c-0.17,0.16-0.26,0.34-0.26,0.56c0,0.13,0.05,0.26,0.16,0.39
		c0.11,0.13,0.34,0.25,0.68,0.37l1.15,0.43c0.58,0.19,1.05,0.42,1.42,0.68s0.66,0.57,0.87,0.93s0.32,0.75,0.33,1.18
		c0,0.58-0.15,1.08-0.45,1.5c-0.3,0.43-0.73,0.77-1.29,1.02C21.05,169.74,20.39,169.87,19.62,169.87z"/>
	<path class="st2" d="M25.85,173.7c-0.28,0-0.49-0.08-0.64-0.23c-0.15-0.15-0.22-0.36-0.22-0.64v-11.56c0-0.28,0.07-0.49,0.22-0.64
		c0.15-0.15,0.36-0.22,0.64-0.22h1.06c0.28,0,0.49,0.08,0.64,0.22c0.15,0.15,0.23,0.36,0.23,0.64v0.43
		c0.32-0.49,0.74-0.86,1.26-1.12s1.09-0.38,1.71-0.38s1.21,0.12,1.76,0.37s1.03,0.59,1.42,1.03c0.4,0.44,0.71,0.95,0.93,1.55
		c0.22,0.59,0.33,1.22,0.33,1.88c0,0.49-0.07,1.01-0.22,1.56c-0.14,0.55-0.42,1.09-0.83,1.63c-0.41,0.54-0.92,0.95-1.54,1.22
		c-0.62,0.28-1.24,0.41-1.86,0.41s-1.19-0.13-1.71-0.38s-0.94-0.63-1.26-1.13v4.48c0,0.28-0.08,0.49-0.23,0.64
		c-0.15,0.15-0.36,0.23-0.64,0.23H25.85z M30.09,167.64c0.72,0,1.28-0.25,1.69-0.76s0.61-1.12,0.61-1.83c0-0.34-0.07-0.71-0.21-1.12
		c-0.14-0.41-0.39-0.76-0.76-1.04c-0.37-0.29-0.81-0.43-1.34-0.43c-0.35,0-0.7,0.08-1.06,0.24c-0.36,0.16-0.67,0.46-0.92,0.89
		s-0.38,0.92-0.38,1.46s0.13,1.03,0.38,1.46s0.56,0.73,0.92,0.89S29.75,167.64,30.09,167.64z"/>
	<path class="st2" d="M41.62,169.87c-0.79,0-1.52-0.12-2.2-0.37s-1.24-0.59-1.7-1.03c-0.46-0.44-0.82-0.95-1.06-1.54
		c-0.25-0.59-0.37-1.21-0.37-1.85c0-0.64,0.12-1.25,0.36-1.84c0.24-0.59,0.58-1.12,1.03-1.57s0.98-0.8,1.62-1.06
		c0.64-0.26,1.33-0.39,2.07-0.39c0.65,0,1.27,0.1,1.85,0.3c0.59,0.2,1.1,0.49,1.55,0.87c0.44,0.38,0.8,0.86,1.06,1.44
		c0.26,0.58,0.41,1.22,0.45,1.93c0.01,0.25-0.06,0.44-0.23,0.57s-0.38,0.19-0.66,0.19h-6.44c-0.01,0.35,0.1,0.7,0.32,1.04
		c0.23,0.35,0.57,0.62,1.04,0.82c0.46,0.2,0.96,0.3,1.48,0.3c0.71,0,1.39-0.19,2.05-0.56c0.49-0.28,0.9-0.22,1.22,0.18l0.2,0.25
		c0.18,0.22,0.26,0.44,0.23,0.67c-0.02,0.23-0.16,0.43-0.4,0.61C44.15,169.52,42.98,169.87,41.62,169.87z M39.02,163.96h4.64
		c-0.12-0.56-0.39-0.98-0.82-1.24c-0.43-0.26-0.91-0.4-1.45-0.4c-0.38,0-0.76,0.07-1.12,0.22c-0.36,0.14-0.64,0.35-0.85,0.61
		C39.23,163.42,39.09,163.69,39.02,163.96z"/>
	<path class="st2" d="M52.61,169.87c-0.78,0-1.5-0.12-2.16-0.37s-1.23-0.59-1.7-1.03c-0.47-0.44-0.84-0.95-1.09-1.53
		s-0.38-1.2-0.38-1.85c0-0.66,0.13-1.29,0.38-1.89c0.25-0.6,0.61-1.12,1.08-1.57c0.47-0.44,1.04-0.79,1.7-1.04s1.39-0.38,2.17-0.38
		c1.07,0,2.05,0.26,2.93,0.77c0.23,0.14,0.35,0.33,0.38,0.55c0.02,0.22-0.05,0.45-0.22,0.67l-0.29,0.36
		c-0.12,0.16-0.27,0.27-0.45,0.33c-0.18,0.07-0.44,0.03-0.77-0.12c-0.11-0.05-0.29-0.11-0.56-0.2c-0.26-0.08-0.55-0.13-0.86-0.13
		c-0.78,0-1.43,0.24-1.94,0.72c-0.51,0.48-0.76,1.1-0.76,1.85s0.25,1.37,0.76,1.85c0.51,0.48,1.16,0.72,1.94,0.72
		c0.31,0,0.6-0.04,0.86-0.13c0.26-0.08,0.45-0.15,0.56-0.2c0.26-0.12,0.5-0.17,0.69-0.13c0.2,0.03,0.38,0.15,0.53,0.35l0.29,0.36
		c0.17,0.23,0.23,0.46,0.18,0.7s-0.22,0.44-0.5,0.59C54.56,169.63,53.63,169.87,52.61,169.87z"/>
	<path class="st2" d="M59.13,159.32c-0.49,0-0.89-0.14-1.21-0.41c-0.31-0.28-0.47-0.62-0.47-1.03c0-0.42,0.15-0.77,0.45-1.04
		c0.3-0.28,0.71-0.41,1.22-0.41c0.37,0,0.7,0.08,0.97,0.24s0.46,0.36,0.56,0.58c0.1,0.23,0.14,0.44,0.14,0.63
		c0,0.41-0.16,0.75-0.47,1.03C60.02,159.18,59.62,159.32,59.13,159.32z M58.61,169.67c-0.28,0-0.49-0.08-0.64-0.22
		c-0.15-0.15-0.22-0.36-0.22-0.64v-7.52c0-0.28,0.07-0.49,0.22-0.64c0.15-0.15,0.36-0.22,0.64-0.22h1.04c0.28,0,0.49,0.08,0.65,0.22
		c0.16,0.15,0.23,0.36,0.23,0.64v7.52c0,0.28-0.08,0.49-0.23,0.64c-0.16,0.15-0.37,0.22-0.65,0.22H58.61z"/>
	<path class="st2" d="M63.68,169.67c-0.28,0-0.49-0.08-0.64-0.22c-0.15-0.15-0.22-0.36-0.22-0.64v-11.29c0-0.28,0.07-0.49,0.22-0.64
		c0.15-0.15,0.36-0.22,0.64-0.22h1.04c0.28,0,0.49,0.08,0.65,0.22c0.16,0.15,0.23,0.36,0.23,0.64v11.29c0,0.28-0.08,0.49-0.23,0.64
		c-0.16,0.15-0.37,0.22-0.65,0.22H63.68z"/>
	<path class="st2" d="M69.28,159.32c-0.49,0-0.89-0.14-1.21-0.41c-0.31-0.28-0.47-0.62-0.47-1.03c0-0.42,0.15-0.77,0.45-1.04
		c0.3-0.28,0.71-0.41,1.22-0.41c0.37,0,0.7,0.08,0.97,0.24s0.46,0.36,0.56,0.58c0.1,0.23,0.14,0.44,0.14,0.63
		c0,0.41-0.16,0.75-0.47,1.03C70.17,159.18,69.77,159.32,69.28,159.32z M68.76,169.67c-0.28,0-0.49-0.08-0.64-0.22
		c-0.15-0.15-0.22-0.36-0.22-0.64v-7.52c0-0.28,0.07-0.49,0.22-0.64c0.15-0.15,0.36-0.22,0.64-0.22h1.04c0.28,0,0.49,0.08,0.65,0.22
		c0.16,0.15,0.23,0.36,0.23,0.64v7.52c0,0.28-0.08,0.49-0.23,0.64c-0.16,0.15-0.37,0.22-0.65,0.22H68.76z"/>
	<path class="st2" d="M76.82,169.87c-0.47,0-0.92-0.07-1.35-0.21c-0.43-0.14-0.83-0.34-1.19-0.59c-0.36-0.26-0.67-0.57-0.94-0.93
		c-0.26-0.36-0.49-0.8-0.68-1.32c-0.19-0.52-0.29-1.11-0.29-1.77s0.11-1.29,0.33-1.88c0.22-0.59,0.53-1.11,0.93-1.55
		c0.4-0.44,0.87-0.78,1.42-1.03c0.55-0.25,1.14-0.37,1.76-0.37s1.19,0.13,1.71,0.38s0.94,0.63,1.26,1.13v-0.45
		c0-0.28,0.08-0.49,0.23-0.64c0.15-0.15,0.36-0.22,0.64-0.22h1.06c0.28,0,0.49,0.08,0.64,0.22c0.15,0.15,0.22,0.36,0.22,0.64v7.52
		c0,0.28-0.08,0.49-0.22,0.64c-0.15,0.15-0.36,0.22-0.64,0.22h-1.06c-0.28,0-0.49-0.08-0.64-0.22c-0.15-0.15-0.23-0.36-0.23-0.64
		v-0.43c-0.32,0.49-0.74,0.86-1.26,1.12S77.45,169.87,76.82,169.87z M77.47,167.64c0.35,0,0.7-0.08,1.06-0.24s0.67-0.46,0.92-0.89
		s0.38-0.92,0.38-1.46s-0.13-1.03-0.38-1.46s-0.56-0.73-0.92-0.89c-0.36-0.16-0.71-0.24-1.06-0.24c-0.53,0-0.98,0.14-1.34,0.43
		s-0.62,0.64-0.76,1.04c-0.14,0.41-0.21,0.78-0.21,1.12c0,0.71,0.2,1.32,0.61,1.83S76.75,167.64,77.47,167.64z"/>
	<path class="st2" d="M88.72,169.87c-0.47,0-0.92-0.07-1.36-0.21c-0.44-0.14-0.84-0.34-1.2-0.59c-0.36-0.26-0.67-0.57-0.94-0.93
		c-0.26-0.36-0.49-0.8-0.68-1.32c-0.19-0.52-0.29-1.11-0.29-1.77s0.11-1.29,0.33-1.88c0.22-0.59,0.53-1.11,0.93-1.55
		c0.4-0.44,0.87-0.78,1.42-1.03c0.55-0.25,1.15-0.37,1.78-0.37c0.61,0,1.18,0.13,1.69,0.38s0.94,0.63,1.26,1.13v-4.21
		c0-0.28,0.08-0.49,0.23-0.64c0.16-0.15,0.37-0.22,0.65-0.22h1.04c0.28,0,0.49,0.08,0.64,0.22c0.15,0.15,0.22,0.36,0.22,0.64v11.29
		c0,0.28-0.08,0.49-0.22,0.64c-0.15,0.15-0.36,0.22-0.64,0.22h-1.04c-0.28,0-0.49-0.08-0.65-0.22c-0.16-0.15-0.23-0.36-0.23-0.64
		v-0.43c-0.32,0.49-0.74,0.86-1.26,1.12S89.33,169.87,88.72,169.87z M89.35,167.64c0.35,0,0.7-0.08,1.06-0.24s0.67-0.46,0.92-0.89
		s0.38-0.92,0.4-1.46c-0.01-0.54-0.14-1.03-0.4-1.46s-0.56-0.73-0.92-0.89c-0.36-0.16-0.71-0.24-1.06-0.24
		c-0.52,0-0.96,0.14-1.33,0.43c-0.37,0.29-0.63,0.64-0.77,1.04c-0.14,0.41-0.21,0.78-0.21,1.12s0.06,0.69,0.19,1.06
		c0.13,0.37,0.31,0.68,0.56,0.91c0.25,0.23,0.5,0.4,0.77,0.49C88.84,167.59,89.1,167.64,89.35,167.64z"/>
	<path class="st2" d="M100.58,169.87c-0.47,0-0.92-0.07-1.35-0.21c-0.43-0.14-0.83-0.34-1.19-0.59c-0.36-0.26-0.67-0.57-0.94-0.93
		c-0.26-0.36-0.49-0.8-0.68-1.32c-0.19-0.52-0.29-1.11-0.29-1.77s0.11-1.29,0.33-1.88c0.22-0.59,0.53-1.11,0.93-1.55
		c0.4-0.44,0.87-0.78,1.42-1.03c0.55-0.25,1.14-0.37,1.76-0.37s1.19,0.13,1.71,0.38s0.94,0.63,1.26,1.13v-0.45
		c0-0.28,0.08-0.49,0.23-0.64c0.15-0.15,0.36-0.22,0.64-0.22h1.06c0.28,0,0.49,0.08,0.64,0.22c0.15,0.15,0.22,0.36,0.22,0.64v7.52
		c0,0.28-0.08,0.49-0.22,0.64c-0.15,0.15-0.36,0.22-0.64,0.22h-1.06c-0.28,0-0.49-0.08-0.64-0.22c-0.15-0.15-0.23-0.36-0.23-0.64
		v-0.43c-0.32,0.49-0.74,0.86-1.26,1.12S101.21,169.87,100.58,169.87z M101.23,167.64c0.35,0,0.7-0.08,1.06-0.24
		s0.67-0.46,0.92-0.89s0.38-0.92,0.38-1.46s-0.13-1.03-0.38-1.46s-0.56-0.73-0.92-0.89c-0.36-0.16-0.71-0.24-1.06-0.24
		c-0.53,0-0.98,0.14-1.34,0.43s-0.62,0.64-0.76,1.04c-0.14,0.41-0.21,0.78-0.21,1.12c0,0.71,0.2,1.32,0.61,1.83
		S100.51,167.64,101.23,167.64z"/>
	<path class="st2" d="M112.48,169.87c-0.47,0-0.92-0.07-1.36-0.21c-0.44-0.14-0.84-0.34-1.2-0.59c-0.36-0.26-0.67-0.57-0.94-0.93
		c-0.26-0.36-0.49-0.8-0.68-1.32c-0.19-0.52-0.29-1.11-0.29-1.77s0.11-1.29,0.33-1.88c0.22-0.59,0.53-1.11,0.93-1.55
		c0.4-0.44,0.87-0.78,1.42-1.03c0.55-0.25,1.15-0.37,1.78-0.37c0.61,0,1.18,0.13,1.69,0.38s0.94,0.63,1.26,1.13v-4.21
		c0-0.28,0.08-0.49,0.23-0.64c0.16-0.15,0.37-0.22,0.65-0.22h1.04c0.28,0,0.49,0.08,0.64,0.22c0.15,0.15,0.22,0.36,0.22,0.64v11.29
		c0,0.28-0.08,0.49-0.22,0.64c-0.15,0.15-0.36,0.22-0.64,0.22h-1.04c-0.28,0-0.49-0.08-0.65-0.22c-0.16-0.15-0.23-0.36-0.23-0.64
		v-0.43c-0.32,0.49-0.74,0.86-1.26,1.12S113.09,169.87,112.48,169.87z M113.11,167.64c0.35,0,0.7-0.08,1.06-0.24
		s0.67-0.46,0.92-0.89s0.38-0.92,0.4-1.46c-0.01-0.54-0.14-1.03-0.4-1.46s-0.56-0.73-0.92-0.89c-0.36-0.16-0.71-0.24-1.06-0.24
		c-0.52,0-0.96,0.14-1.33,0.43c-0.37,0.29-0.63,0.64-0.77,1.04c-0.14,0.41-0.21,0.78-0.21,1.12s0.06,0.69,0.19,1.06
		c0.13,0.37,0.31,0.68,0.56,0.91c0.25,0.23,0.5,0.4,0.77,0.49C112.6,167.59,112.86,167.64,113.11,167.64z"/>
	<path class="st2" d="M125.21,169.87c-0.79,0-1.52-0.12-2.2-0.37s-1.24-0.59-1.7-1.03c-0.46-0.44-0.82-0.95-1.06-1.54
		c-0.25-0.59-0.37-1.21-0.37-1.85c0-0.64,0.12-1.25,0.36-1.84c0.24-0.59,0.58-1.12,1.03-1.57s0.98-0.8,1.62-1.06
		c0.64-0.26,1.33-0.39,2.07-0.39c0.65,0,1.27,0.1,1.85,0.3c0.59,0.2,1.1,0.49,1.55,0.87c0.44,0.38,0.8,0.86,1.06,1.44
		c0.26,0.58,0.41,1.22,0.45,1.93c0.01,0.25-0.06,0.44-0.23,0.57s-0.38,0.19-0.66,0.19h-6.44c-0.01,0.35,0.1,0.7,0.32,1.04
		c0.23,0.35,0.57,0.62,1.04,0.82c0.46,0.2,0.96,0.3,1.48,0.3c0.71,0,1.39-0.19,2.05-0.56c0.49-0.28,0.9-0.22,1.22,0.18l0.2,0.25
		c0.18,0.22,0.26,0.44,0.23,0.67c-0.02,0.23-0.16,0.43-0.4,0.61C127.74,169.52,126.57,169.87,125.21,169.87z M122.61,163.96h4.64
		c-0.12-0.56-0.39-0.98-0.82-1.24c-0.43-0.26-0.91-0.4-1.45-0.4c-0.38,0-0.76,0.07-1.12,0.22c-0.36,0.14-0.64,0.35-0.85,0.61
		C122.82,163.42,122.69,163.69,122.61,163.96z"/>
	<path class="st2" d="M134.6,169.87c-0.83,0-1.56-0.16-2.19-0.48c-0.63-0.32-1.1-0.78-1.4-1.38c-0.13-0.25-0.14-0.48-0.03-0.67
		c0.11-0.2,0.31-0.33,0.6-0.41l0.56-0.13c0.11-0.02,0.23-0.03,0.38-0.02c0.14,0.01,0.38,0.18,0.7,0.5c0.16,0.17,0.36,0.3,0.6,0.4
		c0.25,0.1,0.51,0.14,0.78,0.14c0.35,0,0.63-0.08,0.85-0.22c0.22-0.15,0.33-0.35,0.33-0.59c0-0.14-0.05-0.28-0.14-0.4
		c-0.1-0.13-0.34-0.26-0.72-0.41l-1.13-0.4c-1.74-0.56-2.61-1.46-2.61-2.68c0-0.85,0.32-1.55,0.97-2.1
		c0.65-0.55,1.47-0.82,2.47-0.82c0.62,0,1.19,0.11,1.7,0.34c0.51,0.23,0.93,0.58,1.25,1.06c0.17,0.25,0.2,0.49,0.1,0.7
		c-0.1,0.22-0.3,0.36-0.6,0.43l-0.5,0.13c-0.17,0.05-0.33,0.05-0.48,0.02c-0.15-0.04-0.34-0.16-0.57-0.36
		c-0.23-0.23-0.53-0.34-0.9-0.34c-0.28,0-0.5,0.08-0.67,0.23c-0.17,0.16-0.26,0.34-0.26,0.56c0,0.13,0.05,0.26,0.16,0.39
		c0.11,0.13,0.34,0.25,0.68,0.37l1.15,0.43c0.58,0.19,1.05,0.42,1.42,0.68s0.66,0.57,0.87,0.93s0.32,0.75,0.33,1.18
		c0,0.58-0.15,1.08-0.45,1.5c-0.3,0.43-0.73,0.77-1.29,1.02C136.03,169.74,135.37,169.87,134.6,169.87z"/>
	<path class="st2" d="M148.16,169.87c-1.04,0-1.84-0.29-2.4-0.86c-0.56-0.58-0.84-1.38-0.84-2.41v-4.1H144
		c-0.13,0-0.24-0.04-0.33-0.13s-0.13-0.19-0.13-0.32v-1.17c0-0.13,0.04-0.24,0.13-0.32s0.2-0.13,0.33-0.13h1.13l0.31-1.87
		c0.04-0.18,0.12-0.32,0.24-0.42s0.28-0.15,0.46-0.15h0.88c0.2,0,0.36,0.06,0.47,0.17c0.11,0.11,0.16,0.27,0.16,0.46v1.82h2.09
		c0.13,0,0.24,0.04,0.32,0.13c0.08,0.08,0.13,0.19,0.13,0.32v1.17c0,0.13-0.04,0.24-0.13,0.32c-0.08,0.08-0.19,0.13-0.32,0.13h-2.09
		v4.19c0,0.32,0.07,0.56,0.22,0.72c0.14,0.16,0.32,0.23,0.54,0.23c0.23,0,0.41-0.08,0.56-0.24c0.14-0.16,0.22-0.36,0.22-0.6
		l-0.02-0.32c-0.04-0.32,0.09-0.49,0.38-0.49h1.1c0.12,0,0.23,0.03,0.32,0.09c0.09,0.06,0.15,0.15,0.19,0.27
		c0.07,0.26,0.11,0.5,0.11,0.7c0,0.6-0.12,1.1-0.37,1.51c-0.25,0.41-0.6,0.73-1.05,0.96C149.37,169.75,148.82,169.87,148.16,169.87z
		"/>
	<path class="st2" d="M157.08,169.87c-0.71,0-1.38-0.12-2.01-0.37c-0.63-0.25-1.18-0.59-1.65-1.04c-0.47-0.44-0.83-0.96-1.09-1.56
		c-0.26-0.59-0.39-1.21-0.39-1.86c0-0.31,0.04-0.67,0.13-1.07c0.08-0.4,0.24-0.81,0.48-1.22s0.55-0.81,0.96-1.2
		c0.41-0.38,0.93-0.7,1.56-0.95c0.63-0.25,1.3-0.38,2.01-0.38c0.53,0,1.04,0.07,1.54,0.22c0.5,0.14,0.95,0.35,1.37,0.61
		c0.41,0.26,0.8,0.61,1.16,1.03c0.36,0.42,0.63,0.9,0.8,1.44c0.17,0.54,0.26,1.05,0.26,1.53c0,0.31-0.04,0.67-0.13,1.07
		s-0.24,0.81-0.48,1.22c-0.23,0.41-0.55,0.81-0.96,1.2s-0.93,0.7-1.56,0.95S157.79,169.87,157.08,169.87z M157.08,167.62
		c0.68,0,1.27-0.25,1.75-0.75c0.49-0.5,0.73-1.1,0.73-1.81c0-0.72-0.24-1.33-0.73-1.83c-0.49-0.5-1.07-0.75-1.75-0.75
		c-0.7,0-1.28,0.25-1.76,0.75c-0.48,0.5-0.72,1.11-0.72,1.83c0,0.71,0.24,1.31,0.72,1.81C155.8,167.37,156.39,167.62,157.08,167.62z
		"/>
	<path class="st2" d="M167.76,169.87c-0.47,0-0.92-0.07-1.36-0.21c-0.44-0.14-0.84-0.34-1.2-0.59c-0.36-0.26-0.67-0.57-0.94-0.93
		c-0.26-0.36-0.49-0.8-0.68-1.32c-0.19-0.52-0.29-1.11-0.29-1.77s0.11-1.29,0.33-1.88c0.22-0.59,0.53-1.11,0.93-1.55
		c0.4-0.44,0.87-0.78,1.42-1.03c0.55-0.25,1.15-0.37,1.78-0.37c0.61,0,1.18,0.13,1.69,0.38s0.94,0.63,1.26,1.13v-4.21
		c0-0.28,0.08-0.49,0.23-0.64c0.16-0.15,0.37-0.22,0.65-0.22h1.04c0.28,0,0.49,0.08,0.64,0.22c0.15,0.15,0.22,0.36,0.22,0.64v11.29
		c0,0.28-0.08,0.49-0.22,0.64c-0.15,0.15-0.36,0.22-0.64,0.22h-1.04c-0.28,0-0.49-0.08-0.65-0.22c-0.16-0.15-0.23-0.36-0.23-0.64
		v-0.43c-0.32,0.49-0.74,0.86-1.26,1.12S168.37,169.87,167.76,169.87z M168.39,167.64c0.35,0,0.7-0.08,1.06-0.24
		s0.67-0.46,0.92-0.89s0.38-0.92,0.4-1.46c-0.01-0.54-0.14-1.03-0.4-1.46s-0.56-0.73-0.92-0.89c-0.36-0.16-0.71-0.24-1.06-0.24
		c-0.52,0-0.96,0.14-1.33,0.43c-0.37,0.29-0.63,0.64-0.77,1.04c-0.14,0.41-0.21,0.78-0.21,1.12s0.06,0.69,0.19,1.06
		c0.13,0.37,0.31,0.68,0.56,0.91c0.25,0.23,0.5,0.4,0.77,0.49C167.87,167.59,168.14,167.64,168.39,167.64z"/>
	<path class="st2" d="M180.27,169.87c-0.71,0-1.38-0.12-2.01-0.37c-0.63-0.25-1.18-0.59-1.65-1.04c-0.47-0.44-0.83-0.96-1.09-1.56
		c-0.26-0.59-0.39-1.21-0.39-1.86c0-0.31,0.04-0.67,0.13-1.07c0.08-0.4,0.24-0.81,0.48-1.22s0.55-0.81,0.96-1.2
		c0.41-0.38,0.93-0.7,1.56-0.95c0.63-0.25,1.3-0.38,2.01-0.38c0.53,0,1.04,0.07,1.54,0.22c0.5,0.14,0.95,0.35,1.37,0.61
		c0.41,0.26,0.8,0.61,1.16,1.03c0.36,0.42,0.63,0.9,0.8,1.44c0.17,0.54,0.26,1.05,0.26,1.53c0,0.31-0.04,0.67-0.13,1.07
		s-0.24,0.81-0.48,1.22c-0.23,0.41-0.55,0.81-0.96,1.2s-0.93,0.7-1.56,0.95S180.98,169.87,180.27,169.87z M180.27,167.62
		c0.68,0,1.27-0.25,1.75-0.75c0.49-0.5,0.73-1.1,0.73-1.81c0-0.72-0.24-1.33-0.73-1.83c-0.49-0.5-1.07-0.75-1.75-0.75
		c-0.7,0-1.28,0.25-1.76,0.75c-0.48,0.5-0.72,1.11-0.72,1.83c0,0.71,0.24,1.31,0.72,1.81C178.98,167.37,179.57,167.62,180.27,167.62
		z"/>
	<path class="st2" d="M190.18,169.87c-0.83,0-1.56-0.16-2.19-0.48c-0.63-0.32-1.1-0.78-1.4-1.38c-0.13-0.25-0.14-0.48-0.03-0.67
		c0.11-0.2,0.31-0.33,0.6-0.41l0.56-0.13c0.11-0.02,0.23-0.03,0.38-0.02c0.14,0.01,0.38,0.18,0.7,0.5c0.16,0.17,0.36,0.3,0.6,0.4
		c0.25,0.1,0.51,0.14,0.78,0.14c0.35,0,0.63-0.08,0.85-0.22c0.22-0.15,0.33-0.35,0.33-0.59c0-0.14-0.05-0.28-0.14-0.4
		c-0.1-0.13-0.34-0.26-0.72-0.41l-1.13-0.4c-1.74-0.56-2.61-1.46-2.61-2.68c0-0.85,0.32-1.55,0.97-2.1
		c0.65-0.55,1.47-0.82,2.47-0.82c0.62,0,1.19,0.11,1.7,0.34c0.51,0.23,0.93,0.58,1.25,1.06c0.17,0.25,0.2,0.49,0.1,0.7
		c-0.1,0.22-0.3,0.36-0.6,0.43l-0.5,0.13c-0.17,0.05-0.33,0.05-0.48,0.02c-0.15-0.04-0.34-0.16-0.57-0.36
		c-0.23-0.23-0.53-0.34-0.9-0.34c-0.28,0-0.5,0.08-0.67,0.23c-0.17,0.16-0.26,0.34-0.26,0.56c0,0.13,0.05,0.26,0.16,0.39
		c0.11,0.13,0.34,0.25,0.68,0.37l1.15,0.43c0.58,0.19,1.05,0.42,1.42,0.68s0.66,0.57,0.87,0.93s0.32,0.75,0.33,1.18
		c0,0.58-0.15,1.08-0.45,1.5c-0.3,0.43-0.73,0.77-1.29,1.02C191.62,169.74,190.95,169.87,190.18,169.87z"/>
	<path class="st2" d="M72.11,191.76c-0.71,0-1.38-0.12-2.01-0.37c-0.63-0.25-1.18-0.59-1.65-1.04c-0.47-0.44-0.83-0.96-1.09-1.56
		c-0.26-0.59-0.39-1.21-0.39-1.86c0-0.31,0.04-0.67,0.13-1.07c0.08-0.4,0.24-0.81,0.48-1.22s0.55-0.81,0.96-1.2
		c0.41-0.38,0.93-0.7,1.56-0.95c0.63-0.25,1.3-0.38,2.01-0.38c0.53,0,1.04,0.07,1.54,0.22c0.5,0.14,0.95,0.35,1.37,0.61
		c0.41,0.26,0.8,0.61,1.16,1.03c0.36,0.42,0.63,0.9,0.8,1.44c0.17,0.54,0.26,1.05,0.26,1.53c0,0.31-0.04,0.67-0.13,1.07
		s-0.24,0.81-0.48,1.22c-0.23,0.41-0.55,0.81-0.96,1.2s-0.93,0.7-1.56,0.95S72.82,191.76,72.11,191.76z M72.11,189.51
		c0.68,0,1.27-0.25,1.75-0.75c0.49-0.5,0.73-1.1,0.73-1.81c0-0.72-0.24-1.33-0.73-1.83c-0.49-0.5-1.07-0.75-1.75-0.75
		c-0.7,0-1.28,0.25-1.76,0.75c-0.48,0.5-0.72,1.11-0.72,1.83c0,0.71,0.24,1.31,0.72,1.81C70.82,189.26,71.41,189.51,72.11,189.51z"
		/>
	<path class="st2" d="M82.02,191.76c-0.83,0-1.56-0.16-2.19-0.48c-0.63-0.32-1.1-0.78-1.4-1.38c-0.13-0.25-0.14-0.48-0.03-0.67
		c0.11-0.2,0.31-0.33,0.6-0.41l0.56-0.13c0.11-0.02,0.23-0.03,0.38-0.02c0.14,0.01,0.38,0.18,0.7,0.5c0.16,0.17,0.36,0.3,0.6,0.4
		c0.25,0.1,0.51,0.14,0.78,0.14c0.35,0,0.63-0.08,0.85-0.22c0.22-0.15,0.33-0.35,0.33-0.59c0-0.14-0.05-0.28-0.14-0.4
		c-0.1-0.13-0.34-0.26-0.72-0.41l-1.13-0.4c-1.74-0.56-2.61-1.46-2.61-2.68c0-0.85,0.32-1.55,0.97-2.1
		c0.65-0.55,1.47-0.82,2.47-0.82c0.62,0,1.19,0.11,1.7,0.34c0.51,0.23,0.93,0.58,1.25,1.06c0.17,0.25,0.2,0.49,0.1,0.7
		c-0.1,0.22-0.3,0.36-0.6,0.43l-0.5,0.13c-0.17,0.05-0.33,0.05-0.48,0.02c-0.15-0.04-0.34-0.16-0.57-0.36
		c-0.23-0.23-0.53-0.34-0.9-0.34c-0.28,0-0.5,0.08-0.67,0.23c-0.17,0.16-0.26,0.34-0.26,0.56c0,0.13,0.05,0.26,0.16,0.39
		c0.11,0.13,0.34,0.25,0.68,0.37l1.15,0.43c0.58,0.19,1.05,0.42,1.42,0.68s0.66,0.57,0.87,0.93s0.32,0.75,0.33,1.18
		c0,0.58-0.15,1.08-0.45,1.5c-0.3,0.43-0.73,0.77-1.29,1.02C83.46,191.64,82.79,191.76,82.02,191.76z"/>
	<path class="st2" d="M95.65,191.76c-0.47,0-0.92-0.07-1.36-0.21c-0.44-0.14-0.84-0.34-1.2-0.59c-0.36-0.26-0.67-0.57-0.94-0.93
		c-0.26-0.36-0.49-0.8-0.68-1.32c-0.19-0.52-0.29-1.11-0.29-1.77s0.11-1.29,0.33-1.88c0.22-0.59,0.53-1.11,0.93-1.55
		c0.4-0.44,0.87-0.78,1.42-1.03c0.55-0.25,1.15-0.37,1.78-0.37c0.61,0,1.18,0.13,1.69,0.38s0.94,0.63,1.26,1.13v-4.21
		c0-0.28,0.08-0.49,0.23-0.64c0.16-0.15,0.37-0.22,0.65-0.22h1.04c0.28,0,0.49,0.08,0.64,0.22c0.15,0.15,0.22,0.36,0.22,0.64v11.29
		c0,0.28-0.08,0.49-0.22,0.64c-0.15,0.15-0.36,0.22-0.64,0.22h-1.04c-0.28,0-0.49-0.08-0.65-0.22c-0.16-0.15-0.23-0.36-0.23-0.64
		v-0.43c-0.32,0.49-0.74,0.86-1.26,1.12S96.26,191.76,95.65,191.76z M96.28,189.53c0.35,0,0.7-0.08,1.06-0.24s0.67-0.46,0.92-0.89
		s0.38-0.92,0.4-1.46c-0.01-0.54-0.14-1.03-0.4-1.46s-0.56-0.73-0.92-0.89c-0.36-0.16-0.71-0.24-1.06-0.24
		c-0.52,0-0.96,0.14-1.33,0.43c-0.37,0.29-0.63,0.64-0.77,1.04c-0.14,0.41-0.21,0.78-0.21,1.12s0.06,0.69,0.19,1.06
		c0.13,0.37,0.31,0.68,0.56,0.91c0.25,0.23,0.5,0.4,0.77,0.49C95.77,189.49,96.03,189.53,96.28,189.53z"/>
	<path class="st2" d="M105.05,181.21c-0.49,0-0.89-0.14-1.21-0.41c-0.31-0.28-0.47-0.62-0.47-1.03c0-0.42,0.15-0.77,0.45-1.04
		c0.3-0.28,0.71-0.41,1.22-0.41c0.37,0,0.7,0.08,0.97,0.24s0.46,0.36,0.56,0.58c0.1,0.23,0.14,0.44,0.14,0.63
		c0,0.41-0.16,0.75-0.47,1.03C105.94,181.08,105.54,181.21,105.05,181.21z M104.52,191.56c-0.28,0-0.49-0.08-0.64-0.22
		c-0.15-0.15-0.22-0.36-0.22-0.64v-7.52c0-0.28,0.07-0.49,0.22-0.64c0.15-0.15,0.36-0.22,0.64-0.22h1.04c0.28,0,0.49,0.08,0.65,0.22
		c0.16,0.15,0.23,0.36,0.23,0.64v7.52c0,0.28-0.08,0.49-0.23,0.64c-0.16,0.15-0.37,0.22-0.65,0.22H104.52z"/>
	<path class="st2" d="M112.59,191.76c-0.47,0-0.92-0.07-1.35-0.21c-0.43-0.14-0.83-0.34-1.19-0.59c-0.36-0.26-0.67-0.57-0.94-0.93
		c-0.26-0.36-0.49-0.8-0.68-1.32c-0.19-0.52-0.29-1.11-0.29-1.77s0.11-1.29,0.33-1.88c0.22-0.59,0.53-1.11,0.93-1.55
		c0.4-0.44,0.87-0.78,1.42-1.03c0.55-0.25,1.14-0.37,1.76-0.37s1.19,0.13,1.71,0.38s0.94,0.63,1.26,1.13v-0.45
		c0-0.28,0.08-0.49,0.23-0.64c0.15-0.15,0.36-0.22,0.64-0.22h1.06c0.28,0,0.49,0.08,0.64,0.22c0.15,0.15,0.22,0.36,0.22,0.64v7.52
		c0,0.28-0.08,0.49-0.22,0.64c-0.15,0.15-0.36,0.22-0.64,0.22h-1.06c-0.28,0-0.49-0.08-0.64-0.22c-0.15-0.15-0.23-0.36-0.23-0.64
		v-0.43c-0.32,0.49-0.74,0.86-1.26,1.12S113.21,191.76,112.59,191.76z M113.24,189.53c0.35,0,0.7-0.08,1.06-0.24
		s0.67-0.46,0.92-0.89s0.38-0.92,0.38-1.46s-0.13-1.03-0.38-1.46s-0.56-0.73-0.92-0.89c-0.36-0.16-0.71-0.24-1.06-0.24
		c-0.53,0-0.98,0.14-1.34,0.43s-0.62,0.64-0.76,1.04c-0.14,0.41-0.21,0.78-0.21,1.12c0,0.71,0.2,1.32,0.61,1.83
		S112.52,189.53,113.24,189.53z"/>
	<path class="st2" d="M123.73,191.76c-0.83,0-1.56-0.16-2.19-0.48c-0.63-0.32-1.1-0.78-1.4-1.38c-0.13-0.25-0.14-0.48-0.03-0.67
		c0.11-0.2,0.31-0.33,0.6-0.41l0.56-0.13c0.11-0.02,0.23-0.03,0.38-0.02c0.14,0.01,0.38,0.18,0.7,0.5c0.16,0.17,0.36,0.3,0.6,0.4
		c0.25,0.1,0.51,0.14,0.78,0.14c0.35,0,0.63-0.08,0.85-0.22c0.22-0.15,0.33-0.35,0.33-0.59c0-0.14-0.05-0.28-0.14-0.4
		c-0.1-0.13-0.34-0.26-0.72-0.41l-1.13-0.4c-1.74-0.56-2.61-1.46-2.61-2.68c0-0.85,0.32-1.55,0.97-2.1
		c0.65-0.55,1.47-0.82,2.47-0.82c0.62,0,1.19,0.11,1.7,0.34c0.51,0.23,0.93,0.58,1.25,1.06c0.17,0.25,0.2,0.49,0.1,0.7
		c-0.1,0.22-0.3,0.36-0.6,0.43l-0.5,0.13c-0.17,0.05-0.33,0.05-0.48,0.02c-0.15-0.04-0.34-0.16-0.57-0.36
		c-0.23-0.23-0.53-0.34-0.9-0.34c-0.28,0-0.5,0.08-0.67,0.23c-0.17,0.16-0.26,0.34-0.26,0.56c0,0.13,0.05,0.26,0.16,0.39
		c0.11,0.13,0.34,0.25,0.68,0.37l1.15,0.43c0.58,0.19,1.05,0.42,1.42,0.68s0.66,0.57,0.87,0.93s0.32,0.75,0.33,1.18
		c0,0.58-0.15,1.08-0.45,1.5c-0.3,0.43-0.73,0.77-1.29,1.02C125.16,191.64,124.5,191.76,123.73,191.76z"/>
</g>
</svg>
