<?xml version="1.0" encoding="utf-8"?>
<!-- Generator: Adobe Illustrator 24.1.0, SVG Export Plug-In . SVG Version: 6.00 Build 0)  -->
<svg version="1.1" id="Layer_1" xmlns="http://www.w3.org/2000/svg" xmlns:xlink="http://www.w3.org/1999/xlink" x="0px" y="0px"
	 viewBox="0 0 200 196.98" style="enable-background:new 0 0 200 196.98;" xml:space="preserve">
<style type="text/css">
	.st0{fill:#E20D18;}
	.st1{fill:#FFFFFF;}
	.st2{fill:#12448B;}
	.st3{fill-rule:evenodd;clip-rule:evenodd;fill:#FFFFFF;}
</style>
<circle class="st0" cx="100" cy="56.97" r="56.97"/>
<g>
	<path class="st2" d="M5.12,142.78c-0.28,0-0.49-0.08-0.65-0.22c-0.16-0.15-0.23-0.36-0.23-0.64v-10.87c0-0.28,0.08-0.49,0.23-0.64
		s0.37-0.22,0.65-0.22h4.16c0.92,0,1.78,0.16,2.58,0.49c0.8,0.32,1.48,0.78,2.06,1.36s1.02,1.26,1.33,2.02
		c0.31,0.77,0.47,1.58,0.47,2.43c0,0.85-0.16,1.67-0.47,2.44c-0.31,0.77-0.76,1.45-1.33,2.03s-1.26,1.03-2.06,1.35
		c-0.8,0.32-1.66,0.49-2.58,0.49H5.12z M7.1,140.37h1.89c0.28,0,0.58-0.03,0.93-0.1c0.34-0.07,0.68-0.19,1.02-0.36
		s0.65-0.41,0.94-0.72c0.29-0.31,0.52-0.7,0.7-1.17c0.18-0.47,0.27-0.99,0.27-1.54c0-0.41-0.06-0.83-0.18-1.28
		c-0.12-0.44-0.35-0.88-0.68-1.31c-0.34-0.43-0.77-0.76-1.31-0.97s-1.1-0.32-1.67-0.32H7.1V140.37z"/>
	<path class="st2" d="M22.22,142.98c-0.79,0-1.52-0.12-2.2-0.37s-1.24-0.59-1.7-1.03c-0.46-0.44-0.82-0.95-1.06-1.54
		c-0.25-0.59-0.37-1.21-0.37-1.85c0-0.64,0.12-1.25,0.36-1.84c0.24-0.59,0.58-1.12,1.03-1.57s0.98-0.8,1.62-1.06
		c0.64-0.26,1.33-0.39,2.07-0.39c0.65,0,1.27,0.1,1.85,0.3c0.59,0.2,1.1,0.49,1.55,0.87c0.44,0.38,0.8,0.86,1.06,1.44
		c0.26,0.58,0.41,1.22,0.45,1.93c0.01,0.25-0.06,0.44-0.23,0.57s-0.38,0.19-0.66,0.19h-6.44c-0.01,0.35,0.1,0.7,0.32,1.04
		c0.23,0.35,0.57,0.62,1.04,0.82c0.46,0.2,0.96,0.3,1.48,0.3c0.71,0,1.39-0.19,2.05-0.56c0.49-0.28,0.9-0.22,1.22,0.18l0.2,0.25
		c0.18,0.22,0.26,0.44,0.23,0.67c-0.02,0.23-0.16,0.43-0.4,0.61C24.75,142.63,23.59,142.98,22.22,142.98z M19.63,137.07h4.64
		c-0.12-0.56-0.39-0.98-0.82-1.24c-0.43-0.26-0.91-0.4-1.45-0.4c-0.38,0-0.76,0.07-1.12,0.22c-0.36,0.14-0.64,0.35-0.85,0.61
		C19.84,136.53,19.7,136.8,19.63,137.07z"/>
	<path class="st2" d="M31.62,142.98c-0.83,0-1.56-0.16-2.19-0.48c-0.63-0.32-1.1-0.78-1.4-1.38c-0.13-0.25-0.14-0.48-0.03-0.67
		c0.11-0.2,0.31-0.33,0.6-0.41l0.56-0.13c0.11-0.02,0.23-0.03,0.38-0.02c0.14,0.01,0.38,0.18,0.7,0.5c0.16,0.17,0.36,0.3,0.6,0.4
		c0.25,0.1,0.51,0.14,0.78,0.14c0.35,0,0.63-0.08,0.85-0.22c0.22-0.15,0.33-0.35,0.33-0.59c0-0.14-0.05-0.28-0.14-0.4
		c-0.1-0.13-0.34-0.26-0.72-0.41l-1.13-0.4c-1.74-0.56-2.61-1.46-2.61-2.68c0-0.85,0.32-1.55,0.97-2.1
		c0.65-0.55,1.47-0.82,2.47-0.82c0.62,0,1.19,0.11,1.7,0.34c0.51,0.23,0.93,0.58,1.25,1.06c0.17,0.25,0.2,0.49,0.1,0.7
		c-0.1,0.22-0.3,0.36-0.6,0.43l-0.5,0.13c-0.17,0.05-0.33,0.05-0.48,0.02c-0.15-0.04-0.34-0.16-0.57-0.36
		c-0.23-0.23-0.53-0.34-0.9-0.34c-0.28,0-0.5,0.08-0.67,0.23c-0.17,0.16-0.26,0.34-0.26,0.56c0,0.13,0.05,0.26,0.16,0.39
		c0.11,0.13,0.34,0.25,0.68,0.37l1.15,0.43c0.58,0.19,1.05,0.42,1.42,0.68s0.66,0.57,0.87,0.93s0.32,0.75,0.33,1.18
		c0,0.58-0.15,1.08-0.45,1.5c-0.3,0.43-0.73,0.77-1.29,1.02C33.05,142.85,32.39,142.98,31.62,142.98z"/>
	<path class="st2" d="M41.73,142.98c-0.78,0-1.5-0.12-2.16-0.37s-1.23-0.59-1.7-1.03c-0.47-0.44-0.84-0.95-1.09-1.53
		s-0.38-1.2-0.38-1.85c0-0.66,0.13-1.29,0.38-1.89c0.25-0.6,0.61-1.12,1.08-1.57c0.47-0.44,1.04-0.79,1.7-1.04s1.39-0.38,2.17-0.38
		c1.07,0,2.05,0.26,2.93,0.77c0.23,0.14,0.35,0.33,0.38,0.55c0.02,0.22-0.05,0.45-0.22,0.67l-0.29,0.36
		c-0.12,0.16-0.27,0.27-0.45,0.33c-0.18,0.07-0.44,0.03-0.77-0.12c-0.11-0.05-0.29-0.11-0.56-0.2c-0.26-0.08-0.55-0.13-0.86-0.13
		c-0.78,0-1.43,0.24-1.94,0.72c-0.51,0.48-0.76,1.1-0.76,1.85s0.25,1.37,0.76,1.85c0.51,0.48,1.16,0.72,1.94,0.72
		c0.31,0,0.6-0.04,0.86-0.13c0.26-0.08,0.45-0.15,0.56-0.2c0.26-0.12,0.5-0.17,0.69-0.13c0.2,0.03,0.38,0.15,0.53,0.35l0.29,0.36
		c0.17,0.23,0.23,0.46,0.18,0.7s-0.22,0.44-0.5,0.59C43.68,142.74,42.75,142.98,41.73,142.98z"/>
	<path class="st2" d="M51.15,142.98c-0.71,0-1.38-0.12-2.01-0.37c-0.63-0.25-1.18-0.59-1.65-1.04c-0.47-0.44-0.83-0.96-1.09-1.56
		c-0.26-0.59-0.39-1.21-0.39-1.86c0-0.31,0.04-0.67,0.13-1.07c0.08-0.4,0.24-0.81,0.48-1.22s0.55-0.81,0.96-1.2
		c0.41-0.38,0.93-0.7,1.56-0.95c0.63-0.25,1.3-0.38,2.01-0.38c0.53,0,1.04,0.07,1.54,0.22c0.5,0.14,0.95,0.35,1.37,0.61
		c0.41,0.26,0.8,0.61,1.16,1.03c0.36,0.42,0.63,0.9,0.8,1.44c0.17,0.54,0.26,1.05,0.26,1.53c0,0.31-0.04,0.67-0.13,1.07
		s-0.24,0.81-0.48,1.22c-0.23,0.41-0.55,0.81-0.96,1.2s-0.93,0.7-1.56,0.95S51.86,142.98,51.15,142.98z M51.15,140.73
		c0.68,0,1.27-0.25,1.75-0.75c0.49-0.5,0.73-1.1,0.73-1.81c0-0.72-0.24-1.33-0.73-1.83c-0.49-0.5-1.07-0.75-1.75-0.75
		c-0.7,0-1.28,0.25-1.76,0.75c-0.48,0.5-0.72,1.11-0.72,1.83c0,0.71,0.24,1.31,0.72,1.81C49.86,140.48,50.45,140.73,51.15,140.73z"
		/>
	<path class="st2" d="M58.78,142.78c-0.28,0-0.49-0.08-0.64-0.22c-0.15-0.15-0.22-0.36-0.22-0.64v-7.52c0-0.28,0.07-0.49,0.22-0.64
		c0.15-0.15,0.36-0.22,0.64-0.22h1.06c0.28,0,0.49,0.08,0.64,0.22c0.15,0.15,0.23,0.36,0.23,0.64V135c0.23-0.53,0.58-0.94,1.07-1.23
		c0.49-0.29,1.07-0.44,1.74-0.44c0.73,0,1.35,0.17,1.84,0.5s0.88,0.8,1.14,1.41c0.26,0.61,0.4,1.35,0.4,2.21v4.46
		c0,0.28-0.08,0.49-0.23,0.64c-0.16,0.15-0.37,0.22-0.65,0.22h-1.04c-0.28,0-0.49-0.08-0.64-0.22c-0.15-0.15-0.23-0.36-0.23-0.64
		v-4.27c0-0.65-0.13-1.15-0.38-1.51c-0.25-0.36-0.61-0.54-1.08-0.54c-0.23,0-0.49,0.07-0.8,0.2c-0.31,0.13-0.57,0.39-0.8,0.77
		c-0.23,0.38-0.34,0.88-0.34,1.49v3.85c0,0.28-0.08,0.49-0.23,0.64c-0.15,0.15-0.36,0.22-0.64,0.22H58.78z"/>
	<path class="st2" d="M72.73,142.98c-1.04,0-1.84-0.29-2.4-0.86c-0.56-0.58-0.84-1.38-0.84-2.41v-4.1h-0.92
		c-0.13,0-0.24-0.04-0.33-0.13s-0.13-0.19-0.13-0.32v-1.17c0-0.13,0.04-0.24,0.13-0.32s0.2-0.13,0.33-0.13h1.13l0.31-1.87
		c0.04-0.18,0.12-0.32,0.24-0.42s0.28-0.15,0.46-0.15h0.88c0.2,0,0.36,0.06,0.47,0.17c0.11,0.11,0.16,0.27,0.16,0.46v1.82h2.09
		c0.13,0,0.24,0.04,0.32,0.13c0.08,0.08,0.13,0.19,0.13,0.32v1.17c0,0.13-0.04,0.24-0.13,0.32c-0.08,0.08-0.19,0.13-0.32,0.13h-2.09
		v4.19c0,0.32,0.07,0.56,0.22,0.72c0.14,0.16,0.32,0.23,0.54,0.23c0.23,0,0.41-0.08,0.56-0.24c0.14-0.16,0.22-0.36,0.22-0.6
		l-0.02-0.32c-0.04-0.32,0.09-0.49,0.38-0.49h1.1c0.12,0,0.23,0.03,0.32,0.09c0.09,0.06,0.15,0.15,0.19,0.27
		c0.07,0.26,0.11,0.5,0.11,0.7c0,0.6-0.12,1.1-0.37,1.51c-0.25,0.41-0.6,0.73-1.05,0.96C73.95,142.86,73.39,142.98,72.73,142.98z"/>
	<path class="st2" d="M81.66,142.98c-0.71,0-1.38-0.12-2.01-0.37c-0.63-0.25-1.18-0.59-1.65-1.04c-0.47-0.44-0.83-0.96-1.09-1.56
		c-0.26-0.59-0.39-1.21-0.39-1.86c0-0.31,0.04-0.67,0.13-1.07c0.08-0.4,0.24-0.81,0.48-1.22s0.55-0.81,0.96-1.2
		c0.41-0.38,0.93-0.7,1.56-0.95c0.63-0.25,1.3-0.38,2.01-0.38c0.53,0,1.04,0.07,1.54,0.22c0.5,0.14,0.95,0.35,1.37,0.61
		c0.41,0.26,0.8,0.61,1.16,1.03c0.36,0.42,0.63,0.9,0.8,1.44c0.17,0.54,0.26,1.05,0.26,1.53c0,0.31-0.04,0.67-0.13,1.07
		s-0.24,0.81-0.48,1.22c-0.23,0.41-0.55,0.81-0.96,1.2s-0.93,0.7-1.56,0.95S82.37,142.98,81.66,142.98z M81.66,140.73
		c0.68,0,1.27-0.25,1.75-0.75c0.49-0.5,0.73-1.1,0.73-1.81c0-0.72-0.24-1.33-0.73-1.83c-0.49-0.5-1.07-0.75-1.75-0.75
		c-0.7,0-1.28,0.25-1.76,0.75c-0.48,0.5-0.72,1.11-0.72,1.83c0,0.71,0.24,1.31,0.72,1.81C80.37,140.48,80.96,140.73,81.66,140.73z"
		/>
	<path class="st2" d="M96.69,142.98c-0.47,0-0.92-0.07-1.36-0.21c-0.44-0.14-0.84-0.34-1.2-0.59c-0.36-0.26-0.67-0.57-0.94-0.93
		c-0.26-0.36-0.49-0.8-0.68-1.32c-0.19-0.52-0.29-1.11-0.29-1.77s0.11-1.29,0.33-1.88c0.22-0.59,0.53-1.11,0.93-1.55
		c0.4-0.44,0.87-0.78,1.42-1.03c0.55-0.25,1.15-0.37,1.78-0.37c0.61,0,1.18,0.13,1.69,0.38s0.94,0.63,1.26,1.13v-4.21
		c0-0.28,0.08-0.49,0.23-0.64c0.16-0.15,0.37-0.22,0.65-0.22h1.04c0.28,0,0.49,0.08,0.64,0.22c0.15,0.15,0.22,0.36,0.22,0.64v11.29
		c0,0.28-0.08,0.49-0.22,0.64c-0.15,0.15-0.36,0.22-0.64,0.22h-1.04c-0.28,0-0.49-0.08-0.65-0.22c-0.16-0.15-0.23-0.36-0.23-0.64
		v-0.43c-0.32,0.49-0.74,0.86-1.26,1.12S97.3,142.98,96.69,142.98z M97.32,140.74c0.35,0,0.7-0.08,1.06-0.24s0.67-0.46,0.92-0.89
		s0.38-0.92,0.4-1.46c-0.01-0.54-0.14-1.03-0.4-1.46s-0.56-0.73-0.92-0.89c-0.36-0.16-0.71-0.24-1.06-0.24
		c-0.52,0-0.96,0.14-1.33,0.43c-0.37,0.29-0.63,0.64-0.77,1.04c-0.14,0.41-0.21,0.78-0.21,1.12s0.06,0.69,0.19,1.06
		c0.13,0.37,0.31,0.68,0.56,0.91c0.25,0.23,0.5,0.4,0.77,0.49C96.8,140.7,97.07,140.74,97.32,140.74z"/>
	<path class="st2" d="M109.41,142.98c-0.79,0-1.52-0.12-2.2-0.37s-1.24-0.59-1.7-1.03c-0.46-0.44-0.82-0.95-1.06-1.54
		c-0.25-0.59-0.37-1.21-0.37-1.85c0-0.64,0.12-1.25,0.36-1.84c0.24-0.59,0.58-1.12,1.03-1.57s0.98-0.8,1.62-1.06
		c0.64-0.26,1.33-0.39,2.07-0.39c0.65,0,1.27,0.1,1.85,0.3c0.59,0.2,1.1,0.49,1.55,0.87c0.44,0.38,0.8,0.86,1.06,1.44
		c0.26,0.58,0.41,1.22,0.45,1.93c0.01,0.25-0.06,0.44-0.23,0.57s-0.38,0.19-0.66,0.19h-6.44c-0.01,0.35,0.1,0.7,0.32,1.04
		c0.23,0.35,0.57,0.62,1.04,0.82c0.46,0.2,0.96,0.3,1.48,0.3c0.71,0,1.39-0.19,2.05-0.56c0.49-0.28,0.9-0.22,1.22,0.18l0.2,0.25
		c0.18,0.22,0.26,0.44,0.23,0.67c-0.02,0.23-0.16,0.43-0.4,0.61C111.94,142.63,110.78,142.98,109.41,142.98z M106.82,137.07h4.64
		c-0.12-0.56-0.39-0.98-0.82-1.24c-0.43-0.26-0.91-0.4-1.45-0.4c-0.38,0-0.76,0.07-1.12,0.22c-0.36,0.14-0.64,0.35-0.85,0.61
		C107.03,136.53,106.89,136.8,106.82,137.07z"/>
	<path class="st2" d="M123.9,142.98c-0.47,0-0.92-0.07-1.35-0.21c-0.43-0.14-0.83-0.34-1.19-0.59c-0.36-0.26-0.67-0.57-0.94-0.93
		c-0.26-0.36-0.49-0.8-0.68-1.32c-0.19-0.52-0.29-1.11-0.29-1.77s0.11-1.29,0.33-1.88c0.22-0.59,0.53-1.11,0.93-1.55
		c0.4-0.44,0.87-0.78,1.42-1.03c0.55-0.25,1.14-0.37,1.76-0.37s1.19,0.13,1.71,0.38s0.94,0.63,1.26,1.13v-0.45
		c0-0.28,0.08-0.49,0.23-0.64c0.15-0.15,0.36-0.22,0.64-0.22h1.06c0.28,0,0.49,0.08,0.64,0.22c0.15,0.15,0.22,0.36,0.22,0.64v7.52
		c0,0.28-0.08,0.49-0.22,0.64c-0.15,0.15-0.36,0.22-0.64,0.22h-1.06c-0.28,0-0.49-0.08-0.64-0.22c-0.15-0.15-0.23-0.36-0.23-0.64
		v-0.43c-0.32,0.49-0.74,0.86-1.26,1.12S124.53,142.98,123.9,142.98z M124.55,140.74c0.35,0,0.7-0.08,1.06-0.24s0.67-0.46,0.92-0.89
		s0.38-0.92,0.38-1.46s-0.13-1.03-0.38-1.46s-0.56-0.73-0.92-0.89c-0.36-0.16-0.71-0.24-1.06-0.24c-0.53,0-0.98,0.14-1.34,0.43
		s-0.62,0.64-0.76,1.04c-0.14,0.41-0.21,0.78-0.21,1.12c0,0.71,0.2,1.32,0.61,1.83S123.83,140.74,124.55,140.74z"/>
	<path class="st2" d="M135.73,142.98c-1.04,0-1.84-0.29-2.4-0.86c-0.56-0.58-0.84-1.38-0.84-2.41v-4.1h-0.92
		c-0.13,0-0.24-0.04-0.33-0.13s-0.13-0.19-0.13-0.32v-1.17c0-0.13,0.04-0.24,0.13-0.32s0.2-0.13,0.33-0.13h1.13l0.31-1.87
		c0.04-0.18,0.12-0.32,0.24-0.42s0.28-0.15,0.46-0.15h0.88c0.2,0,0.36,0.06,0.47,0.17c0.11,0.11,0.16,0.27,0.16,0.46v1.82h2.09
		c0.13,0,0.24,0.04,0.32,0.13c0.08,0.08,0.13,0.19,0.13,0.32v1.17c0,0.13-0.04,0.24-0.13,0.32c-0.08,0.08-0.19,0.13-0.32,0.13h-2.09
		v4.19c0,0.32,0.07,0.56,0.22,0.72c0.14,0.16,0.32,0.23,0.54,0.23c0.23,0,0.41-0.08,0.56-0.24c0.14-0.16,0.22-0.36,0.22-0.6
		l-0.02-0.32c-0.04-0.32,0.09-0.49,0.38-0.49h1.1c0.12,0,0.23,0.03,0.32,0.09c0.09,0.06,0.15,0.15,0.19,0.27
		c0.07,0.26,0.11,0.5,0.11,0.7c0,0.6-0.12,1.1-0.37,1.51c-0.25,0.41-0.6,0.73-1.05,0.96C136.95,142.86,136.39,142.98,135.73,142.98z
		"/>
	<path class="st2" d="M144.87,142.98c-0.79,0-1.52-0.12-2.2-0.37s-1.24-0.59-1.7-1.03c-0.46-0.44-0.82-0.95-1.06-1.54
		c-0.25-0.59-0.37-1.21-0.37-1.85c0-0.64,0.12-1.25,0.36-1.84c0.24-0.59,0.58-1.12,1.03-1.57s0.98-0.8,1.62-1.06
		c0.64-0.26,1.33-0.39,2.07-0.39c0.65,0,1.27,0.1,1.85,0.3c0.59,0.2,1.1,0.49,1.55,0.87c0.44,0.38,0.8,0.86,1.06,1.44
		c0.26,0.58,0.41,1.22,0.45,1.93c0.01,0.25-0.06,0.44-0.23,0.57s-0.38,0.19-0.66,0.19h-6.44c-0.01,0.35,0.1,0.7,0.32,1.04
		c0.23,0.35,0.57,0.62,1.04,0.82c0.46,0.2,0.96,0.3,1.48,0.3c0.71,0,1.39-0.19,2.05-0.56c0.49-0.28,0.9-0.22,1.22,0.18l0.2,0.25
		c0.18,0.22,0.26,0.44,0.23,0.67c-0.02,0.23-0.16,0.43-0.4,0.61C147.4,142.63,146.24,142.98,144.87,142.98z M142.28,137.07h4.64
		c-0.12-0.56-0.39-0.98-0.82-1.24c-0.43-0.26-0.91-0.4-1.45-0.4c-0.38,0-0.76,0.07-1.12,0.22c-0.36,0.14-0.64,0.35-0.85,0.61
		C142.49,136.53,142.35,136.8,142.28,137.07z M144.08,132.37c-0.18,0-0.3-0.05-0.36-0.15c-0.06-0.1-0.05-0.23,0.04-0.39l1.1-2.07
		c0.11-0.22,0.29-0.32,0.54-0.32h1.78c0.19,0,0.31,0.06,0.36,0.17s0.01,0.24-0.11,0.39l-1.76,2.12c-0.13,0.17-0.32,0.25-0.56,0.25
		H144.08z"/>
	<path class="st2" d="M160.62,142.98c-0.84,0-1.6-0.15-2.29-0.45c-0.69-0.3-1.27-0.73-1.74-1.28c-0.47-0.55-0.83-1.22-1.07-2
		c-0.25-0.78-0.37-1.63-0.37-2.56s0.12-1.79,0.36-2.61c0.24-0.82,0.6-1.53,1.09-2.14c0.49-0.61,1.1-1.09,1.84-1.44
		c0.74-0.35,1.59-0.52,2.54-0.52c1.33,0,2.47,0.32,3.42,0.97c0.23,0.16,0.35,0.35,0.36,0.58c0.01,0.23-0.08,0.44-0.27,0.65
		l-0.32,0.36c-0.17,0.19-0.35,0.3-0.55,0.32c-0.2,0.02-0.42-0.03-0.67-0.15c-0.22-0.13-0.49-0.24-0.82-0.31s-0.66-0.12-0.98-0.12
		c-1.01,0-1.81,0.33-2.4,1s-0.89,1.59-0.89,2.76c0.36-0.5,0.84-0.89,1.45-1.17c0.61-0.28,1.21-0.41,1.83-0.41
		c0.59,0,1.15,0.1,1.68,0.29c0.53,0.19,1,0.47,1.41,0.84c0.41,0.37,0.73,0.81,0.96,1.33c0.23,0.52,0.35,1.09,0.35,1.72
		c0,0.61-0.12,1.19-0.35,1.73c-0.23,0.54-0.57,1-1,1.39c-0.43,0.39-0.95,0.69-1.57,0.91C162.01,142.87,161.34,142.98,160.62,142.98z
		 M160.44,140.71c0.48,0,0.92-0.11,1.3-0.34c0.39-0.23,0.66-0.51,0.81-0.84c0.15-0.33,0.22-0.63,0.22-0.91
		c0-0.61-0.23-1.11-0.68-1.5c-0.46-0.39-1.01-0.58-1.66-0.58c-0.32,0-0.67,0.07-1.04,0.21s-0.69,0.38-0.95,0.73
		c-0.26,0.35-0.4,0.73-0.4,1.15c0,0.28,0.07,0.58,0.22,0.9c0.15,0.32,0.42,0.6,0.82,0.84C159.49,140.59,159.94,140.71,160.44,140.71
		z"/>
	<path class="st2" d="M172.61,142.98c-0.84,0-1.61-0.17-2.32-0.5c-0.71-0.34-1.31-0.8-1.79-1.4c-0.49-0.59-0.86-1.29-1.12-2.09
		c-0.26-0.8-0.39-1.63-0.39-2.51c0-0.89,0.13-1.73,0.39-2.52c0.26-0.79,0.63-1.48,1.12-2.08c0.49-0.59,1.08-1.06,1.79-1.39
		c0.71-0.34,1.48-0.5,2.32-0.5s1.61,0.17,2.31,0.5s1.3,0.8,1.79,1.39c0.49,0.59,0.87,1.29,1.13,2.08s0.4,1.63,0.4,2.52
		c0,0.88-0.13,1.71-0.4,2.51s-0.64,1.49-1.13,2.09s-1.09,1.06-1.79,1.4S173.45,142.98,172.61,142.98z M172.61,140.67
		c0.54,0,1.04-0.18,1.5-0.54c0.46-0.36,0.81-0.88,1.04-1.55c0.23-0.67,0.35-1.37,0.35-2.11c0-0.73-0.12-1.44-0.35-2.12
		c-0.23-0.68-0.58-1.2-1.04-1.56c-0.46-0.36-0.96-0.54-1.5-0.54s-1.02,0.16-1.44,0.49c-0.42,0.32-0.77,0.8-1.04,1.44
		c-0.27,0.64-0.41,1.4-0.41,2.29c0,0.73,0.11,1.43,0.34,2.11c0.23,0.67,0.57,1.19,1.04,1.55
		C171.57,140.49,172.07,140.67,172.61,140.67z"/>
	<path class="st2" d="M183.12,136.75c-0.48,0-0.91-0.07-1.3-0.22c-0.38-0.15-0.73-0.34-1.03-0.58c-0.31-0.24-0.58-0.58-0.84-1.03
		c-0.25-0.44-0.38-0.95-0.38-1.53c0-0.47,0.09-0.91,0.27-1.33s0.43-0.78,0.76-1.09c0.32-0.31,0.71-0.55,1.14-0.72
		c0.44-0.17,0.9-0.26,1.38-0.26c0.62,0,1.22,0.15,1.79,0.44c0.57,0.29,1.01,0.71,1.31,1.26s0.46,1.11,0.46,1.7
		c0,0.34-0.06,0.69-0.18,1.07c-0.12,0.38-0.32,0.74-0.61,1.07s-0.67,0.62-1.13,0.86S183.75,136.75,183.12,136.75z M183.14,134.95
		c0.42,0,0.78-0.15,1.07-0.46c0.29-0.31,0.44-0.68,0.44-1.12c0-0.2-0.05-0.43-0.14-0.68c-0.1-0.25-0.27-0.47-0.53-0.65
		s-0.54-0.27-0.84-0.27c-0.41,0-0.76,0.16-1.05,0.47c-0.29,0.31-0.44,0.69-0.44,1.13c0,0.44,0.15,0.82,0.44,1.12
		C182.38,134.79,182.73,134.95,183.14,134.95z M184.31,142.78c-0.19,0-0.32-0.06-0.39-0.18c-0.07-0.12-0.06-0.26,0.03-0.43
		l6.48-11.65c0.12-0.23,0.32-0.34,0.59-0.34h0.7c0.19,0,0.32,0.06,0.39,0.18c0.07,0.12,0.06,0.26-0.03,0.43l-6.46,11.63
		c-0.12,0.24-0.32,0.36-0.59,0.36H184.31z M193.04,142.98c-0.61,0-1.2-0.15-1.77-0.44c-0.57-0.29-1.01-0.71-1.31-1.26
		c-0.31-0.55-0.46-1.11-0.46-1.68c0-0.58,0.15-1.14,0.46-1.68c0.31-0.55,0.74-0.97,1.31-1.26c0.57-0.29,1.16-0.44,1.77-0.44
		c0.49,0,0.96,0.09,1.39,0.26c0.44,0.17,0.82,0.41,1.13,0.72s0.57,0.67,0.75,1.08s0.27,0.85,0.27,1.32c0,0.47-0.09,0.91-0.27,1.32
		s-0.43,0.77-0.75,1.08c-0.32,0.31-0.7,0.55-1.13,0.72C194,142.89,193.53,142.98,193.04,142.98z M193.06,141.18
		c0.19,0,0.41-0.05,0.64-0.15c0.23-0.1,0.44-0.29,0.6-0.55s0.25-0.56,0.25-0.88c0-0.2-0.05-0.43-0.14-0.68
		c-0.1-0.25-0.27-0.47-0.52-0.65c-0.25-0.18-0.53-0.27-0.83-0.27c-0.19,0-0.41,0.05-0.64,0.15c-0.23,0.1-0.44,0.29-0.6,0.56
		c-0.17,0.27-0.25,0.57-0.25,0.89c0,0.2,0.05,0.43,0.14,0.67c0.1,0.25,0.27,0.46,0.52,0.64S192.76,141.18,193.06,141.18z"/>
	<path class="st2" d="M19.73,163.98c-0.79,0-1.52-0.12-2.2-0.37s-1.24-0.59-1.7-1.03c-0.46-0.44-0.82-0.95-1.06-1.54
		c-0.25-0.59-0.37-1.21-0.37-1.85c0-0.64,0.12-1.25,0.36-1.84c0.24-0.59,0.58-1.12,1.03-1.57s0.98-0.8,1.62-1.06
		c0.64-0.26,1.33-0.39,2.07-0.39c0.65,0,1.27,0.1,1.85,0.3c0.59,0.2,1.1,0.49,1.55,0.87c0.44,0.38,0.8,0.86,1.06,1.44
		c0.26,0.58,0.41,1.22,0.45,1.93c0.01,0.25-0.06,0.44-0.23,0.57s-0.38,0.19-0.66,0.19h-6.44c-0.01,0.35,0.1,0.7,0.32,1.04
		c0.23,0.35,0.57,0.62,1.04,0.82c0.46,0.2,0.96,0.3,1.48,0.3c0.71,0,1.39-0.19,2.05-0.56c0.49-0.28,0.9-0.22,1.22,0.18l0.2,0.25
		c0.18,0.22,0.26,0.44,0.23,0.67c-0.02,0.23-0.16,0.43-0.4,0.61C22.26,163.63,21.1,163.98,19.73,163.98z M17.14,158.07h4.64
		c-0.12-0.56-0.39-0.98-0.82-1.24c-0.43-0.26-0.91-0.4-1.45-0.4c-0.38,0-0.76,0.07-1.12,0.22c-0.36,0.14-0.64,0.35-0.85,0.61
		C17.35,157.53,17.21,157.8,17.14,158.07z"/>
	<path class="st2" d="M26.84,163.78c-0.28,0-0.49-0.08-0.64-0.22c-0.15-0.15-0.22-0.36-0.22-0.64v-7.52c0-0.28,0.07-0.49,0.22-0.64
		c0.15-0.15,0.36-0.22,0.64-0.22h1.06c0.28,0,0.49,0.08,0.64,0.22c0.15,0.15,0.23,0.36,0.23,0.64V156c0.18-0.52,0.5-0.92,0.95-1.22
		c0.46-0.3,0.97-0.45,1.55-0.45c0.41,0,0.8,0.07,1.17,0.22c0.37,0.14,0.68,0.35,0.94,0.6s0.44,0.52,0.58,0.78
		c0.22-0.34,0.47-0.63,0.77-0.89c0.29-0.26,0.63-0.44,1-0.55s0.77-0.16,1.21-0.16c0.71,0,1.31,0.17,1.81,0.5s0.89,0.81,1.17,1.43
		s0.42,1.35,0.42,2.21v4.45c0,0.28-0.08,0.49-0.23,0.64c-0.16,0.15-0.37,0.22-0.65,0.22H38.4c-0.28,0-0.49-0.08-0.64-0.22
		c-0.15-0.15-0.23-0.36-0.23-0.64v-4.32c0-0.64-0.12-1.13-0.36-1.48c-0.24-0.35-0.56-0.52-0.97-0.52c-0.31,0-0.59,0.1-0.84,0.29
		c-0.25,0.19-0.44,0.46-0.58,0.79s-0.22,0.75-0.23,1.24v4c0,0.28-0.07,0.49-0.22,0.64c-0.15,0.15-0.36,0.22-0.64,0.22h-1.06
		c-0.28,0-0.49-0.08-0.64-0.22c-0.15-0.15-0.23-0.36-0.23-0.64v-4.32c0-0.64-0.12-1.13-0.35-1.48c-0.23-0.35-0.55-0.52-0.96-0.52
		c-0.32,0-0.62,0.1-0.87,0.31s-0.46,0.48-0.59,0.83c-0.14,0.35-0.21,0.77-0.21,1.28v3.91c0,0.28-0.08,0.49-0.23,0.64
		c-0.15,0.15-0.36,0.22-0.64,0.22H26.84z"/>
	<path class="st2" d="M47.65,163.78c-0.28,0-0.49-0.08-0.64-0.22c-0.15-0.15-0.22-0.36-0.22-0.64v-7.52c0-0.28,0.07-0.49,0.22-0.64
		c0.15-0.15,0.36-0.22,0.64-0.22h1.06c0.28,0,0.49,0.08,0.64,0.22c0.15,0.15,0.23,0.36,0.23,0.64V156c0.18-0.52,0.5-0.92,0.95-1.22
		c0.46-0.3,0.97-0.45,1.55-0.45c0.41,0,0.8,0.07,1.17,0.22c0.37,0.14,0.68,0.35,0.94,0.6s0.44,0.52,0.58,0.78
		c0.22-0.34,0.47-0.63,0.77-0.89c0.29-0.26,0.63-0.44,1-0.55s0.77-0.16,1.21-0.16c0.71,0,1.31,0.17,1.81,0.5s0.89,0.81,1.17,1.43
		s0.42,1.35,0.42,2.21v4.45c0,0.28-0.08,0.49-0.23,0.64c-0.16,0.15-0.37,0.22-0.65,0.22H59.2c-0.28,0-0.49-0.08-0.64-0.22
		c-0.15-0.15-0.23-0.36-0.23-0.64v-4.32c0-0.64-0.12-1.13-0.36-1.48c-0.24-0.35-0.56-0.52-0.97-0.52c-0.31,0-0.59,0.1-0.84,0.29
		c-0.25,0.19-0.44,0.46-0.58,0.79s-0.22,0.75-0.23,1.24v4c0,0.28-0.07,0.49-0.22,0.64c-0.15,0.15-0.36,0.22-0.64,0.22h-1.06
		c-0.28,0-0.49-0.08-0.64-0.22c-0.15-0.15-0.23-0.36-0.23-0.64v-4.32c0-0.64-0.12-1.13-0.35-1.48c-0.23-0.35-0.55-0.52-0.96-0.52
		c-0.32,0-0.62,0.1-0.87,0.31s-0.46,0.48-0.59,0.83c-0.14,0.35-0.21,0.77-0.21,1.28v3.91c0,0.28-0.08,0.49-0.23,0.64
		c-0.15,0.15-0.36,0.22-0.64,0.22H47.65z"/>
	<path class="st2" d="M67.99,163.98c-0.79,0-1.52-0.12-2.2-0.37s-1.24-0.59-1.7-1.03c-0.46-0.44-0.82-0.95-1.06-1.54
		c-0.25-0.59-0.37-1.21-0.37-1.85c0-0.64,0.12-1.25,0.36-1.84c0.24-0.59,0.58-1.12,1.03-1.57s0.98-0.8,1.62-1.06
		c0.64-0.26,1.33-0.39,2.07-0.39c0.65,0,1.27,0.1,1.85,0.3c0.59,0.2,1.1,0.49,1.55,0.87c0.44,0.38,0.8,0.86,1.06,1.44
		c0.26,0.58,0.41,1.22,0.45,1.93c0.01,0.25-0.06,0.44-0.23,0.57s-0.38,0.19-0.66,0.19h-6.44c-0.01,0.35,0.1,0.7,0.32,1.04
		c0.23,0.35,0.57,0.62,1.04,0.82c0.46,0.2,0.96,0.3,1.48,0.3c0.71,0,1.39-0.19,2.05-0.56c0.49-0.28,0.9-0.22,1.22,0.18l0.2,0.25
		c0.18,0.22,0.26,0.44,0.23,0.67c-0.02,0.23-0.16,0.43-0.4,0.61C70.52,163.63,69.35,163.98,67.99,163.98z M65.4,158.07h4.64
		c-0.12-0.56-0.39-0.98-0.82-1.24c-0.43-0.26-0.91-0.4-1.45-0.4c-0.38,0-0.76,0.07-1.12,0.22c-0.36,0.14-0.64,0.35-0.85,0.61
		C65.6,157.53,65.47,157.8,65.4,158.07z"/>
	<path class="st2" d="M78.14,163.98c-0.47,0-0.92-0.07-1.36-0.21c-0.44-0.14-0.84-0.34-1.2-0.59c-0.36-0.26-0.67-0.57-0.94-0.93
		c-0.26-0.36-0.49-0.8-0.68-1.32c-0.19-0.52-0.29-1.11-0.29-1.77s0.11-1.29,0.33-1.88c0.22-0.59,0.53-1.11,0.93-1.55
		c0.4-0.44,0.87-0.78,1.42-1.03c0.55-0.25,1.15-0.37,1.78-0.37c0.61,0,1.18,0.13,1.69,0.38s0.94,0.63,1.26,1.13v-4.21
		c0-0.28,0.08-0.49,0.23-0.64c0.16-0.15,0.37-0.22,0.65-0.22h1.04c0.28,0,0.49,0.08,0.64,0.22c0.15,0.15,0.22,0.36,0.22,0.64v11.29
		c0,0.28-0.08,0.49-0.22,0.64c-0.15,0.15-0.36,0.22-0.64,0.22h-1.04c-0.28,0-0.49-0.08-0.65-0.22c-0.16-0.15-0.23-0.36-0.23-0.64
		v-0.43c-0.32,0.49-0.74,0.86-1.26,1.12S78.75,163.98,78.14,163.98z M78.77,161.74c0.35,0,0.7-0.08,1.06-0.24s0.67-0.46,0.92-0.89
		s0.38-0.92,0.4-1.46c-0.01-0.54-0.14-1.03-0.4-1.46s-0.56-0.73-0.92-0.89c-0.36-0.16-0.71-0.24-1.06-0.24
		c-0.52,0-0.96,0.14-1.33,0.43c-0.37,0.29-0.63,0.64-0.77,1.04c-0.14,0.41-0.21,0.78-0.21,1.12s0.06,0.69,0.19,1.06
		c0.13,0.37,0.31,0.68,0.56,0.91c0.25,0.23,0.5,0.4,0.77,0.49C78.26,161.7,78.52,161.74,78.77,161.74z"/>
	<path class="st2" d="M87.53,153.43c-0.49,0-0.89-0.14-1.21-0.41c-0.31-0.28-0.47-0.62-0.47-1.03c0-0.42,0.15-0.77,0.45-1.04
		c0.3-0.28,0.71-0.41,1.22-0.41c0.37,0,0.7,0.08,0.97,0.24s0.46,0.36,0.56,0.58c0.1,0.23,0.14,0.44,0.14,0.63
		c0,0.41-0.16,0.75-0.47,1.03C88.43,153.29,88.03,153.43,87.53,153.43z M87.01,163.78c-0.28,0-0.49-0.08-0.64-0.22
		c-0.15-0.15-0.22-0.36-0.22-0.64v-7.52c0-0.28,0.07-0.49,0.22-0.64c0.15-0.15,0.36-0.22,0.64-0.22h1.04c0.28,0,0.49,0.08,0.65,0.22
		c0.16,0.15,0.23,0.36,0.23,0.64v7.52c0,0.28-0.08,0.49-0.23,0.64c-0.16,0.15-0.37,0.22-0.65,0.22H87.01z"/>
	<path class="st2" d="M95.94,163.98c-0.78,0-1.5-0.12-2.16-0.37s-1.23-0.59-1.7-1.03c-0.47-0.44-0.84-0.95-1.09-1.53
		s-0.38-1.2-0.38-1.85c0-0.66,0.13-1.29,0.38-1.89c0.25-0.6,0.61-1.12,1.08-1.57c0.47-0.44,1.04-0.79,1.7-1.04s1.39-0.38,2.17-0.38
		c1.07,0,2.05,0.26,2.93,0.77c0.23,0.14,0.35,0.33,0.38,0.55c0.02,0.22-0.05,0.45-0.22,0.67l-0.29,0.36
		c-0.12,0.16-0.27,0.27-0.45,0.33c-0.18,0.07-0.44,0.03-0.77-0.12c-0.11-0.05-0.29-0.11-0.56-0.2c-0.26-0.08-0.55-0.13-0.86-0.13
		c-0.78,0-1.43,0.24-1.94,0.72c-0.51,0.48-0.76,1.1-0.76,1.85s0.25,1.37,0.76,1.85c0.51,0.48,1.16,0.72,1.94,0.72
		c0.31,0,0.6-0.04,0.86-0.13c0.26-0.08,0.45-0.15,0.56-0.2c0.26-0.12,0.5-0.17,0.69-0.13c0.2,0.03,0.38,0.15,0.53,0.35l0.29,0.36
		c0.17,0.23,0.23,0.46,0.18,0.7s-0.22,0.44-0.5,0.59C97.88,163.74,96.96,163.98,95.94,163.98z"/>
	<path class="st2" d="M104.74,163.98c-0.47,0-0.92-0.07-1.35-0.21c-0.43-0.14-0.83-0.34-1.19-0.59c-0.36-0.26-0.67-0.57-0.94-0.93
		c-0.26-0.36-0.49-0.8-0.68-1.32c-0.19-0.52-0.29-1.11-0.29-1.77s0.11-1.29,0.33-1.88c0.22-0.59,0.53-1.11,0.93-1.55
		c0.4-0.44,0.87-0.78,1.42-1.03c0.55-0.25,1.14-0.37,1.76-0.37s1.19,0.13,1.71,0.38s0.94,0.63,1.26,1.13v-0.45
		c0-0.28,0.08-0.49,0.23-0.64c0.15-0.15,0.36-0.22,0.64-0.22h1.06c0.28,0,0.49,0.08,0.64,0.22c0.15,0.15,0.22,0.36,0.22,0.64v7.52
		c0,0.28-0.08,0.49-0.22,0.64c-0.15,0.15-0.36,0.22-0.64,0.22h-1.06c-0.28,0-0.49-0.08-0.64-0.22c-0.15-0.15-0.23-0.36-0.23-0.64
		v-0.43c-0.32,0.49-0.74,0.86-1.26,1.12S105.37,163.98,104.74,163.98z M105.39,161.74c0.35,0,0.7-0.08,1.06-0.24
		s0.67-0.46,0.92-0.89s0.38-0.92,0.38-1.46s-0.13-1.03-0.38-1.46s-0.56-0.73-0.92-0.89c-0.36-0.16-0.71-0.24-1.06-0.24
		c-0.53,0-0.98,0.14-1.34,0.43s-0.62,0.64-0.76,1.04c-0.14,0.41-0.21,0.78-0.21,1.12c0,0.71,0.2,1.32,0.61,1.83
		S104.67,161.74,105.39,161.74z"/>
	<path class="st2" d="M113.6,163.78c-0.28,0-0.49-0.08-0.64-0.22c-0.15-0.15-0.22-0.36-0.22-0.64v-7.52c0-0.28,0.07-0.49,0.22-0.64
		c0.15-0.15,0.36-0.22,0.64-0.22h1.06c0.28,0,0.49,0.08,0.64,0.22c0.15,0.15,0.23,0.36,0.23,0.64V156c0.18-0.52,0.5-0.92,0.95-1.22
		c0.46-0.3,0.97-0.45,1.55-0.45c0.41,0,0.8,0.07,1.17,0.22c0.37,0.14,0.68,0.35,0.94,0.6s0.44,0.52,0.58,0.78
		c0.22-0.34,0.47-0.63,0.77-0.89c0.29-0.26,0.63-0.44,1-0.55s0.77-0.16,1.21-0.16c0.71,0,1.31,0.17,1.81,0.5s0.89,0.81,1.17,1.43
		s0.42,1.35,0.42,2.21v4.45c0,0.28-0.08,0.49-0.23,0.64c-0.16,0.15-0.37,0.22-0.65,0.22h-1.04c-0.28,0-0.49-0.08-0.64-0.22
		c-0.15-0.15-0.23-0.36-0.23-0.64v-4.32c0-0.64-0.12-1.13-0.36-1.48c-0.24-0.35-0.56-0.52-0.97-0.52c-0.31,0-0.59,0.1-0.84,0.29
		c-0.25,0.19-0.44,0.46-0.58,0.79s-0.22,0.75-0.23,1.24v4c0,0.28-0.07,0.49-0.22,0.64c-0.15,0.15-0.36,0.22-0.64,0.22h-1.06
		c-0.28,0-0.49-0.08-0.64-0.22c-0.15-0.15-0.23-0.36-0.23-0.64v-4.32c0-0.64-0.12-1.13-0.35-1.48c-0.23-0.35-0.55-0.52-0.96-0.52
		c-0.32,0-0.62,0.1-0.87,0.31s-0.46,0.48-0.59,0.83c-0.14,0.35-0.21,0.77-0.21,1.28v3.91c0,0.28-0.08,0.49-0.23,0.64
		c-0.15,0.15-0.36,0.22-0.64,0.22H113.6z"/>
	<path class="st2" d="M133.94,163.98c-0.79,0-1.52-0.12-2.2-0.37s-1.24-0.59-1.7-1.03c-0.46-0.44-0.82-0.95-1.06-1.54
		c-0.25-0.59-0.37-1.21-0.37-1.85c0-0.64,0.12-1.25,0.36-1.84c0.24-0.59,0.58-1.12,1.03-1.57s0.98-0.8,1.62-1.06
		c0.64-0.26,1.33-0.39,2.07-0.39c0.65,0,1.27,0.1,1.85,0.3c0.59,0.2,1.1,0.49,1.55,0.87c0.44,0.38,0.8,0.86,1.06,1.44
		c0.26,0.58,0.41,1.22,0.45,1.93c0.01,0.25-0.06,0.44-0.23,0.57s-0.38,0.19-0.66,0.19h-6.44c-0.01,0.35,0.1,0.7,0.32,1.04
		c0.23,0.35,0.57,0.62,1.04,0.82c0.46,0.2,0.96,0.3,1.48,0.3c0.71,0,1.39-0.19,2.05-0.56c0.49-0.28,0.9-0.22,1.22,0.18l0.2,0.25
		c0.18,0.22,0.26,0.44,0.23,0.67c-0.02,0.23-0.16,0.43-0.4,0.61C136.47,163.63,135.31,163.98,133.94,163.98z M131.35,158.07h4.64
		c-0.12-0.56-0.39-0.98-0.82-1.24c-0.43-0.26-0.91-0.4-1.45-0.4c-0.38,0-0.76,0.07-1.12,0.22c-0.36,0.14-0.64,0.35-0.85,0.61
		C131.56,157.53,131.42,157.8,131.35,158.07z"/>
	<path class="st2" d="M141.05,163.78c-0.28,0-0.49-0.08-0.64-0.22c-0.15-0.15-0.22-0.36-0.22-0.64v-7.52c0-0.28,0.07-0.49,0.22-0.64
		c0.15-0.15,0.36-0.22,0.64-0.22h1.06c0.28,0,0.49,0.08,0.64,0.22c0.15,0.15,0.23,0.36,0.23,0.64V156c0.23-0.53,0.58-0.94,1.07-1.23
		c0.49-0.29,1.07-0.44,1.74-0.44c0.73,0,1.35,0.17,1.84,0.5s0.88,0.8,1.14,1.41c0.26,0.61,0.4,1.35,0.4,2.21v4.46
		c0,0.28-0.08,0.49-0.23,0.64c-0.16,0.15-0.37,0.22-0.65,0.22h-1.04c-0.28,0-0.49-0.08-0.64-0.22c-0.15-0.15-0.23-0.36-0.23-0.64
		v-4.27c0-0.65-0.13-1.15-0.38-1.51c-0.25-0.36-0.61-0.54-1.08-0.54c-0.23,0-0.49,0.07-0.8,0.2c-0.31,0.13-0.57,0.39-0.8,0.77
		c-0.23,0.38-0.34,0.88-0.34,1.49v3.85c0,0.28-0.08,0.49-0.23,0.64c-0.15,0.15-0.36,0.22-0.64,0.22H141.05z"/>
	<path class="st2" d="M155,163.98c-1.04,0-1.84-0.29-2.4-0.86c-0.56-0.58-0.84-1.38-0.84-2.41v-4.1h-0.92
		c-0.13,0-0.24-0.04-0.33-0.13s-0.13-0.19-0.13-0.32v-1.17c0-0.13,0.04-0.24,0.13-0.32s0.2-0.13,0.33-0.13h1.13l0.31-1.87
		c0.04-0.18,0.12-0.32,0.24-0.42s0.28-0.15,0.46-0.15h0.88c0.2,0,0.36,0.06,0.47,0.17c0.11,0.11,0.16,0.27,0.16,0.46v1.82h2.09
		c0.13,0,0.24,0.04,0.32,0.13c0.08,0.08,0.13,0.19,0.13,0.32v1.17c0,0.13-0.04,0.24-0.13,0.32c-0.08,0.08-0.19,0.13-0.32,0.13h-2.09
		v4.19c0,0.32,0.07,0.56,0.22,0.72c0.14,0.16,0.32,0.23,0.54,0.23c0.23,0,0.41-0.08,0.56-0.24c0.14-0.16,0.22-0.36,0.22-0.6
		l-0.02-0.32c-0.04-0.32,0.09-0.49,0.38-0.49h1.1c0.12,0,0.23,0.03,0.32,0.09c0.09,0.06,0.15,0.15,0.19,0.27
		c0.07,0.26,0.11,0.5,0.11,0.7c0,0.6-0.12,1.1-0.37,1.51c-0.25,0.41-0.6,0.73-1.05,0.96C156.22,163.86,155.66,163.98,155,163.98z"/>
	<path class="st2" d="M163.93,163.98c-0.71,0-1.38-0.12-2.01-0.37c-0.63-0.25-1.18-0.59-1.65-1.04c-0.47-0.44-0.83-0.96-1.09-1.56
		c-0.26-0.59-0.39-1.21-0.39-1.86c0-0.31,0.04-0.67,0.13-1.07c0.08-0.4,0.24-0.81,0.48-1.22s0.55-0.81,0.96-1.2
		c0.41-0.38,0.93-0.7,1.56-0.95c0.63-0.25,1.3-0.38,2.01-0.38c0.53,0,1.04,0.07,1.54,0.22c0.5,0.14,0.95,0.35,1.37,0.61
		c0.41,0.26,0.8,0.61,1.16,1.03c0.36,0.42,0.63,0.9,0.8,1.44c0.17,0.54,0.26,1.05,0.26,1.53c0,0.31-0.04,0.67-0.13,1.07
		s-0.24,0.81-0.48,1.22c-0.23,0.41-0.55,0.81-0.96,1.2s-0.93,0.7-1.56,0.95S164.63,163.98,163.93,163.98z M163.93,161.73
		c0.68,0,1.27-0.25,1.75-0.75c0.49-0.5,0.73-1.1,0.73-1.81c0-0.72-0.24-1.33-0.73-1.83c-0.49-0.5-1.07-0.75-1.75-0.75
		c-0.7,0-1.28,0.25-1.76,0.75c-0.48,0.5-0.72,1.11-0.72,1.83c0,0.71,0.24,1.31,0.72,1.81C162.64,161.48,163.23,161.73,163.93,161.73
		z"/>
	<path class="st2" d="M173.84,163.98c-0.83,0-1.56-0.16-2.19-0.48c-0.63-0.32-1.1-0.78-1.4-1.38c-0.13-0.25-0.14-0.48-0.03-0.67
		c0.11-0.2,0.31-0.33,0.6-0.41l0.56-0.13c0.11-0.02,0.23-0.03,0.38-0.02c0.14,0.01,0.38,0.18,0.7,0.5c0.16,0.17,0.36,0.3,0.6,0.4
		c0.25,0.1,0.51,0.14,0.78,0.14c0.35,0,0.63-0.08,0.85-0.22c0.22-0.15,0.33-0.35,0.33-0.59c0-0.14-0.05-0.28-0.14-0.4
		c-0.1-0.13-0.34-0.26-0.72-0.41l-1.13-0.4c-1.74-0.56-2.61-1.46-2.61-2.68c0-0.85,0.32-1.55,0.97-2.1
		c0.65-0.55,1.47-0.82,2.47-0.82c0.62,0,1.19,0.11,1.7,0.34c0.51,0.23,0.93,0.58,1.25,1.06c0.17,0.25,0.2,0.49,0.1,0.7
		c-0.1,0.22-0.3,0.36-0.6,0.43l-0.5,0.13c-0.17,0.05-0.33,0.05-0.48,0.02c-0.15-0.04-0.34-0.16-0.57-0.36
		c-0.23-0.23-0.53-0.34-0.9-0.34c-0.28,0-0.5,0.08-0.67,0.23c-0.17,0.16-0.26,0.34-0.26,0.56c0,0.13,0.05,0.26,0.16,0.39
		c0.11,0.13,0.34,0.25,0.68,0.37l1.15,0.43c0.58,0.19,1.05,0.42,1.42,0.68s0.66,0.57,0.87,0.93s0.32,0.75,0.33,1.18
		c0,0.58-0.15,1.08-0.45,1.5c-0.3,0.43-0.73,0.77-1.29,1.02C175.27,163.85,174.61,163.98,173.84,163.98z"/>
	<path class="st2" d="M180.99,156.99c-0.11,0.14-0.23,0.23-0.36,0.25c-0.13,0.02-0.27-0.02-0.41-0.13l-0.49-0.38
		c-0.14-0.11-0.22-0.23-0.24-0.37c-0.02-0.14,0.03-0.27,0.15-0.4l1.1-1.37l-1.71-0.5c-0.17-0.05-0.28-0.13-0.34-0.25
		c-0.06-0.12-0.07-0.26-0.02-0.43l0.2-0.63c0.05-0.17,0.14-0.28,0.27-0.33s0.28-0.05,0.45,0.01l1.64,0.65l-0.11-1.78
		c-0.01-0.18,0.03-0.32,0.13-0.41c0.1-0.1,0.23-0.14,0.41-0.14h0.67c0.18,0,0.32,0.05,0.41,0.15c0.1,0.1,0.14,0.24,0.13,0.42
		l-0.13,1.75l1.67-0.63c0.17-0.06,0.31-0.06,0.44-0.01s0.21,0.17,0.26,0.35l0.2,0.61c0.04,0.16,0.03,0.3-0.03,0.42
		c-0.05,0.13-0.17,0.21-0.35,0.26l-1.69,0.47l1.12,1.4c0.24,0.29,0.21,0.55-0.09,0.77l-0.5,0.36c-0.14,0.11-0.29,0.15-0.42,0.13
		s-0.25-0.11-0.35-0.27l-0.95-1.48L180.99,156.99z"/>
	<path class="st2" d="M36.22,184.78c-0.21,0-0.34-0.1-0.41-0.29l-2.19-6.29c-0.05-0.12-0.04-0.22,0.02-0.3s0.15-0.12,0.27-0.12h0.34
		c0.09,0,0.18,0.03,0.26,0.08c0.08,0.05,0.13,0.13,0.15,0.22l1.8,5.41l1.77-5.41c0.03-0.09,0.08-0.17,0.16-0.22
		c0.08-0.05,0.17-0.08,0.26-0.08h0.34c0.13,0,0.22,0.04,0.27,0.12c0.05,0.08,0.06,0.18,0.02,0.3l-2.2,6.29
		c-0.07,0.19-0.2,0.29-0.41,0.29H36.22z"/>
	<path class="st2" d="M39.85,184.78c-0.13,0-0.23-0.04-0.28-0.12c-0.05-0.08-0.05-0.18,0-0.3l2.41-6.29
		c0.03-0.09,0.09-0.16,0.17-0.21c0.08-0.05,0.16-0.08,0.25-0.08h0.58c0.21,0,0.35,0.1,0.42,0.29l2.43,6.29
		c0.05,0.13,0.04,0.23,0,0.3c-0.05,0.08-0.14,0.12-0.28,0.12h-0.32c-0.21,0-0.35-0.1-0.43-0.29l-0.43-1.14h-3.34l-0.43,1.14
		c-0.08,0.19-0.22,0.29-0.42,0.29H39.85z M41.33,182.49h2.74l-1.38-3.68L41.33,182.49z"/>
	<path class="st2" d="M51.83,184.89c-0.29,0-0.57-0.07-0.83-0.2c-0.27-0.13-0.5-0.34-0.7-0.61c-0.2-0.27-0.35-0.58-0.47-0.92
		c-0.12-0.34-0.19-0.68-0.22-1h-1.38v2.27c0,0.11-0.03,0.2-0.09,0.27s-0.15,0.09-0.26,0.09h-0.34c-0.11,0-0.2-0.03-0.26-0.09
		s-0.09-0.15-0.09-0.27v-6.28c0-0.11,0.03-0.2,0.09-0.27s0.15-0.09,0.26-0.09h2.59c0.24,0,0.48,0.04,0.73,0.12
		c0.25,0.08,0.48,0.21,0.69,0.39c0.21,0.19,0.38,0.42,0.51,0.71c0.13,0.29,0.2,0.62,0.2,0.99c0,0.53-0.15,0.99-0.44,1.38
		s-0.69,0.63-1.2,0.74c0.02,0.19,0.08,0.43,0.17,0.72s0.24,0.56,0.44,0.81c0.2,0.25,0.43,0.37,0.7,0.37c0.2,0,0.37-0.04,0.51-0.12
		c0.11-0.05,0.21-0.07,0.29-0.05c0.08,0.02,0.14,0.08,0.19,0.18l0.05,0.09c0.1,0.23,0.06,0.39-0.11,0.5
		c-0.14,0.09-0.3,0.17-0.48,0.21C52.18,184.86,52,184.89,51.83,184.89z M48.23,181.31h1.68c0.19,0,0.38-0.04,0.56-0.12
		c0.19-0.08,0.35-0.23,0.48-0.45s0.19-0.47,0.19-0.75c0-0.19-0.04-0.38-0.11-0.59c-0.07-0.21-0.21-0.38-0.41-0.53
		s-0.44-0.22-0.72-0.22h-1.68V181.31z"/>
	<path class="st2" d="M54.52,184.78c-0.11,0-0.2-0.03-0.27-0.09s-0.09-0.15-0.09-0.27v-6.28c0-0.11,0.03-0.2,0.09-0.27
		s0.15-0.09,0.27-0.09h0.34c0.11,0,0.2,0.03,0.26,0.09s0.09,0.15,0.09,0.27v6.28c0,0.11-0.03,0.2-0.09,0.27s-0.15,0.09-0.26,0.09
		H54.52z"/>
	<path class="st2" d="M56.86,184.78c-0.13,0-0.23-0.04-0.28-0.12c-0.05-0.08-0.05-0.18,0-0.3l2.41-6.29
		c0.03-0.09,0.09-0.16,0.17-0.21c0.08-0.05,0.16-0.08,0.25-0.08h0.58c0.21,0,0.35,0.1,0.42,0.29l2.43,6.29
		c0.05,0.13,0.04,0.23,0,0.3c-0.05,0.08-0.14,0.12-0.28,0.12h-0.32c-0.21,0-0.35-0.1-0.43-0.29l-0.43-1.14h-3.34l-0.43,1.14
		c-0.08,0.19-0.22,0.29-0.42,0.29H56.86z M58.34,182.49h2.74l-1.38-3.68L58.34,182.49z"/>
	<path class="st2" d="M70.2,184.89c-0.57,0-1.1-0.1-1.57-0.29c-0.47-0.19-0.88-0.45-1.21-0.79s-0.58-0.72-0.75-1.16
		c-0.17-0.44-0.26-0.9-0.26-1.38s0.09-0.94,0.26-1.38c0.17-0.44,0.42-0.83,0.75-1.16s0.73-0.59,1.21-0.79
		c0.47-0.19,1-0.29,1.57-0.29c0.77,0,1.45,0.19,2.04,0.57c0.19,0.13,0.23,0.29,0.12,0.5l-0.09,0.16c-0.11,0.2-0.28,0.24-0.5,0.12
		c-0.21-0.11-0.46-0.21-0.75-0.29s-0.56-0.12-0.81-0.12c-0.41,0-0.79,0.07-1.13,0.21c-0.34,0.14-0.63,0.33-0.86,0.58
		s-0.41,0.53-0.54,0.86c-0.12,0.33-0.18,0.67-0.18,1.02s0.06,0.69,0.18,1.02c0.12,0.33,0.3,0.61,0.54,0.86s0.52,0.43,0.86,0.58
		c0.34,0.14,0.72,0.21,1.13,0.21c0.25,0,0.52-0.04,0.81-0.12c0.29-0.08,0.54-0.17,0.75-0.29c0.22-0.12,0.39-0.08,0.5,0.12l0.09,0.16
		c0.11,0.2,0.09,0.35-0.06,0.46C71.69,184.68,70.99,184.89,70.2,184.89z"/>
	<path class="st2" d="M76.86,184.89c-0.49,0-0.95-0.09-1.4-0.28c-0.45-0.19-0.84-0.45-1.18-0.78c-0.34-0.33-0.6-0.72-0.78-1.17
		c-0.19-0.44-0.28-0.9-0.28-1.38s0.09-0.94,0.28-1.38c0.19-0.44,0.45-0.83,0.78-1.17c0.34-0.33,0.73-0.59,1.18-0.78
		c0.45-0.19,0.91-0.28,1.4-0.28s0.95,0.09,1.4,0.28c0.45,0.19,0.84,0.45,1.17,0.78s0.6,0.72,0.79,1.17s0.28,0.9,0.28,1.38
		s-0.09,0.94-0.28,1.38s-0.45,0.83-0.79,1.17c-0.34,0.33-0.73,0.59-1.17,0.78C77.81,184.79,77.35,184.89,76.86,184.89z
		 M76.86,183.94c0.34,0,0.67-0.07,0.98-0.2c0.31-0.13,0.59-0.32,0.82-0.57c0.24-0.24,0.42-0.53,0.56-0.85
		c0.13-0.33,0.2-0.67,0.2-1.04c0-0.37-0.07-0.71-0.2-1.04c-0.13-0.33-0.32-0.61-0.56-0.85c-0.24-0.24-0.51-0.43-0.82-0.57
		c-0.31-0.13-0.64-0.2-0.98-0.2s-0.67,0.07-0.98,0.2c-0.31,0.13-0.59,0.32-0.83,0.57c-0.24,0.24-0.42,0.53-0.55,0.85
		c-0.13,0.33-0.2,0.67-0.2,1.04c0,0.37,0.07,0.71,0.2,1.04c0.13,0.33,0.32,0.61,0.55,0.85c0.24,0.24,0.51,0.43,0.83,0.57
		C76.19,183.87,76.52,183.94,76.86,183.94z"/>
	<path class="st2" d="M82.37,184.78c-0.11,0-0.2-0.03-0.27-0.09s-0.09-0.15-0.09-0.27v-6.28c0-0.11,0.03-0.2,0.09-0.27
		s0.15-0.09,0.27-0.09h0.15c0.19,0,0.34,0.07,0.45,0.22l3.58,4.84v-4.7c0-0.11,0.03-0.2,0.09-0.27s0.15-0.09,0.27-0.09h0.34
		c0.11,0,0.2,0.03,0.27,0.09s0.1,0.15,0.1,0.27v6.28c0,0.11-0.03,0.2-0.1,0.27s-0.16,0.09-0.27,0.09h-0.14
		c-0.19,0-0.34-0.07-0.45-0.22l-3.59-4.86v4.72c0,0.11-0.03,0.2-0.09,0.27s-0.15,0.09-0.26,0.09H82.37z"/>
	<path class="st2" d="M93.77,177.78c0.11,0,0.2,0.03,0.26,0.09s0.1,0.15,0.1,0.27v0.15c0,0.11-0.03,0.2-0.1,0.27
		s-0.15,0.09-0.26,0.09h-3.06v2.27h2.62c0.11,0,0.2,0.03,0.27,0.1s0.1,0.15,0.1,0.26v0.13c0,0.11-0.03,0.2-0.1,0.27
		c-0.07,0.07-0.16,0.1-0.27,0.1h-2.62v2.64c0,0.11-0.03,0.2-0.09,0.27s-0.15,0.09-0.26,0.09h-0.34c-0.11,0-0.2-0.03-0.27-0.09
		s-0.09-0.15-0.09-0.27v-6.28c0-0.11,0.03-0.2,0.09-0.27s0.15-0.09,0.27-0.09H93.77z"/>
	<path class="st2" d="M98.62,184.89c-0.49,0-0.95-0.09-1.4-0.28c-0.45-0.19-0.84-0.45-1.18-0.78c-0.34-0.33-0.6-0.72-0.78-1.17
		c-0.19-0.44-0.28-0.9-0.28-1.38s0.09-0.94,0.28-1.38c0.19-0.44,0.45-0.83,0.78-1.17c0.34-0.33,0.73-0.59,1.18-0.78
		c0.45-0.19,0.91-0.28,1.4-0.28s0.95,0.09,1.4,0.28c0.45,0.19,0.84,0.45,1.17,0.78s0.6,0.72,0.79,1.17s0.28,0.9,0.28,1.38
		s-0.09,0.94-0.28,1.38s-0.45,0.83-0.79,1.17c-0.34,0.33-0.73,0.59-1.17,0.78C99.57,184.79,99.11,184.89,98.62,184.89z
		 M98.62,183.94c0.34,0,0.67-0.07,0.98-0.2c0.31-0.13,0.59-0.32,0.82-0.57c0.24-0.24,0.42-0.53,0.56-0.85
		c0.13-0.33,0.2-0.67,0.2-1.04c0-0.37-0.07-0.71-0.2-1.04c-0.13-0.33-0.32-0.61-0.56-0.85c-0.24-0.24-0.51-0.43-0.82-0.57
		c-0.31-0.13-0.64-0.2-0.98-0.2s-0.67,0.07-0.98,0.2c-0.31,0.13-0.59,0.32-0.83,0.57c-0.24,0.24-0.42,0.53-0.55,0.85
		c-0.13,0.33-0.2,0.67-0.2,1.04c0,0.37,0.07,0.71,0.2,1.04c0.13,0.33,0.32,0.61,0.55,0.85c0.24,0.24,0.51,0.43,0.83,0.57
		C97.95,183.87,98.28,183.94,98.62,183.94z"/>
	<path class="st2" d="M108.42,184.89c-0.29,0-0.57-0.07-0.83-0.2c-0.27-0.13-0.5-0.34-0.7-0.61c-0.2-0.27-0.35-0.58-0.47-0.92
		c-0.12-0.34-0.19-0.68-0.22-1h-1.38v2.27c0,0.11-0.03,0.2-0.09,0.27s-0.15,0.09-0.26,0.09h-0.34c-0.11,0-0.2-0.03-0.26-0.09
		s-0.09-0.15-0.09-0.27v-6.28c0-0.11,0.03-0.2,0.09-0.27s0.15-0.09,0.26-0.09h2.59c0.24,0,0.48,0.04,0.73,0.12
		c0.25,0.08,0.48,0.21,0.69,0.39c0.21,0.19,0.38,0.42,0.51,0.71c0.13,0.29,0.2,0.62,0.2,0.99c0,0.53-0.15,0.99-0.44,1.38
		s-0.69,0.63-1.2,0.74c0.02,0.19,0.08,0.43,0.17,0.72s0.24,0.56,0.44,0.81c0.2,0.25,0.43,0.37,0.7,0.37c0.2,0,0.37-0.04,0.51-0.12
		c0.11-0.05,0.21-0.07,0.29-0.05c0.08,0.02,0.14,0.08,0.19,0.18l0.05,0.09c0.1,0.23,0.06,0.39-0.11,0.5
		c-0.14,0.09-0.3,0.17-0.48,0.21C108.77,184.86,108.59,184.89,108.42,184.89z M104.82,181.31h1.68c0.19,0,0.38-0.04,0.56-0.12
		c0.19-0.08,0.35-0.23,0.48-0.45s0.19-0.47,0.19-0.75c0-0.19-0.04-0.38-0.11-0.59c-0.07-0.21-0.21-0.38-0.41-0.53
		s-0.44-0.22-0.72-0.22h-1.68V181.31z"/>
	<path class="st2" d="M110.83,184.78c-0.12,0-0.21-0.03-0.28-0.1c-0.06-0.07-0.09-0.16-0.08-0.28l0.6-6.28
		c0.02-0.23,0.14-0.34,0.37-0.34h0.53c0.2,0,0.34,0.09,0.41,0.28l2.18,5.21l2.17-5.21c0.09-0.19,0.23-0.28,0.42-0.28h0.52
		c0.23,0,0.36,0.11,0.38,0.34l0.59,6.28c0.01,0.12-0.02,0.21-0.08,0.28c-0.06,0.07-0.15,0.1-0.27,0.1h-0.33
		c-0.24,0-0.37-0.11-0.39-0.34l-0.43-5.05l-2.08,5.02c-0.08,0.19-0.22,0.28-0.42,0.28h-0.17c-0.19,0-0.33-0.09-0.41-0.28l-2.08-5.02
		l-0.44,5.05c-0.02,0.23-0.15,0.34-0.38,0.34H110.83z"/>
	<path class="st2" d="M124.52,178.65h-3.06v2.27h2.62c0.11,0,0.2,0.03,0.27,0.1s0.09,0.15,0.09,0.26v0.13c0,0.11-0.03,0.2-0.09,0.27
		c-0.06,0.07-0.15,0.1-0.27,0.1h-2.62v2.13h3.06c0.11,0,0.19,0.03,0.26,0.09c0.07,0.06,0.1,0.15,0.1,0.27v0.15
		c0,0.11-0.03,0.2-0.1,0.27s-0.15,0.09-0.26,0.09h-3.76c-0.11,0-0.2-0.03-0.27-0.09s-0.09-0.15-0.09-0.27v-6.28
		c0-0.11,0.03-0.2,0.09-0.27s0.15-0.09,0.27-0.09h3.76c0.11,0,0.19,0.03,0.26,0.09s0.1,0.15,0.1,0.27v0.15c0,0.11-0.03,0.2-0.1,0.27
		S124.63,178.65,124.52,178.65z"/>
	<path class="st2" d="M133.82,184.89c-0.29,0-0.57-0.07-0.83-0.2c-0.27-0.13-0.5-0.34-0.7-0.61c-0.2-0.27-0.35-0.58-0.47-0.92
		c-0.12-0.34-0.19-0.68-0.22-1h-1.38v2.27c0,0.11-0.03,0.2-0.09,0.27s-0.15,0.09-0.26,0.09h-0.34c-0.11,0-0.2-0.03-0.26-0.09
		s-0.09-0.15-0.09-0.27v-6.28c0-0.11,0.03-0.2,0.09-0.27s0.15-0.09,0.26-0.09h2.59c0.24,0,0.48,0.04,0.73,0.12
		c0.25,0.08,0.48,0.21,0.69,0.39c0.21,0.19,0.38,0.42,0.51,0.71c0.13,0.29,0.2,0.62,0.2,0.99c0,0.53-0.15,0.99-0.44,1.38
		s-0.69,0.63-1.2,0.74c0.02,0.19,0.08,0.43,0.17,0.72s0.24,0.56,0.44,0.81c0.2,0.25,0.43,0.37,0.7,0.37c0.2,0,0.37-0.04,0.51-0.12
		c0.11-0.05,0.21-0.07,0.29-0.05c0.08,0.02,0.14,0.08,0.19,0.18l0.05,0.09c0.1,0.23,0.06,0.39-0.11,0.5
		c-0.14,0.09-0.3,0.17-0.48,0.21C134.17,184.86,133.99,184.89,133.82,184.89z M130.22,181.31h1.68c0.19,0,0.38-0.04,0.56-0.12
		c0.19-0.08,0.35-0.23,0.48-0.45s0.19-0.47,0.19-0.75c0-0.19-0.04-0.38-0.11-0.59c-0.07-0.21-0.21-0.38-0.41-0.53
		s-0.44-0.22-0.72-0.22h-1.68V181.31z"/>
	<path class="st2" d="M140.27,178.65h-3.06v2.27h2.62c0.11,0,0.2,0.03,0.27,0.1s0.09,0.15,0.09,0.26v0.13c0,0.11-0.03,0.2-0.09,0.27
		c-0.06,0.07-0.15,0.1-0.27,0.1h-2.62v2.13h3.06c0.11,0,0.19,0.03,0.26,0.09c0.07,0.06,0.1,0.15,0.1,0.27v0.15
		c0,0.11-0.03,0.2-0.1,0.27s-0.15,0.09-0.26,0.09h-3.76c-0.11,0-0.2-0.03-0.27-0.09s-0.09-0.15-0.09-0.27v-6.28
		c0-0.11,0.03-0.2,0.09-0.27s0.15-0.09,0.27-0.09h3.76c0.11,0,0.19,0.03,0.26,0.09s0.1,0.15,0.1,0.27v0.15c0,0.11-0.03,0.2-0.1,0.27
		S140.38,178.65,140.27,178.65z"/>
	<path class="st2" d="M145.29,184.89c-0.52,0-1.01-0.09-1.47-0.28c-0.46-0.19-0.86-0.45-1.2-0.78s-0.6-0.71-0.78-1.15
		c-0.18-0.44-0.27-0.9-0.27-1.38c0-0.49,0.09-0.95,0.28-1.4c0.19-0.45,0.45-0.84,0.78-1.17c0.34-0.33,0.73-0.59,1.18-0.78
		c0.45-0.19,0.91-0.28,1.4-0.28c0.89,0,1.64,0.19,2.27,0.58c0.19,0.12,0.23,0.29,0.12,0.5l-0.1,0.17c-0.11,0.21-0.27,0.26-0.5,0.13
		c-0.27-0.14-0.53-0.25-0.79-0.32s-0.59-0.11-1-0.11c-0.35,0-0.68,0.07-0.99,0.21s-0.59,0.33-0.82,0.58s-0.42,0.53-0.55,0.86
		c-0.13,0.33-0.2,0.67-0.2,1.03c0,0.33,0.06,0.66,0.17,0.98c0.12,0.32,0.29,0.6,0.51,0.85s0.51,0.45,0.86,0.6
		c0.34,0.15,0.73,0.22,1.16,0.22c0.6,0,1.13-0.15,1.6-0.45v-1.39h-1.58c-0.11,0-0.2-0.03-0.26-0.1c-0.06-0.07-0.1-0.16-0.1-0.27
		v-0.12c0-0.11,0.03-0.2,0.1-0.26c0.06-0.06,0.15-0.1,0.26-0.1h2.19c0.11,0,0.2,0.03,0.26,0.1s0.09,0.15,0.09,0.26v2.02
		c0,0.19-0.1,0.37-0.31,0.53c-0.27,0.2-0.61,0.37-1,0.51C146.21,184.82,145.78,184.89,145.29,184.89z"/>
	<path class="st2" d="M149.89,184.78c-0.11,0-0.2-0.03-0.27-0.09s-0.09-0.15-0.09-0.27v-6.28c0-0.11,0.03-0.2,0.09-0.27
		s0.15-0.09,0.27-0.09h0.34c0.11,0,0.2,0.03,0.26,0.09s0.09,0.15,0.09,0.27v6.28c0,0.11-0.03,0.2-0.09,0.27s-0.15,0.09-0.26,0.09
		H149.89z"/>
	<path class="st2" d="M152.23,184.78c-0.13,0-0.23-0.04-0.28-0.12c-0.05-0.08-0.05-0.18,0-0.3l2.41-6.29
		c0.03-0.09,0.09-0.16,0.17-0.21c0.08-0.05,0.16-0.08,0.25-0.08h0.58c0.21,0,0.35,0.1,0.42,0.29l2.43,6.29
		c0.05,0.13,0.04,0.23,0,0.3c-0.05,0.08-0.14,0.12-0.28,0.12h-0.32c-0.21,0-0.35-0.1-0.43-0.29l-0.43-1.14h-3.34l-0.43,1.14
		c-0.08,0.19-0.22,0.29-0.42,0.29H152.23z M154.07,176.85c-0.07,0.11-0.16,0.16-0.27,0.13l-0.09-0.02c-0.02-0.01-0.05-0.03-0.1-0.07
		c-0.05-0.04-0.06-0.11-0.03-0.2c0.09-0.29,0.2-0.51,0.33-0.65c0.13-0.14,0.3-0.21,0.51-0.21c0.15,0,0.38,0.07,0.68,0.21
		c0.3,0.14,0.5,0.21,0.59,0.21c0.17,0,0.31-0.1,0.41-0.31c0.06-0.11,0.15-0.16,0.26-0.13l0.09,0.02c0.02,0.01,0.05,0.03,0.1,0.07
		c0.05,0.04,0.06,0.11,0.03,0.2c-0.09,0.29-0.2,0.51-0.33,0.64c-0.13,0.14-0.3,0.21-0.51,0.21c-0.15,0-0.38-0.07-0.68-0.21
		c-0.3-0.14-0.5-0.21-0.59-0.21C154.3,176.54,154.17,176.64,154.07,176.85z M153.71,182.49h2.74l-1.38-3.68L153.71,182.49z"/>
	<path class="st2" d="M162.69,184.89c-0.49,0-0.95-0.09-1.4-0.28c-0.45-0.19-0.84-0.45-1.18-0.78c-0.34-0.33-0.6-0.72-0.78-1.17
		c-0.19-0.44-0.28-0.9-0.28-1.38s0.09-0.94,0.28-1.38c0.19-0.44,0.45-0.83,0.78-1.17c0.34-0.33,0.73-0.59,1.18-0.78
		c0.45-0.19,0.91-0.28,1.4-0.28s0.95,0.09,1.4,0.28c0.45,0.19,0.84,0.45,1.17,0.78s0.6,0.72,0.79,1.17s0.28,0.9,0.28,1.38
		s-0.09,0.94-0.28,1.38s-0.45,0.83-0.79,1.17c-0.34,0.33-0.73,0.59-1.17,0.78C163.64,184.79,163.17,184.89,162.69,184.89z
		 M162.69,183.94c0.34,0,0.67-0.07,0.98-0.2c0.31-0.13,0.59-0.32,0.82-0.57c0.24-0.24,0.42-0.53,0.56-0.85
		c0.13-0.33,0.2-0.67,0.2-1.04c0-0.37-0.07-0.71-0.2-1.04c-0.13-0.33-0.32-0.61-0.56-0.85c-0.24-0.24-0.51-0.43-0.82-0.57
		c-0.31-0.13-0.64-0.2-0.98-0.2s-0.67,0.07-0.98,0.2c-0.31,0.13-0.59,0.32-0.83,0.57c-0.24,0.24-0.42,0.53-0.55,0.85
		c-0.13,0.33-0.2,0.67-0.2,1.04c0,0.37,0.07,0.71,0.2,1.04c0.13,0.33,0.32,0.61,0.55,0.85c0.24,0.24,0.51,0.43,0.83,0.57
		C162.02,183.87,162.35,183.94,162.69,183.94z"/>
</g>
<g>
	<path class="st1" d="M128.68,45.17l-7.53-9.04l1.79,0c1.14,0,2.07-0.93,2.07-2.07l0-12.44c0-1.14-0.93-2.07-2.07-2.07l-33.17-0.01
		c-1.14,0-2.07,0.93-2.07,2.07l0,12.44c0,1.14,0.93,2.07,2.07,2.07l1.79,0l-7.53,9.04c-0.31,0.37-0.48,0.84-0.48,1.33l0,12.44
		c0,1.14,0.93,2.07,2.07,2.07c1.14,0,2.07-0.93,2.07-2.07l0-11.69l9.27-11.11l18.79,0l9.26,11.12l0,5.47l-18.66,0
		c-1.14,0-2.07,0.93-2.07,2.07l-0.01,24.88c0,1.14,0.93,2.07,2.07,2.07l18.66,0l0,8.29l-29.02-0.01c-1.14,0-2.07,0.93-2.07,2.07
		c0,1.14,0.93,2.07,2.07,2.07l31.1,0.01c1.14,0,2.07-0.93,2.07-2.07l0.01-45.61C129.16,46.01,128.99,45.54,128.68,45.17z
		 M95.99,31.98l-4.15,0l0-8.29l29.02,0.01l0,8.29L95.99,31.98z M108.42,77.59l0-20.73l16.58,0l0,20.73L108.42,77.59z"/>
	<path class="st1" d="M100.38,75.26c0.01-2.75-1.08-5.39-3.03-7.33c-3.41-3.39-8.7-4-12.79-1.47c-0.68,0.41-1.31,0.91-1.87,1.47
		l-8.79,8.79c-4.05,4.04-4.06,10.59-0.02,14.64c1.95,1.96,4.61,3.06,7.38,3.04c1.92,0.01,3.8-0.53,5.43-1.55
		c0.68-0.41,1.31-0.91,1.87-1.47l8.79-8.79C99.29,80.65,100.38,78.01,100.38,75.26z M85.62,88.45c-0.33,0.34-0.71,0.63-1.11,0.87
		c-2.91,1.82-6.75,0.93-8.57-1.98c-1.53-2.46-1.17-5.65,0.88-7.69l2.93-2.93l8.8,8.8L85.62,88.45z M94.41,79.66l-2.93,2.93l-8.8-8.8
		l2.93-2.93c0.33-0.34,0.71-0.63,1.11-0.87c0.98-0.62,2.12-0.94,3.28-0.94c3.43-0.01,6.22,2.77,6.23,6.21
		C96.23,76.91,95.58,78.5,94.41,79.66L94.41,79.66z"/>
</g>
</svg>
