<?xml version="1.0" encoding="utf-8"?>
<!-- Generator: Adobe Illustrator 24.1.0, SVG Export Plug-In . SVG Version: 6.00 Build 0)  -->
<svg version="1.1" id="Layer_1" xmlns="http://www.w3.org/2000/svg" xmlns:xlink="http://www.w3.org/1999/xlink" x="0px" y="0px"
	 viewBox="0 0 200 196.98" style="enable-background:new 0 0 200 196.98;" xml:space="preserve">
<style type="text/css">
	.st0{fill:#E20D18;}
	.st1{fill:#FFFFFF;}
	.st2{fill:#12448B;}
	.st3{fill-rule:evenodd;clip-rule:evenodd;fill:#FFFFFF;}
</style>
<circle class="st0" cx="100" cy="56.97" r="56.97"/>
<g>
	<path class="st2" d="M44.56,132.59h-4.81v2.84h4.07c0.28,0,0.49,0.08,0.64,0.22c0.15,0.15,0.23,0.36,0.23,0.64v0.49
		c0,0.28-0.08,0.49-0.23,0.65c-0.15,0.16-0.36,0.23-0.64,0.23h-4.07v2.7h4.81c0.28,0,0.49,0.08,0.64,0.23
		c0.15,0.15,0.22,0.36,0.22,0.64v0.68c0,0.28-0.07,0.49-0.22,0.64c-0.15,0.15-0.36,0.22-0.64,0.22h-6.79
		c-0.28,0-0.49-0.08-0.65-0.22c-0.16-0.15-0.23-0.36-0.23-0.64v-10.87c0-0.28,0.08-0.49,0.23-0.64s0.37-0.22,0.65-0.22h6.79
		c0.28,0,0.49,0.07,0.64,0.22s0.22,0.36,0.22,0.64v0.68c0,0.28-0.07,0.49-0.22,0.64C45.05,132.52,44.84,132.59,44.56,132.59z"/>
	<path class="st2" d="M47.55,142.78c-0.36,0-0.59-0.1-0.69-0.32c-0.1-0.21-0.03-0.46,0.21-0.75l3.1-3.71l-2.75-3.42
		c-0.23-0.29-0.29-0.54-0.19-0.75c0.1-0.21,0.33-0.32,0.69-0.32h1.13c0.44,0,0.8,0.17,1.06,0.52l1.78,2.14l1.78-2.14
		c0.28-0.35,0.63-0.52,1.06-0.52h1.17c0.36,0,0.59,0.11,0.69,0.32c0.1,0.21,0.04,0.46-0.19,0.75l-2.79,3.42l3.1,3.71
		c0.24,0.29,0.31,0.54,0.21,0.75c-0.1,0.21-0.33,0.32-0.69,0.32h-1.08c-0.42,0-0.77-0.16-1.06-0.49l-2.2-2.61l-2.2,2.61
		c-0.29,0.32-0.64,0.49-1.06,0.49H47.55z"/>
	<path class="st2" d="M62,142.98c-0.47,0-0.92-0.07-1.35-0.21c-0.43-0.14-0.83-0.34-1.19-0.59c-0.36-0.26-0.67-0.57-0.94-0.93
		c-0.26-0.36-0.49-0.8-0.68-1.32c-0.19-0.52-0.29-1.11-0.29-1.77s0.11-1.29,0.33-1.88c0.22-0.59,0.53-1.11,0.93-1.55
		c0.4-0.44,0.87-0.78,1.42-1.03c0.55-0.25,1.14-0.37,1.76-0.37s1.19,0.13,1.71,0.38s0.94,0.63,1.26,1.13v-0.45
		c0-0.28,0.08-0.49,0.23-0.64c0.15-0.15,0.36-0.22,0.64-0.22h1.06c0.28,0,0.49,0.08,0.64,0.22c0.15,0.15,0.22,0.36,0.22,0.64v7.52
		c0,0.28-0.08,0.49-0.22,0.64c-0.15,0.15-0.36,0.22-0.64,0.22h-1.06c-0.28,0-0.49-0.08-0.64-0.22c-0.15-0.15-0.23-0.36-0.23-0.64
		v-0.43c-0.32,0.49-0.74,0.86-1.26,1.12S62.63,142.98,62,142.98z M62.65,140.74c0.35,0,0.7-0.08,1.06-0.24s0.67-0.46,0.92-0.89
		s0.38-0.92,0.38-1.46s-0.13-1.03-0.38-1.46s-0.56-0.73-0.92-0.89c-0.36-0.16-0.71-0.24-1.06-0.24c-0.53,0-0.98,0.14-1.34,0.43
		s-0.62,0.64-0.76,1.04c-0.14,0.41-0.21,0.78-0.21,1.12c0,0.71,0.2,1.32,0.61,1.83S61.93,140.74,62.65,140.74z"/>
	<path class="st2" d="M70.86,142.78c-0.28,0-0.49-0.08-0.64-0.22c-0.15-0.15-0.22-0.36-0.22-0.64v-7.52c0-0.28,0.07-0.49,0.22-0.64
		c0.15-0.15,0.36-0.22,0.64-0.22h1.06c0.28,0,0.49,0.08,0.64,0.22c0.15,0.15,0.23,0.36,0.23,0.64V135c0.18-0.52,0.5-0.92,0.95-1.22
		c0.46-0.3,0.97-0.45,1.55-0.45c0.41,0,0.8,0.07,1.17,0.22c0.37,0.14,0.68,0.35,0.94,0.6s0.44,0.52,0.58,0.78
		c0.22-0.34,0.47-0.63,0.77-0.89c0.29-0.26,0.63-0.44,1-0.55s0.77-0.16,1.21-0.16c0.71,0,1.31,0.17,1.81,0.5s0.89,0.81,1.17,1.43
		s0.42,1.35,0.42,2.21v4.45c0,0.28-0.08,0.49-0.23,0.64c-0.16,0.15-0.37,0.22-0.65,0.22h-1.04c-0.28,0-0.49-0.08-0.64-0.22
		c-0.15-0.15-0.23-0.36-0.23-0.64v-4.32c0-0.64-0.12-1.13-0.36-1.48c-0.24-0.35-0.56-0.52-0.97-0.52c-0.31,0-0.59,0.1-0.84,0.29
		c-0.25,0.19-0.44,0.46-0.58,0.79s-0.22,0.75-0.23,1.24v4c0,0.28-0.07,0.49-0.22,0.64c-0.15,0.15-0.36,0.22-0.64,0.22h-1.06
		c-0.28,0-0.49-0.08-0.64-0.22c-0.15-0.15-0.23-0.36-0.23-0.64v-4.32c0-0.64-0.12-1.13-0.35-1.48c-0.23-0.35-0.55-0.52-0.96-0.52
		c-0.32,0-0.62,0.1-0.87,0.31s-0.46,0.48-0.59,0.83c-0.14,0.35-0.21,0.77-0.21,1.28v3.91c0,0.28-0.08,0.49-0.23,0.64
		c-0.15,0.15-0.36,0.22-0.64,0.22H70.86z"/>
	<path class="st2" d="M91.2,142.98c-0.79,0-1.52-0.12-2.2-0.37s-1.24-0.59-1.7-1.03c-0.46-0.44-0.82-0.95-1.06-1.54
		c-0.25-0.59-0.37-1.21-0.37-1.85c0-0.64,0.12-1.25,0.36-1.84c0.24-0.59,0.58-1.12,1.03-1.57s0.98-0.8,1.62-1.06
		c0.64-0.26,1.33-0.39,2.07-0.39c0.65,0,1.27,0.1,1.85,0.3c0.59,0.2,1.1,0.49,1.55,0.87c0.44,0.38,0.8,0.86,1.06,1.44
		c0.26,0.58,0.41,1.22,0.45,1.93c0.01,0.25-0.06,0.44-0.23,0.57s-0.38,0.19-0.66,0.19h-6.44c-0.01,0.35,0.1,0.7,0.32,1.04
		c0.23,0.35,0.57,0.62,1.04,0.82c0.46,0.2,0.96,0.3,1.48,0.3c0.71,0,1.39-0.19,2.05-0.56c0.49-0.28,0.9-0.22,1.22,0.18l0.2,0.25
		c0.18,0.22,0.26,0.44,0.23,0.67c-0.02,0.23-0.16,0.43-0.4,0.61C93.73,142.63,92.57,142.98,91.2,142.98z M88.61,137.07h4.64
		c-0.12-0.56-0.39-0.98-0.82-1.24c-0.43-0.26-0.91-0.4-1.45-0.4c-0.38,0-0.76,0.07-1.12,0.22c-0.36,0.14-0.64,0.35-0.85,0.61
		C88.82,136.53,88.68,136.8,88.61,137.07z"/>
	<path class="st2" d="M100.59,142.98c-0.83,0-1.56-0.16-2.19-0.48c-0.63-0.32-1.1-0.78-1.4-1.38c-0.13-0.25-0.14-0.48-0.03-0.67
		c0.11-0.2,0.31-0.33,0.6-0.41l0.56-0.13c0.11-0.02,0.23-0.03,0.38-0.02c0.14,0.01,0.38,0.18,0.7,0.5c0.16,0.17,0.36,0.3,0.6,0.4
		c0.25,0.1,0.51,0.14,0.78,0.14c0.35,0,0.63-0.08,0.85-0.22c0.22-0.15,0.33-0.35,0.33-0.59c0-0.14-0.05-0.28-0.14-0.4
		c-0.1-0.13-0.34-0.26-0.72-0.41l-1.13-0.4c-1.74-0.56-2.61-1.46-2.61-2.68c0-0.85,0.32-1.55,0.97-2.1
		c0.65-0.55,1.47-0.82,2.47-0.82c0.62,0,1.19,0.11,1.7,0.34c0.51,0.23,0.93,0.58,1.25,1.06c0.17,0.25,0.2,0.49,0.1,0.7
		c-0.1,0.22-0.3,0.36-0.6,0.43l-0.5,0.13c-0.17,0.05-0.33,0.05-0.48,0.02c-0.15-0.04-0.34-0.16-0.57-0.36
		c-0.23-0.23-0.53-0.34-0.9-0.34c-0.28,0-0.5,0.08-0.67,0.23c-0.17,0.16-0.26,0.34-0.26,0.56c0,0.13,0.05,0.26,0.16,0.39
		c0.11,0.13,0.34,0.25,0.68,0.37l1.15,0.43c0.58,0.19,1.05,0.42,1.42,0.68s0.66,0.57,0.87,0.93s0.32,0.75,0.33,1.18
		c0,0.58-0.15,1.08-0.45,1.5c-0.3,0.43-0.73,0.77-1.29,1.02C102.02,142.85,101.36,142.98,100.59,142.98z"/>
	<path class="st2" d="M111.81,142.78c-0.28,0-0.49-0.08-0.64-0.22c-0.15-0.15-0.22-0.36-0.22-0.64v-6.32h-0.83
		c-0.13,0-0.24-0.04-0.32-0.13s-0.13-0.19-0.13-0.32v-1.04c0-0.13,0.04-0.24,0.13-0.32s0.19-0.13,0.32-0.13h0.83v-0.59
		c0-1.13,0.3-1.99,0.9-2.59c0.6-0.6,1.44-0.9,2.52-0.9c0.37,0,0.73,0.04,1.06,0.13s0.65,0.2,0.93,0.36c0.28,0.16,0.54,0.4,0.76,0.73
		s0.34,0.75,0.34,1.25l-0.04,0.29c-0.01,0.1-0.06,0.18-0.14,0.24s-0.18,0.1-0.29,0.1h-1.3c-0.11,0-0.2-0.03-0.27-0.1
		c-0.07-0.07-0.11-0.14-0.11-0.23v-0.11c0-0.17-0.08-0.31-0.23-0.42c-0.15-0.11-0.33-0.17-0.55-0.17c-0.28,0-0.49,0.09-0.65,0.28
		c-0.16,0.19-0.23,0.45-0.23,0.78v0.95h1.62c0.13,0,0.24,0.04,0.32,0.13s0.13,0.19,0.13,0.32v1.04c0,0.13-0.04,0.24-0.13,0.32
		s-0.19,0.13-0.32,0.13h-1.57v6.32c0,0.28-0.08,0.49-0.23,0.64c-0.16,0.15-0.37,0.22-0.65,0.22H111.81z"/>
	<path class="st2" d="M118.41,142.78c-0.28,0-0.49-0.08-0.64-0.22c-0.15-0.15-0.22-0.36-0.22-0.64v-7.52c0-0.28,0.07-0.49,0.22-0.64
		c0.15-0.15,0.36-0.22,0.64-0.22h1.04c0.28,0,0.49,0.08,0.65,0.22c0.16,0.15,0.23,0.36,0.23,0.64v7.52c0,0.28-0.08,0.49-0.23,0.64
		c-0.16,0.15-0.37,0.22-0.65,0.22H118.41z M118.13,132.37c-0.18,0-0.3-0.05-0.36-0.15c-0.06-0.1-0.05-0.23,0.04-0.39l1.1-2.07
		c0.11-0.22,0.29-0.32,0.54-0.32h1.78c0.19,0,0.31,0.06,0.37,0.17c0.05,0.11,0.01,0.24-0.12,0.39l-1.76,2.12
		c-0.13,0.17-0.32,0.25-0.56,0.25H118.13z"/>
	<path class="st2" d="M125.74,142.98c-0.83,0-1.56-0.16-2.19-0.48c-0.63-0.32-1.1-0.78-1.4-1.38c-0.13-0.25-0.14-0.48-0.03-0.67
		c0.11-0.2,0.31-0.33,0.6-0.41l0.56-0.13c0.11-0.02,0.23-0.03,0.38-0.02c0.14,0.01,0.38,0.18,0.7,0.5c0.16,0.17,0.36,0.3,0.6,0.4
		c0.25,0.1,0.51,0.14,0.78,0.14c0.35,0,0.63-0.08,0.85-0.22c0.22-0.15,0.33-0.35,0.33-0.59c0-0.14-0.05-0.28-0.14-0.4
		c-0.1-0.13-0.34-0.26-0.72-0.41l-1.13-0.4c-1.74-0.56-2.61-1.46-2.61-2.68c0-0.85,0.32-1.55,0.97-2.1
		c0.65-0.55,1.47-0.82,2.47-0.82c0.62,0,1.19,0.11,1.7,0.34c0.51,0.23,0.93,0.58,1.25,1.06c0.17,0.25,0.2,0.49,0.1,0.7
		c-0.1,0.22-0.3,0.36-0.6,0.43l-0.5,0.13c-0.17,0.05-0.33,0.05-0.48,0.02c-0.15-0.04-0.34-0.16-0.57-0.36
		c-0.23-0.23-0.53-0.34-0.9-0.34c-0.28,0-0.5,0.08-0.67,0.23c-0.17,0.16-0.26,0.34-0.26,0.56c0,0.13,0.05,0.26,0.16,0.39
		c0.11,0.13,0.34,0.25,0.68,0.37l1.15,0.43c0.58,0.19,1.05,0.42,1.42,0.68s0.66,0.57,0.87,0.93s0.32,0.75,0.33,1.18
		c0,0.58-0.15,1.08-0.45,1.5c-0.3,0.43-0.73,0.77-1.29,1.02C127.17,142.85,126.51,142.98,125.74,142.98z"/>
	<path class="st2" d="M132.53,132.43c-0.49,0-0.89-0.14-1.21-0.41c-0.31-0.28-0.47-0.62-0.47-1.03c0-0.42,0.15-0.77,0.45-1.04
		c0.3-0.28,0.71-0.41,1.22-0.41c0.37,0,0.7,0.08,0.97,0.24s0.46,0.36,0.56,0.58c0.1,0.23,0.14,0.44,0.14,0.63
		c0,0.41-0.16,0.75-0.47,1.03C133.42,132.29,133.02,132.43,132.53,132.43z M132,142.78c-0.28,0-0.49-0.08-0.64-0.22
		c-0.15-0.15-0.22-0.36-0.22-0.64v-7.52c0-0.28,0.07-0.49,0.22-0.64c0.15-0.15,0.36-0.22,0.64-0.22h1.04c0.28,0,0.49,0.08,0.65,0.22
		c0.16,0.15,0.23,0.36,0.23,0.64v7.52c0,0.28-0.08,0.49-0.23,0.64c-0.16,0.15-0.37,0.22-0.65,0.22H132z"/>
	<path class="st2" d="M140.93,142.98c-0.78,0-1.5-0.12-2.16-0.37s-1.23-0.59-1.7-1.03c-0.47-0.44-0.84-0.95-1.09-1.53
		s-0.38-1.2-0.38-1.85c0-0.66,0.13-1.29,0.38-1.89c0.25-0.6,0.61-1.12,1.08-1.57c0.47-0.44,1.04-0.79,1.7-1.04s1.39-0.38,2.17-0.38
		c1.07,0,2.05,0.26,2.93,0.77c0.23,0.14,0.35,0.33,0.38,0.55c0.02,0.22-0.05,0.45-0.22,0.67l-0.29,0.36
		c-0.12,0.16-0.27,0.27-0.45,0.33c-0.18,0.07-0.44,0.03-0.77-0.12c-0.11-0.05-0.29-0.11-0.56-0.2c-0.26-0.08-0.55-0.13-0.86-0.13
		c-0.78,0-1.43,0.24-1.94,0.72c-0.51,0.48-0.76,1.1-0.76,1.85s0.25,1.37,0.76,1.85c0.51,0.48,1.16,0.72,1.94,0.72
		c0.31,0,0.6-0.04,0.86-0.13c0.26-0.08,0.45-0.15,0.56-0.2c0.26-0.12,0.5-0.17,0.69-0.13c0.2,0.03,0.38,0.15,0.53,0.35l0.29,0.36
		c0.17,0.23,0.23,0.46,0.18,0.7s-0.22,0.44-0.5,0.59C142.87,142.74,141.95,142.98,140.93,142.98z"/>
	<path class="st2" d="M150.35,142.98c-0.71,0-1.38-0.12-2.01-0.37c-0.63-0.25-1.18-0.59-1.65-1.04c-0.47-0.44-0.83-0.96-1.09-1.56
		c-0.26-0.59-0.39-1.21-0.39-1.86c0-0.31,0.04-0.67,0.13-1.07c0.08-0.4,0.24-0.81,0.48-1.22s0.55-0.81,0.96-1.2
		c0.41-0.38,0.93-0.7,1.56-0.95c0.63-0.25,1.3-0.38,2.01-0.38c0.53,0,1.04,0.07,1.54,0.22c0.5,0.14,0.95,0.35,1.37,0.61
		c0.41,0.26,0.8,0.61,1.16,1.03c0.36,0.42,0.63,0.9,0.8,1.44c0.17,0.54,0.26,1.05,0.26,1.53c0,0.31-0.04,0.67-0.13,1.07
		s-0.24,0.81-0.48,1.22c-0.23,0.41-0.55,0.81-0.96,1.2s-0.93,0.7-1.56,0.95S151.05,142.98,150.35,142.98z M150.35,140.73
		c0.68,0,1.27-0.25,1.75-0.75c0.49-0.5,0.73-1.1,0.73-1.81c0-0.72-0.24-1.33-0.73-1.83c-0.49-0.5-1.07-0.75-1.75-0.75
		c-0.7,0-1.28,0.25-1.76,0.75c-0.48,0.5-0.72,1.11-0.72,1.83c0,0.71,0.24,1.31,0.72,1.81C149.06,140.48,149.65,140.73,150.35,140.73
		z"/>
	<path class="st2" d="M160.26,142.98c-0.83,0-1.56-0.16-2.19-0.48c-0.63-0.32-1.1-0.78-1.4-1.38c-0.13-0.25-0.14-0.48-0.03-0.67
		c0.11-0.2,0.31-0.33,0.6-0.41l0.56-0.13c0.11-0.02,0.23-0.03,0.38-0.02c0.14,0.01,0.38,0.18,0.7,0.5c0.16,0.17,0.36,0.3,0.6,0.4
		c0.25,0.1,0.51,0.14,0.78,0.14c0.35,0,0.63-0.08,0.85-0.22c0.22-0.15,0.33-0.35,0.33-0.59c0-0.14-0.05-0.28-0.14-0.4
		c-0.1-0.13-0.34-0.26-0.72-0.41l-1.13-0.4c-1.74-0.56-2.61-1.46-2.61-2.68c0-0.85,0.32-1.55,0.97-2.1
		c0.65-0.55,1.47-0.82,2.47-0.82c0.62,0,1.19,0.11,1.7,0.34c0.51,0.23,0.93,0.58,1.25,1.06c0.17,0.25,0.2,0.49,0.1,0.7
		c-0.1,0.22-0.3,0.36-0.6,0.43l-0.5,0.13c-0.17,0.05-0.33,0.05-0.48,0.02c-0.15-0.04-0.34-0.16-0.57-0.36
		c-0.23-0.23-0.53-0.34-0.9-0.34c-0.28,0-0.5,0.08-0.67,0.23c-0.17,0.16-0.26,0.34-0.26,0.56c0,0.13,0.05,0.26,0.16,0.39
		c0.11,0.13,0.34,0.25,0.68,0.37l1.15,0.43c0.58,0.19,1.05,0.42,1.42,0.68s0.66,0.57,0.87,0.93s0.32,0.75,0.33,1.18
		c0,0.58-0.15,1.08-0.45,1.5c-0.3,0.43-0.73,0.77-1.29,1.02C161.69,142.85,161.03,142.98,160.26,142.98z"/>
	<path class="st2" d="M59.9,168.01c-1.33,0-2.53-0.28-3.6-0.83c-0.24-0.12-0.38-0.29-0.43-0.5c-0.05-0.22-0.01-0.44,0.13-0.68
		l0.22-0.4c0.26-0.49,0.65-0.6,1.17-0.32c0.36,0.18,0.73,0.32,1.12,0.42c0.38,0.1,0.77,0.15,1.15,0.15c0.49,0,0.95-0.1,1.38-0.29
		c0.43-0.19,0.75-0.5,0.97-0.93c0.22-0.43,0.33-0.92,0.33-1.47v-0.68c-0.16,0.24-0.37,0.48-0.65,0.72
		c-0.28,0.24-0.62,0.43-1.04,0.57s-0.85,0.21-1.3,0.21c-0.62,0-1.21-0.13-1.76-0.38s-1.03-0.6-1.42-1.04
		c-0.4-0.44-0.7-0.96-0.92-1.55c-0.22-0.59-0.32-1.21-0.32-1.85s0.11-1.27,0.32-1.85c0.22-0.59,0.52-1.1,0.92-1.55
		c0.4-0.44,0.87-0.79,1.42-1.04s1.14-0.38,1.76-0.38c0.61,0,1.18,0.13,1.69,0.38s0.94,0.63,1.26,1.13v-0.52
		c0-0.25,0.08-0.45,0.23-0.58s0.37-0.21,0.65-0.21h0.99c0.28,0,0.49,0.08,0.64,0.22c0.15,0.15,0.22,0.36,0.22,0.64v7.7
		c0,1.06-0.2,1.94-0.6,2.65c-0.4,0.71-0.98,1.27-1.74,1.67C61.93,167.81,61,168.01,59.9,168.01z M59.97,161.78
		c0.25,0,0.52-0.04,0.79-0.13c0.28-0.09,0.54-0.25,0.79-0.5s0.45-0.55,0.58-0.92c0.14-0.37,0.21-0.73,0.21-1.08
		c0-0.35-0.07-0.71-0.21-1.08c-0.14-0.37-0.33-0.68-0.58-0.92s-0.52-0.41-0.79-0.5c-0.28-0.09-0.54-0.13-0.79-0.13
		s-0.51,0.04-0.78,0.13s-0.53,0.26-0.78,0.5c-0.25,0.25-0.44,0.56-0.57,0.93c-0.13,0.37-0.19,0.73-0.19,1.06
		c0,0.53,0.12,1.01,0.37,1.46c0.25,0.44,0.55,0.75,0.9,0.92C59.27,161.7,59.62,161.78,59.97,161.78z"/>
	<path class="st2" d="M68.12,163.78c-0.28,0-0.49-0.08-0.64-0.22c-0.15-0.15-0.22-0.36-0.22-0.64v-7.52c0-0.28,0.07-0.49,0.22-0.64
		c0.15-0.15,0.36-0.22,0.64-0.22h0.99c0.28,0,0.49,0.08,0.64,0.22c0.15,0.15,0.22,0.36,0.22,0.64v1.15c0.07-0.4,0.22-0.77,0.43-1.12
		c0.22-0.35,0.51-0.62,0.89-0.81c0.38-0.19,0.73-0.29,1.07-0.29l0.31,0.02c0.35,0.02,0.52,0.27,0.52,0.74v1.26
		c0,0.24-0.06,0.42-0.17,0.53c-0.11,0.11-0.27,0.16-0.46,0.14l-0.45-0.04c-0.25,0-0.49,0.04-0.71,0.13
		c-0.22,0.08-0.43,0.22-0.62,0.4c-0.19,0.18-0.36,0.47-0.51,0.87c-0.15,0.4-0.22,0.95-0.22,1.63v2.92c0,0.28-0.08,0.49-0.23,0.64
		c-0.15,0.15-0.36,0.22-0.64,0.22H68.12z"/>
	<path class="st2" d="M78.29,163.98c-0.47,0-0.92-0.07-1.35-0.21c-0.43-0.14-0.83-0.34-1.19-0.59c-0.36-0.26-0.67-0.57-0.94-0.93
		c-0.26-0.36-0.49-0.8-0.68-1.32c-0.19-0.52-0.29-1.11-0.29-1.77s0.11-1.29,0.33-1.88c0.22-0.59,0.53-1.11,0.93-1.55
		c0.4-0.44,0.87-0.78,1.42-1.03c0.55-0.25,1.14-0.37,1.76-0.37s1.19,0.13,1.71,0.38s0.94,0.63,1.26,1.13v-0.45
		c0-0.28,0.08-0.49,0.23-0.64c0.15-0.15,0.36-0.22,0.64-0.22h1.06c0.28,0,0.49,0.08,0.64,0.22c0.15,0.15,0.22,0.36,0.22,0.64v7.52
		c0,0.28-0.08,0.49-0.22,0.64c-0.15,0.15-0.36,0.22-0.64,0.22h-1.06c-0.28,0-0.49-0.08-0.64-0.22c-0.15-0.15-0.23-0.36-0.23-0.64
		v-0.43c-0.32,0.49-0.74,0.86-1.26,1.12S78.92,163.98,78.29,163.98z M78.94,161.74c0.35,0,0.7-0.08,1.06-0.24s0.67-0.46,0.92-0.89
		s0.38-0.92,0.38-1.46s-0.13-1.03-0.38-1.46s-0.56-0.73-0.92-0.89c-0.36-0.16-0.71-0.24-1.06-0.24c-0.53,0-0.98,0.14-1.34,0.43
		s-0.62,0.64-0.76,1.04c-0.14,0.41-0.21,0.78-0.21,1.12c0,0.71,0.2,1.32,0.61,1.83S78.22,161.74,78.94,161.74z"/>
	<path class="st2" d="M90.12,163.98c-1.04,0-1.84-0.29-2.4-0.86c-0.56-0.58-0.84-1.38-0.84-2.41v-4.1h-0.92
		c-0.13,0-0.24-0.04-0.33-0.13s-0.13-0.19-0.13-0.32v-1.17c0-0.13,0.04-0.24,0.13-0.32s0.2-0.13,0.33-0.13h1.13l0.31-1.87
		c0.04-0.18,0.12-0.32,0.24-0.42s0.28-0.15,0.46-0.15h0.88c0.2,0,0.36,0.06,0.47,0.17c0.11,0.11,0.16,0.27,0.16,0.46v1.82h2.09
		c0.13,0,0.24,0.04,0.32,0.13c0.08,0.08,0.13,0.19,0.13,0.32v1.17c0,0.13-0.04,0.24-0.13,0.32c-0.08,0.08-0.19,0.13-0.32,0.13h-2.09
		v4.19c0,0.32,0.07,0.56,0.22,0.72c0.14,0.16,0.32,0.23,0.54,0.23c0.23,0,0.41-0.08,0.56-0.24c0.14-0.16,0.22-0.36,0.22-0.6
		l-0.02-0.32c-0.04-0.32,0.09-0.49,0.38-0.49h1.1c0.12,0,0.23,0.03,0.32,0.09c0.09,0.06,0.15,0.15,0.19,0.27
		c0.07,0.26,0.11,0.5,0.11,0.7c0,0.6-0.12,1.1-0.37,1.51c-0.25,0.41-0.6,0.73-1.05,0.96C91.34,163.86,90.78,163.98,90.12,163.98z"/>
	<path class="st2" d="M97.75,163.98c-0.73,0-1.34-0.17-1.84-0.5s-0.87-0.8-1.13-1.41s-0.4-1.35-0.4-2.21v-4.46
		c0-0.28,0.07-0.49,0.22-0.64c0.15-0.15,0.36-0.22,0.64-0.22h1.06c0.28,0,0.49,0.08,0.64,0.22c0.15,0.15,0.23,0.36,0.23,0.64v4.27
		c0,0.48,0.07,0.88,0.22,1.21c0.14,0.33,0.33,0.56,0.57,0.67c0.23,0.12,0.46,0.18,0.67,0.18c0.36,0,0.69-0.11,1-0.32
		c0.31-0.22,0.54-0.5,0.7-0.86c0.16-0.36,0.24-0.79,0.24-1.3v-3.85c0-0.28,0.08-0.49,0.23-0.64c0.15-0.15,0.36-0.22,0.64-0.22h1.04
		c0.28,0,0.49,0.08,0.65,0.22c0.16,0.15,0.23,0.36,0.23,0.64v7.52c0,0.28-0.08,0.49-0.23,0.64c-0.16,0.15-0.37,0.22-0.65,0.22h-1.04
		c-0.28,0-0.49-0.08-0.64-0.22c-0.15-0.15-0.23-0.36-0.23-0.64v-0.59c-0.23,0.52-0.59,0.92-1.08,1.21S98.42,163.98,97.75,163.98z"/>
	<path class="st2" d="M107.02,153.43c-0.49,0-0.89-0.14-1.21-0.41c-0.31-0.28-0.47-0.62-0.47-1.03c0-0.42,0.15-0.77,0.45-1.04
		c0.3-0.28,0.71-0.41,1.22-0.41c0.37,0,0.7,0.08,0.97,0.24s0.46,0.36,0.56,0.58c0.1,0.23,0.14,0.44,0.14,0.63
		c0,0.41-0.16,0.75-0.47,1.03C107.91,153.29,107.51,153.43,107.02,153.43z M106.5,163.78c-0.28,0-0.49-0.08-0.64-0.22
		c-0.15-0.15-0.22-0.36-0.22-0.64v-7.52c0-0.28,0.07-0.49,0.22-0.64c0.15-0.15,0.36-0.22,0.64-0.22h1.04c0.28,0,0.49,0.08,0.65,0.22
		c0.16,0.15,0.23,0.36,0.23,0.64v7.52c0,0.28-0.08,0.49-0.23,0.64c-0.16,0.15-0.37,0.22-0.65,0.22H106.5z"/>
	<path class="st2" d="M114.51,163.98c-1.04,0-1.84-0.29-2.4-0.86c-0.56-0.58-0.84-1.38-0.84-2.41v-4.1h-0.92
		c-0.13,0-0.24-0.04-0.33-0.13s-0.13-0.19-0.13-0.32v-1.17c0-0.13,0.04-0.24,0.13-0.32s0.2-0.13,0.33-0.13h1.13l0.31-1.87
		c0.04-0.18,0.12-0.32,0.24-0.42s0.28-0.15,0.46-0.15h0.88c0.2,0,0.36,0.06,0.47,0.17c0.11,0.11,0.16,0.27,0.16,0.46v1.82h2.09
		c0.13,0,0.24,0.04,0.32,0.13c0.08,0.08,0.13,0.19,0.13,0.32v1.17c0,0.13-0.04,0.24-0.13,0.32c-0.08,0.08-0.19,0.13-0.32,0.13H114
		v4.19c0,0.32,0.07,0.56,0.22,0.72c0.14,0.16,0.32,0.23,0.54,0.23c0.23,0,0.41-0.08,0.56-0.24c0.14-0.16,0.22-0.36,0.22-0.6
		l-0.02-0.32c-0.04-0.32,0.09-0.49,0.38-0.49h1.1c0.12,0,0.23,0.03,0.32,0.09c0.09,0.06,0.15,0.15,0.19,0.27
		c0.07,0.26,0.11,0.5,0.11,0.7c0,0.6-0.12,1.1-0.37,1.51c-0.25,0.41-0.6,0.73-1.05,0.96C115.73,163.86,115.17,163.98,114.51,163.98z
		"/>
	<path class="st2" d="M123.44,163.98c-0.71,0-1.38-0.12-2.01-0.37c-0.63-0.25-1.18-0.59-1.65-1.04c-0.47-0.44-0.83-0.96-1.09-1.56
		c-0.26-0.59-0.39-1.21-0.39-1.86c0-0.31,0.04-0.67,0.13-1.07c0.08-0.4,0.24-0.81,0.48-1.22s0.55-0.81,0.96-1.2
		c0.41-0.38,0.93-0.7,1.56-0.95c0.63-0.25,1.3-0.38,2.01-0.38c0.53,0,1.04,0.07,1.54,0.22c0.5,0.14,0.95,0.35,1.37,0.61
		c0.41,0.26,0.8,0.61,1.16,1.03c0.36,0.42,0.63,0.9,0.8,1.44c0.17,0.54,0.26,1.05,0.26,1.53c0,0.31-0.04,0.67-0.13,1.07
		s-0.24,0.81-0.48,1.22c-0.23,0.41-0.55,0.81-0.96,1.2s-0.93,0.7-1.56,0.95S124.14,163.98,123.44,163.98z M123.44,161.73
		c0.68,0,1.27-0.25,1.75-0.75c0.49-0.5,0.73-1.1,0.73-1.81c0-0.72-0.24-1.33-0.73-1.83c-0.49-0.5-1.07-0.75-1.75-0.75
		c-0.7,0-1.28,0.25-1.76,0.75c-0.48,0.5-0.72,1.11-0.72,1.83c0,0.71,0.24,1.31,0.72,1.81C122.15,161.48,122.74,161.73,123.44,161.73
		z"/>
	<path class="st2" d="M133.35,163.98c-0.83,0-1.56-0.16-2.19-0.48c-0.63-0.32-1.1-0.78-1.4-1.38c-0.13-0.25-0.14-0.48-0.03-0.67
		c0.11-0.2,0.31-0.33,0.6-0.41l0.56-0.13c0.11-0.02,0.23-0.03,0.38-0.02c0.14,0.01,0.38,0.18,0.7,0.5c0.16,0.17,0.36,0.3,0.6,0.4
		c0.25,0.1,0.51,0.14,0.78,0.14c0.35,0,0.63-0.08,0.85-0.22c0.22-0.15,0.33-0.35,0.33-0.59c0-0.14-0.05-0.28-0.14-0.4
		c-0.1-0.13-0.34-0.26-0.72-0.41l-1.13-0.4c-1.74-0.56-2.61-1.46-2.61-2.68c0-0.85,0.32-1.55,0.97-2.1
		c0.65-0.55,1.47-0.82,2.47-0.82c0.62,0,1.19,0.11,1.7,0.34c0.51,0.23,0.93,0.58,1.25,1.06c0.17,0.25,0.2,0.49,0.1,0.7
		c-0.1,0.22-0.3,0.36-0.6,0.43l-0.5,0.13c-0.17,0.05-0.33,0.05-0.48,0.02c-0.15-0.04-0.34-0.16-0.57-0.36
		c-0.23-0.23-0.53-0.34-0.9-0.34c-0.28,0-0.5,0.08-0.67,0.23c-0.17,0.16-0.26,0.34-0.26,0.56c0,0.13,0.05,0.26,0.16,0.39
		c0.11,0.13,0.34,0.25,0.68,0.37l1.15,0.43c0.58,0.19,1.05,0.42,1.42,0.68s0.66,0.57,0.87,0.93s0.32,0.75,0.33,1.18
		c0,0.58-0.15,1.08-0.45,1.5c-0.3,0.43-0.73,0.77-1.29,1.02C134.78,163.85,134.12,163.98,133.35,163.98z"/>
	<path class="st2" d="M140.5,156.99c-0.11,0.14-0.23,0.23-0.36,0.25c-0.13,0.02-0.27-0.02-0.41-0.13l-0.49-0.38
		c-0.14-0.11-0.22-0.23-0.24-0.37c-0.02-0.14,0.03-0.27,0.15-0.4l1.1-1.37l-1.71-0.5c-0.17-0.05-0.28-0.13-0.34-0.25
		c-0.06-0.12-0.07-0.26-0.02-0.43l0.2-0.63c0.05-0.17,0.14-0.28,0.27-0.33s0.28-0.05,0.45,0.01l1.64,0.65l-0.11-1.78
		c-0.01-0.18,0.03-0.32,0.13-0.41c0.1-0.1,0.23-0.14,0.41-0.14h0.67c0.18,0,0.32,0.05,0.41,0.15c0.1,0.1,0.14,0.24,0.13,0.42
		l-0.13,1.75l1.67-0.63c0.17-0.06,0.31-0.06,0.44-0.01s0.21,0.17,0.26,0.35l0.2,0.61c0.04,0.16,0.03,0.3-0.03,0.42
		c-0.05,0.13-0.17,0.21-0.35,0.26l-1.69,0.47l1.12,1.4c0.24,0.29,0.21,0.55-0.09,0.77l-0.5,0.36c-0.14,0.11-0.29,0.15-0.42,0.13
		s-0.25-0.11-0.35-0.27l-0.95-1.48L140.5,156.99z"/>
	<path class="st2" d="M36.22,184.78c-0.21,0-0.34-0.1-0.41-0.29l-2.19-6.29c-0.05-0.12-0.04-0.22,0.02-0.3s0.15-0.12,0.27-0.12h0.34
		c0.09,0,0.18,0.03,0.26,0.08c0.08,0.05,0.13,0.13,0.15,0.22l1.8,5.41l1.77-5.41c0.03-0.09,0.08-0.17,0.16-0.22
		c0.08-0.05,0.17-0.08,0.26-0.08h0.34c0.13,0,0.22,0.04,0.27,0.12c0.05,0.08,0.06,0.18,0.02,0.3l-2.2,6.29
		c-0.07,0.19-0.2,0.29-0.41,0.29H36.22z"/>
	<path class="st2" d="M39.85,184.78c-0.13,0-0.23-0.04-0.28-0.12c-0.05-0.08-0.05-0.18,0-0.3l2.41-6.29
		c0.03-0.09,0.09-0.16,0.17-0.21c0.08-0.05,0.16-0.08,0.25-0.08h0.58c0.21,0,0.35,0.1,0.42,0.29l2.43,6.29
		c0.05,0.13,0.04,0.23,0,0.3c-0.05,0.08-0.14,0.12-0.28,0.12h-0.32c-0.21,0-0.35-0.1-0.43-0.29l-0.43-1.14h-3.34l-0.43,1.14
		c-0.08,0.19-0.22,0.29-0.42,0.29H39.85z M41.33,182.49h2.74l-1.38-3.68L41.33,182.49z"/>
	<path class="st2" d="M51.83,184.89c-0.29,0-0.57-0.07-0.83-0.2c-0.27-0.13-0.5-0.34-0.7-0.61c-0.2-0.27-0.35-0.58-0.47-0.92
		c-0.12-0.34-0.19-0.68-0.22-1h-1.38v2.27c0,0.11-0.03,0.2-0.09,0.27s-0.15,0.09-0.26,0.09h-0.34c-0.11,0-0.2-0.03-0.26-0.09
		s-0.09-0.15-0.09-0.27v-6.28c0-0.11,0.03-0.2,0.09-0.27s0.15-0.09,0.26-0.09h2.59c0.24,0,0.48,0.04,0.73,0.12
		c0.25,0.08,0.48,0.21,0.69,0.39c0.21,0.19,0.38,0.42,0.51,0.71c0.13,0.29,0.2,0.62,0.2,0.99c0,0.53-0.15,0.99-0.44,1.38
		s-0.69,0.63-1.2,0.74c0.02,0.19,0.08,0.43,0.17,0.72s0.24,0.56,0.44,0.81c0.2,0.25,0.43,0.37,0.7,0.37c0.2,0,0.37-0.04,0.51-0.12
		c0.11-0.05,0.21-0.07,0.29-0.05c0.08,0.02,0.14,0.08,0.19,0.18l0.05,0.09c0.1,0.23,0.06,0.39-0.11,0.5
		c-0.14,0.09-0.3,0.17-0.48,0.21C52.18,184.86,52,184.89,51.83,184.89z M48.23,181.31h1.68c0.19,0,0.38-0.04,0.56-0.12
		c0.19-0.08,0.35-0.23,0.48-0.45s0.19-0.47,0.19-0.75c0-0.19-0.04-0.38-0.11-0.59c-0.07-0.21-0.21-0.38-0.41-0.53
		s-0.44-0.22-0.72-0.22h-1.68V181.31z"/>
	<path class="st2" d="M54.52,184.78c-0.11,0-0.2-0.03-0.27-0.09s-0.09-0.15-0.09-0.27v-6.28c0-0.11,0.03-0.2,0.09-0.27
		s0.15-0.09,0.27-0.09h0.34c0.11,0,0.2,0.03,0.26,0.09s0.09,0.15,0.09,0.27v6.28c0,0.11-0.03,0.2-0.09,0.27s-0.15,0.09-0.26,0.09
		H54.52z"/>
	<path class="st2" d="M56.86,184.78c-0.13,0-0.23-0.04-0.28-0.12c-0.05-0.08-0.05-0.18,0-0.3l2.41-6.29
		c0.03-0.09,0.09-0.16,0.17-0.21c0.08-0.05,0.16-0.08,0.25-0.08h0.58c0.21,0,0.35,0.1,0.42,0.29l2.43,6.29
		c0.05,0.13,0.04,0.23,0,0.3c-0.05,0.08-0.14,0.12-0.28,0.12h-0.32c-0.21,0-0.35-0.1-0.43-0.29l-0.43-1.14h-3.34l-0.43,1.14
		c-0.08,0.19-0.22,0.29-0.42,0.29H56.86z M58.34,182.49h2.74l-1.38-3.68L58.34,182.49z"/>
	<path class="st2" d="M70.2,184.89c-0.57,0-1.1-0.1-1.57-0.29c-0.47-0.19-0.88-0.45-1.21-0.79s-0.58-0.72-0.75-1.16
		c-0.17-0.44-0.26-0.9-0.26-1.38s0.09-0.94,0.26-1.38c0.17-0.44,0.42-0.83,0.75-1.16s0.73-0.59,1.21-0.79
		c0.47-0.19,1-0.29,1.57-0.29c0.77,0,1.45,0.19,2.04,0.57c0.19,0.13,0.23,0.29,0.12,0.5l-0.09,0.16c-0.11,0.2-0.28,0.24-0.5,0.12
		c-0.21-0.11-0.46-0.21-0.75-0.29s-0.56-0.12-0.81-0.12c-0.41,0-0.79,0.07-1.13,0.21c-0.34,0.14-0.63,0.33-0.86,0.58
		s-0.41,0.53-0.54,0.86c-0.12,0.33-0.18,0.67-0.18,1.02s0.06,0.69,0.18,1.02c0.12,0.33,0.3,0.61,0.54,0.86s0.52,0.43,0.86,0.58
		c0.34,0.14,0.72,0.21,1.13,0.21c0.25,0,0.52-0.04,0.81-0.12c0.29-0.08,0.54-0.17,0.75-0.29c0.22-0.12,0.39-0.08,0.5,0.12l0.09,0.16
		c0.11,0.2,0.09,0.35-0.06,0.46C71.69,184.68,70.99,184.89,70.2,184.89z"/>
	<path class="st2" d="M76.86,184.89c-0.49,0-0.95-0.09-1.4-0.28c-0.45-0.19-0.84-0.45-1.18-0.78c-0.34-0.33-0.6-0.72-0.78-1.17
		c-0.19-0.44-0.28-0.9-0.28-1.38s0.09-0.94,0.28-1.38c0.19-0.44,0.45-0.83,0.78-1.17c0.34-0.33,0.73-0.59,1.18-0.78
		c0.45-0.19,0.91-0.28,1.4-0.28s0.95,0.09,1.4,0.28c0.45,0.19,0.84,0.45,1.17,0.78s0.6,0.72,0.79,1.17s0.28,0.9,0.28,1.38
		s-0.09,0.94-0.28,1.38s-0.45,0.83-0.79,1.17c-0.34,0.33-0.73,0.59-1.17,0.78C77.81,184.79,77.35,184.89,76.86,184.89z
		 M76.86,183.94c0.34,0,0.67-0.07,0.98-0.2c0.31-0.13,0.59-0.32,0.82-0.57c0.24-0.24,0.42-0.53,0.56-0.85
		c0.13-0.33,0.2-0.67,0.2-1.04c0-0.37-0.07-0.71-0.2-1.04c-0.13-0.33-0.32-0.61-0.56-0.85c-0.24-0.24-0.51-0.43-0.82-0.57
		c-0.31-0.13-0.64-0.2-0.98-0.2s-0.67,0.07-0.98,0.2c-0.31,0.13-0.59,0.32-0.83,0.57c-0.24,0.24-0.42,0.53-0.55,0.85
		c-0.13,0.33-0.2,0.67-0.2,1.04c0,0.37,0.07,0.71,0.2,1.04c0.13,0.33,0.32,0.61,0.55,0.85c0.24,0.24,0.51,0.43,0.83,0.57
		C76.19,183.87,76.52,183.94,76.86,183.94z"/>
	<path class="st2" d="M82.37,184.78c-0.11,0-0.2-0.03-0.27-0.09s-0.09-0.15-0.09-0.27v-6.28c0-0.11,0.03-0.2,0.09-0.27
		s0.15-0.09,0.27-0.09h0.15c0.19,0,0.34,0.07,0.45,0.22l3.58,4.84v-4.7c0-0.11,0.03-0.2,0.09-0.27s0.15-0.09,0.27-0.09h0.34
		c0.11,0,0.2,0.03,0.27,0.09s0.1,0.15,0.1,0.27v6.28c0,0.11-0.03,0.2-0.1,0.27s-0.16,0.09-0.27,0.09h-0.14
		c-0.19,0-0.34-0.07-0.45-0.22l-3.59-4.86v4.72c0,0.11-0.03,0.2-0.09,0.27s-0.15,0.09-0.26,0.09H82.37z"/>
	<path class="st2" d="M93.77,177.78c0.11,0,0.2,0.03,0.26,0.09s0.1,0.15,0.1,0.27v0.15c0,0.11-0.03,0.2-0.1,0.27
		s-0.15,0.09-0.26,0.09h-3.06v2.27h2.62c0.11,0,0.2,0.03,0.27,0.1s0.1,0.15,0.1,0.26v0.13c0,0.11-0.03,0.2-0.1,0.27
		c-0.07,0.07-0.16,0.1-0.27,0.1h-2.62v2.64c0,0.11-0.03,0.2-0.09,0.27s-0.15,0.09-0.26,0.09h-0.34c-0.11,0-0.2-0.03-0.27-0.09
		s-0.09-0.15-0.09-0.27v-6.28c0-0.11,0.03-0.2,0.09-0.27s0.15-0.09,0.27-0.09H93.77z"/>
	<path class="st2" d="M98.62,184.89c-0.49,0-0.95-0.09-1.4-0.28c-0.45-0.19-0.84-0.45-1.18-0.78c-0.34-0.33-0.6-0.72-0.78-1.17
		c-0.19-0.44-0.28-0.9-0.28-1.38s0.09-0.94,0.28-1.38c0.19-0.44,0.45-0.83,0.78-1.17c0.34-0.33,0.73-0.59,1.18-0.78
		c0.45-0.19,0.91-0.28,1.4-0.28s0.95,0.09,1.4,0.28c0.45,0.19,0.84,0.45,1.17,0.78s0.6,0.72,0.79,1.17s0.28,0.9,0.28,1.38
		s-0.09,0.94-0.28,1.38s-0.45,0.83-0.79,1.17c-0.34,0.33-0.73,0.59-1.17,0.78C99.57,184.79,99.11,184.89,98.62,184.89z
		 M98.62,183.94c0.34,0,0.67-0.07,0.98-0.2c0.31-0.13,0.59-0.32,0.82-0.57c0.24-0.24,0.42-0.53,0.56-0.85
		c0.13-0.33,0.2-0.67,0.2-1.04c0-0.37-0.07-0.71-0.2-1.04c-0.13-0.33-0.32-0.61-0.56-0.85c-0.24-0.24-0.51-0.43-0.82-0.57
		c-0.31-0.13-0.64-0.2-0.98-0.2s-0.67,0.07-0.98,0.2c-0.31,0.13-0.59,0.32-0.83,0.57c-0.24,0.24-0.42,0.53-0.55,0.85
		c-0.13,0.33-0.2,0.67-0.2,1.04c0,0.37,0.07,0.71,0.2,1.04c0.13,0.33,0.32,0.61,0.55,0.85c0.24,0.24,0.51,0.43,0.83,0.57
		C97.95,183.87,98.28,183.94,98.62,183.94z"/>
	<path class="st2" d="M108.42,184.89c-0.29,0-0.57-0.07-0.83-0.2c-0.27-0.13-0.5-0.34-0.7-0.61c-0.2-0.27-0.35-0.58-0.47-0.92
		c-0.12-0.34-0.19-0.68-0.22-1h-1.38v2.27c0,0.11-0.03,0.2-0.09,0.27s-0.15,0.09-0.26,0.09h-0.34c-0.11,0-0.2-0.03-0.26-0.09
		s-0.09-0.15-0.09-0.27v-6.28c0-0.11,0.03-0.2,0.09-0.27s0.15-0.09,0.26-0.09h2.59c0.24,0,0.48,0.04,0.73,0.12
		c0.25,0.08,0.48,0.21,0.69,0.39c0.21,0.19,0.38,0.42,0.51,0.71c0.13,0.29,0.2,0.62,0.2,0.99c0,0.53-0.15,0.99-0.44,1.38
		s-0.69,0.63-1.2,0.74c0.02,0.19,0.08,0.43,0.17,0.72s0.24,0.56,0.44,0.81c0.2,0.25,0.43,0.37,0.7,0.37c0.2,0,0.37-0.04,0.51-0.12
		c0.11-0.05,0.21-0.07,0.29-0.05c0.08,0.02,0.14,0.08,0.19,0.18l0.05,0.09c0.1,0.23,0.06,0.39-0.11,0.5
		c-0.14,0.09-0.3,0.17-0.48,0.21C108.77,184.86,108.59,184.89,108.42,184.89z M104.82,181.31h1.68c0.19,0,0.38-0.04,0.56-0.12
		c0.19-0.08,0.35-0.23,0.48-0.45s0.19-0.47,0.19-0.75c0-0.19-0.04-0.38-0.11-0.59c-0.07-0.21-0.21-0.38-0.41-0.53
		s-0.44-0.22-0.72-0.22h-1.68V181.31z"/>
	<path class="st2" d="M110.83,184.78c-0.12,0-0.21-0.03-0.28-0.1c-0.06-0.07-0.09-0.16-0.08-0.28l0.6-6.28
		c0.02-0.23,0.14-0.34,0.37-0.34h0.53c0.2,0,0.34,0.09,0.41,0.28l2.18,5.21l2.17-5.21c0.09-0.19,0.23-0.28,0.42-0.28h0.52
		c0.23,0,0.36,0.11,0.38,0.34l0.59,6.28c0.01,0.12-0.02,0.21-0.08,0.28c-0.06,0.07-0.15,0.1-0.27,0.1h-0.33
		c-0.24,0-0.37-0.11-0.39-0.34l-0.43-5.05l-2.08,5.02c-0.08,0.19-0.22,0.28-0.42,0.28h-0.17c-0.19,0-0.33-0.09-0.41-0.28l-2.08-5.02
		l-0.44,5.05c-0.02,0.23-0.15,0.34-0.38,0.34H110.83z"/>
	<path class="st2" d="M124.52,178.65h-3.06v2.27h2.62c0.11,0,0.2,0.03,0.27,0.1s0.09,0.15,0.09,0.26v0.13c0,0.11-0.03,0.2-0.09,0.27
		c-0.06,0.07-0.15,0.1-0.27,0.1h-2.62v2.13h3.06c0.11,0,0.19,0.03,0.26,0.09c0.07,0.06,0.1,0.15,0.1,0.27v0.15
		c0,0.11-0.03,0.2-0.1,0.27s-0.15,0.09-0.26,0.09h-3.76c-0.11,0-0.2-0.03-0.27-0.09s-0.09-0.15-0.09-0.27v-6.28
		c0-0.11,0.03-0.2,0.09-0.27s0.15-0.09,0.27-0.09h3.76c0.11,0,0.19,0.03,0.26,0.09s0.1,0.15,0.1,0.27v0.15c0,0.11-0.03,0.2-0.1,0.27
		S124.63,178.65,124.52,178.65z"/>
	<path class="st2" d="M133.82,184.89c-0.29,0-0.57-0.07-0.83-0.2c-0.27-0.13-0.5-0.34-0.7-0.61c-0.2-0.27-0.35-0.58-0.47-0.92
		c-0.12-0.34-0.19-0.68-0.22-1h-1.38v2.27c0,0.11-0.03,0.2-0.09,0.27s-0.15,0.09-0.26,0.09h-0.34c-0.11,0-0.2-0.03-0.26-0.09
		s-0.09-0.15-0.09-0.27v-6.28c0-0.11,0.03-0.2,0.09-0.27s0.15-0.09,0.26-0.09h2.59c0.24,0,0.48,0.04,0.73,0.12
		c0.25,0.08,0.48,0.21,0.69,0.39c0.21,0.19,0.38,0.42,0.51,0.71c0.13,0.29,0.2,0.62,0.2,0.99c0,0.53-0.15,0.99-0.44,1.38
		s-0.69,0.63-1.2,0.74c0.02,0.19,0.08,0.43,0.17,0.72s0.24,0.56,0.44,0.81c0.2,0.25,0.43,0.37,0.7,0.37c0.2,0,0.37-0.04,0.51-0.12
		c0.11-0.05,0.21-0.07,0.29-0.05c0.08,0.02,0.14,0.08,0.19,0.18l0.05,0.09c0.1,0.23,0.06,0.39-0.11,0.5
		c-0.14,0.09-0.3,0.17-0.48,0.21C134.17,184.86,133.99,184.89,133.82,184.89z M130.22,181.31h1.68c0.19,0,0.38-0.04,0.56-0.12
		c0.19-0.08,0.35-0.23,0.48-0.45s0.19-0.47,0.19-0.75c0-0.19-0.04-0.38-0.11-0.59c-0.07-0.21-0.21-0.38-0.41-0.53
		s-0.44-0.22-0.72-0.22h-1.68V181.31z"/>
	<path class="st2" d="M140.27,178.65h-3.06v2.27h2.62c0.11,0,0.2,0.03,0.27,0.1s0.09,0.15,0.09,0.26v0.13c0,0.11-0.03,0.2-0.09,0.27
		c-0.06,0.07-0.15,0.1-0.27,0.1h-2.62v2.13h3.06c0.11,0,0.19,0.03,0.26,0.09c0.07,0.06,0.1,0.15,0.1,0.27v0.15
		c0,0.11-0.03,0.2-0.1,0.27s-0.15,0.09-0.26,0.09h-3.76c-0.11,0-0.2-0.03-0.27-0.09s-0.09-0.15-0.09-0.27v-6.28
		c0-0.11,0.03-0.2,0.09-0.27s0.15-0.09,0.27-0.09h3.76c0.11,0,0.19,0.03,0.26,0.09s0.1,0.15,0.1,0.27v0.15c0,0.11-0.03,0.2-0.1,0.27
		S140.38,178.65,140.27,178.65z"/>
	<path class="st2" d="M145.29,184.89c-0.52,0-1.01-0.09-1.47-0.28c-0.46-0.19-0.86-0.45-1.2-0.78s-0.6-0.71-0.78-1.15
		c-0.18-0.44-0.27-0.9-0.27-1.38c0-0.49,0.09-0.95,0.28-1.4c0.19-0.45,0.45-0.84,0.78-1.17c0.34-0.33,0.73-0.59,1.18-0.78
		c0.45-0.19,0.91-0.28,1.4-0.28c0.89,0,1.64,0.19,2.27,0.58c0.19,0.12,0.23,0.29,0.12,0.5l-0.1,0.17c-0.11,0.21-0.27,0.26-0.5,0.13
		c-0.27-0.14-0.53-0.25-0.79-0.32s-0.59-0.11-1-0.11c-0.35,0-0.68,0.07-0.99,0.21s-0.59,0.33-0.82,0.58s-0.42,0.53-0.55,0.86
		c-0.13,0.33-0.2,0.67-0.2,1.03c0,0.33,0.06,0.66,0.17,0.98c0.12,0.32,0.29,0.6,0.51,0.85s0.51,0.45,0.86,0.6
		c0.34,0.15,0.73,0.22,1.16,0.22c0.6,0,1.13-0.15,1.6-0.45v-1.39h-1.58c-0.11,0-0.2-0.03-0.26-0.1c-0.06-0.07-0.1-0.16-0.1-0.27
		v-0.12c0-0.11,0.03-0.2,0.1-0.26c0.06-0.06,0.15-0.1,0.26-0.1h2.19c0.11,0,0.2,0.03,0.26,0.1s0.09,0.15,0.09,0.26v2.02
		c0,0.19-0.1,0.37-0.31,0.53c-0.27,0.2-0.61,0.37-1,0.51C146.21,184.82,145.78,184.89,145.29,184.89z"/>
	<path class="st2" d="M149.89,184.78c-0.11,0-0.2-0.03-0.27-0.09s-0.09-0.15-0.09-0.27v-6.28c0-0.11,0.03-0.2,0.09-0.27
		s0.15-0.09,0.27-0.09h0.34c0.11,0,0.2,0.03,0.26,0.09s0.09,0.15,0.09,0.27v6.28c0,0.11-0.03,0.2-0.09,0.27s-0.15,0.09-0.26,0.09
		H149.89z"/>
	<path class="st2" d="M152.23,184.78c-0.13,0-0.23-0.04-0.28-0.12c-0.05-0.08-0.05-0.18,0-0.3l2.41-6.29
		c0.03-0.09,0.09-0.16,0.17-0.21c0.08-0.05,0.16-0.08,0.25-0.08h0.58c0.21,0,0.35,0.1,0.42,0.29l2.43,6.29
		c0.05,0.13,0.04,0.23,0,0.3c-0.05,0.08-0.14,0.12-0.28,0.12h-0.32c-0.21,0-0.35-0.1-0.43-0.29l-0.43-1.14h-3.34l-0.43,1.14
		c-0.08,0.19-0.22,0.29-0.42,0.29H152.23z M154.07,176.85c-0.07,0.11-0.16,0.16-0.27,0.13l-0.09-0.02c-0.02-0.01-0.05-0.03-0.1-0.07
		c-0.05-0.04-0.06-0.11-0.03-0.2c0.09-0.29,0.2-0.51,0.33-0.65c0.13-0.14,0.3-0.21,0.51-0.21c0.15,0,0.38,0.07,0.68,0.21
		c0.3,0.14,0.5,0.21,0.59,0.21c0.17,0,0.31-0.1,0.41-0.31c0.06-0.11,0.15-0.16,0.26-0.13l0.09,0.02c0.02,0.01,0.05,0.03,0.1,0.07
		c0.05,0.04,0.06,0.11,0.03,0.2c-0.09,0.29-0.2,0.51-0.33,0.64c-0.13,0.14-0.3,0.21-0.51,0.21c-0.15,0-0.38-0.07-0.68-0.21
		c-0.3-0.14-0.5-0.21-0.59-0.21C154.3,176.54,154.17,176.64,154.07,176.85z M153.71,182.49h2.74l-1.38-3.68L153.71,182.49z"/>
	<path class="st2" d="M162.69,184.89c-0.49,0-0.95-0.09-1.4-0.28c-0.45-0.19-0.84-0.45-1.18-0.78c-0.34-0.33-0.6-0.72-0.78-1.17
		c-0.19-0.44-0.28-0.9-0.28-1.38s0.09-0.94,0.28-1.38c0.19-0.44,0.45-0.83,0.78-1.17c0.34-0.33,0.73-0.59,1.18-0.78
		c0.45-0.19,0.91-0.28,1.4-0.28s0.95,0.09,1.4,0.28c0.45,0.19,0.84,0.45,1.17,0.78s0.6,0.72,0.79,1.17s0.28,0.9,0.28,1.38
		s-0.09,0.94-0.28,1.38s-0.45,0.83-0.79,1.17c-0.34,0.33-0.73,0.59-1.17,0.78C163.64,184.79,163.17,184.89,162.69,184.89z
		 M162.69,183.94c0.34,0,0.67-0.07,0.98-0.2c0.31-0.13,0.59-0.32,0.82-0.57c0.24-0.24,0.42-0.53,0.56-0.85
		c0.13-0.33,0.2-0.67,0.2-1.04c0-0.37-0.07-0.71-0.2-1.04c-0.13-0.33-0.32-0.61-0.56-0.85c-0.24-0.24-0.51-0.43-0.82-0.57
		c-0.31-0.13-0.64-0.2-0.98-0.2s-0.67,0.07-0.98,0.2c-0.31,0.13-0.59,0.32-0.83,0.57c-0.24,0.24-0.42,0.53-0.55,0.85
		c-0.13,0.33-0.2,0.67-0.2,1.04c0,0.37,0.07,0.71,0.2,1.04c0.13,0.33,0.32,0.61,0.55,0.85c0.24,0.24,0.51,0.43,0.83,0.57
		C162.02,183.87,162.35,183.94,162.69,183.94z"/>
</g>
<g>
	<g>
		<g>
			<path class="st1" d="M115.53,50.79c0-3.61-2.92-6.54-6.53-6.55c-3.61,0-6.54,2.92-6.55,6.53c0,2.67,1.62,5.08,4.1,6.07
				l-1.92,13.3c-1.59,12.84-7.35,19.34-17.44,19.88c-5.97,0-9.4-2.18-10.9-6.87V72.59c0.82,0,1.57-0.47,1.94-1.2l10.9-21.8
				c0.16-0.3,0.24-0.64,0.24-0.98v-4.36c0-1.2-0.98-2.18-2.18-2.18h-2.18c0-1.2-0.98-2.18-2.18-2.18s-2.18,0.98-2.18,2.18v4.36
				c0,1.2,0.98,2.18,2.18,2.18s2.18-0.98,2.18-2.18v1.66l-7.32,14.65c-2.2-1.34-4.96-1.34-7.15,0l-7.32-14.65v-1.66
				c0,1.2,0.98,2.18,2.18,2.18s2.18-0.98,2.18-2.18v-4.36c0-1.2-0.98-2.18-2.18-2.18s-2.18,0.98-2.18,2.18h-2.18
				c-1.2,0-2.18,0.98-2.18,2.18v4.36c0,0.34,0.08,0.68,0.24,0.98l10.9,21.8c0.37,0.73,1.12,1.2,1.94,1.2v10.9
				c-0.03,0.2-0.03,0.41,0,0.61c1.46,4.71,5.19,10.29,15.26,10.29h0.22c12.51-0.68,19.79-8.72,21.67-23.68l1.96-13.71
				C113.72,56.12,115.53,53.62,115.53,50.79z M75.75,66.62l-0.81,1.61h-1.66l-0.81-1.61C73.44,65.89,74.78,65.89,75.75,66.62z
				 M108.99,52.97c-1.2,0-2.18-0.98-2.18-2.18s0.98-2.18,2.18-2.18c1.2,0,2.18,0.98,2.18,2.18S110.2,52.97,108.99,52.97z"/>
		</g>
	</g>
	<g>
		<path class="st1" d="M132.58,84.65h-33.9c-4.72,0-8.57-3.84-8.57-8.57V28.12c0-4.72,3.84-8.57,8.57-8.57h33.9
			c4.72,0,8.57,3.84,8.57,8.57v47.97C141.15,80.81,137.3,84.65,132.58,84.65z M98.67,23.91c-2.32,0-4.21,1.89-4.21,4.21v47.97
			c0,2.32,1.89,4.21,4.21,4.21h33.9c2.32,0,4.21-1.89,4.21-4.21V28.12c0-2.32-1.89-4.21-4.21-4.21H98.67z"/>
	</g>
	<g>
		<path class="st1" d="M131.59,33.12H99.66c-0.49,0-0.89-0.4-0.89-0.89v-2.11c0-0.49,0.4-0.89,0.89-0.89h31.93
			c0.49,0,0.89,0.4,0.89,0.89v2.11C132.48,32.72,132.08,33.12,131.59,33.12z"/>
	</g>
	<g>
		<path class="st1" d="M131.59,41.84H99.66c-0.49,0-0.89-0.4-0.89-0.89v-2.11c0-0.49,0.4-0.89,0.89-0.89h31.93
			c0.49,0,0.89,0.4,0.89,0.89v2.11C132.48,41.44,132.08,41.84,131.59,41.84z"/>
	</g>
	<g>
		<path class="st1" d="M131.59,50.56h-13.02c-0.49,0-0.89-0.4-0.89-0.89v-2.11c0-0.49,0.4-0.89,0.89-0.89h13.02
			c0.49,0,0.89,0.4,0.89,0.89v2.11C132.48,50.16,132.08,50.56,131.59,50.56z"/>
	</g>
</g>
</svg>
