<?xml version="1.0" encoding="utf-8"?>
<!-- Generator: Adobe Illustrator 24.1.0, SVG Export Plug-In . SVG Version: 6.00 Build 0)  -->
<svg version="1.1" id="Layer_1" xmlns="http://www.w3.org/2000/svg" xmlns:xlink="http://www.w3.org/1999/xlink" x="0px" y="0px"
	 viewBox="0 0 200 196.98" style="enable-background:new 0 0 200 196.98;" xml:space="preserve">
<style type="text/css">
	.st0{fill:#E20D18;}
	.st1{fill:#FFFFFF;}
	.st2{fill:#12448B;}
	.st3{fill-rule:evenodd;clip-rule:evenodd;fill:#FFFFFF;}
</style>
<circle class="st0" cx="100" cy="56.97" r="56.97"/>
<g>
	<path class="st2" d="M5.25,142.78c-0.31,0-0.53-0.09-0.66-0.27c-0.13-0.18-0.13-0.42-0.03-0.72l4.21-10.93
		c0.17-0.46,0.5-0.68,1.01-0.68h1.28c0.49,0,0.83,0.23,1.01,0.68l4.27,10.93c0.11,0.3,0.1,0.54-0.03,0.72
		c-0.13,0.18-0.35,0.27-0.66,0.27h-1.17c-0.49,0-0.83-0.23-1.01-0.68l-0.63-1.66H7.98l-0.61,1.64c-0.18,0.47-0.51,0.7-0.99,0.7H5.25
		z M8.54,138.19h3.73l-1.84-5.08L8.54,138.19z"/>
	<path class="st2" d="M22.31,147.01c-1.33,0-2.53-0.28-3.6-0.83c-0.24-0.12-0.38-0.29-0.43-0.5c-0.05-0.22-0.01-0.44,0.13-0.68
		l0.22-0.4c0.26-0.49,0.65-0.6,1.17-0.32c0.36,0.18,0.73,0.32,1.12,0.42c0.38,0.1,0.77,0.15,1.15,0.15c0.49,0,0.95-0.1,1.38-0.29
		c0.43-0.19,0.75-0.5,0.97-0.93c0.22-0.43,0.33-0.92,0.33-1.47v-0.68c-0.16,0.24-0.37,0.48-0.65,0.72
		c-0.28,0.24-0.62,0.43-1.04,0.57s-0.85,0.21-1.3,0.21c-0.62,0-1.21-0.13-1.76-0.38s-1.03-0.6-1.42-1.04
		c-0.4-0.44-0.7-0.96-0.92-1.55c-0.22-0.59-0.32-1.21-0.32-1.85s0.11-1.27,0.32-1.85c0.22-0.59,0.52-1.1,0.92-1.55
		c0.4-0.44,0.87-0.79,1.42-1.04s1.14-0.38,1.76-0.38c0.61,0,1.18,0.13,1.69,0.38s0.94,0.63,1.26,1.13v-0.52
		c0-0.25,0.08-0.45,0.23-0.58s0.37-0.21,0.65-0.21h0.99c0.28,0,0.49,0.08,0.64,0.22c0.15,0.15,0.22,0.36,0.22,0.64v7.7
		c0,1.06-0.2,1.94-0.6,2.65c-0.4,0.71-0.98,1.27-1.74,1.67C24.35,146.81,23.42,147.01,22.31,147.01z M22.38,140.78
		c0.25,0,0.52-0.04,0.79-0.13c0.28-0.09,0.54-0.25,0.79-0.5s0.45-0.55,0.58-0.92c0.14-0.37,0.21-0.73,0.21-1.08
		c0-0.35-0.07-0.71-0.21-1.08c-0.14-0.37-0.33-0.68-0.58-0.92s-0.52-0.41-0.79-0.5c-0.28-0.09-0.54-0.13-0.79-0.13
		s-0.51,0.04-0.78,0.13s-0.53,0.26-0.78,0.5c-0.25,0.25-0.44,0.56-0.57,0.93c-0.13,0.37-0.19,0.73-0.19,1.06
		c0,0.53,0.12,1.01,0.37,1.46c0.25,0.44,0.55,0.75,0.9,0.92C21.69,140.7,22.04,140.78,22.38,140.78z"/>
	<path class="st2" d="M34.43,142.98c-0.79,0-1.52-0.12-2.2-0.37s-1.24-0.59-1.7-1.03c-0.46-0.44-0.82-0.95-1.06-1.54
		c-0.25-0.59-0.37-1.21-0.37-1.85c0-0.64,0.12-1.25,0.36-1.84c0.24-0.59,0.58-1.12,1.03-1.57s0.98-0.8,1.62-1.06
		c0.64-0.26,1.33-0.39,2.07-0.39c0.65,0,1.27,0.1,1.85,0.3c0.59,0.2,1.1,0.49,1.55,0.87c0.44,0.38,0.8,0.86,1.06,1.44
		c0.26,0.58,0.41,1.22,0.45,1.93c0.01,0.25-0.06,0.44-0.23,0.57s-0.38,0.19-0.66,0.19h-6.44c-0.01,0.35,0.1,0.7,0.32,1.04
		c0.23,0.35,0.57,0.62,1.04,0.82c0.46,0.2,0.96,0.3,1.48,0.3c0.71,0,1.39-0.19,2.05-0.56c0.49-0.28,0.9-0.22,1.22,0.18l0.2,0.25
		c0.18,0.22,0.26,0.44,0.23,0.67c-0.02,0.23-0.16,0.43-0.4,0.61C36.96,142.63,35.79,142.98,34.43,142.98z M31.83,137.07h4.64
		c-0.12-0.56-0.39-0.98-0.82-1.24c-0.43-0.26-0.91-0.4-1.45-0.4c-0.38,0-0.76,0.07-1.12,0.22c-0.36,0.14-0.64,0.35-0.85,0.61
		C32.04,136.53,31.91,136.8,31.83,137.07z"/>
	<path class="st2" d="M41.54,142.78c-0.28,0-0.49-0.08-0.64-0.22c-0.15-0.15-0.22-0.36-0.22-0.64v-7.52c0-0.28,0.07-0.49,0.22-0.64
		c0.15-0.15,0.36-0.22,0.64-0.22h1.06c0.28,0,0.49,0.08,0.64,0.22c0.15,0.15,0.23,0.36,0.23,0.64V135c0.23-0.53,0.58-0.94,1.07-1.23
		c0.49-0.29,1.07-0.44,1.74-0.44c0.73,0,1.35,0.17,1.84,0.5s0.88,0.8,1.14,1.41c0.26,0.61,0.4,1.35,0.4,2.21v4.46
		c0,0.28-0.08,0.49-0.23,0.64c-0.16,0.15-0.37,0.22-0.65,0.22h-1.04c-0.28,0-0.49-0.08-0.64-0.22c-0.15-0.15-0.23-0.36-0.23-0.64
		v-4.27c0-0.65-0.13-1.15-0.38-1.51c-0.25-0.36-0.61-0.54-1.08-0.54c-0.23,0-0.49,0.07-0.8,0.2c-0.31,0.13-0.57,0.39-0.8,0.77
		c-0.23,0.38-0.34,0.88-0.34,1.49v3.85c0,0.28-0.08,0.49-0.23,0.64c-0.15,0.15-0.36,0.22-0.64,0.22H41.54z"/>
	<path class="st2" d="M55.67,142.98c-0.47,0-0.92-0.07-1.36-0.21c-0.44-0.14-0.84-0.34-1.2-0.59c-0.36-0.26-0.67-0.57-0.94-0.93
		c-0.26-0.36-0.49-0.8-0.68-1.32c-0.19-0.52-0.29-1.11-0.29-1.77s0.11-1.29,0.33-1.88c0.22-0.59,0.53-1.11,0.93-1.55
		c0.4-0.44,0.87-0.78,1.42-1.03c0.55-0.25,1.15-0.37,1.78-0.37c0.61,0,1.18,0.13,1.69,0.38s0.94,0.63,1.26,1.13v-4.21
		c0-0.28,0.08-0.49,0.23-0.64c0.16-0.15,0.37-0.22,0.65-0.22h1.04c0.28,0,0.49,0.08,0.64,0.22c0.15,0.15,0.22,0.36,0.22,0.64v11.29
		c0,0.28-0.08,0.49-0.22,0.64c-0.15,0.15-0.36,0.22-0.64,0.22H59.5c-0.28,0-0.49-0.08-0.65-0.22c-0.16-0.15-0.23-0.36-0.23-0.64
		v-0.43c-0.32,0.49-0.74,0.86-1.26,1.12S56.28,142.98,55.67,142.98z M56.3,140.74c0.35,0,0.7-0.08,1.06-0.24s0.67-0.46,0.92-0.89
		s0.38-0.92,0.4-1.46c-0.01-0.54-0.14-1.03-0.4-1.46s-0.56-0.73-0.92-0.89c-0.36-0.16-0.71-0.24-1.06-0.24
		c-0.52,0-0.96,0.14-1.33,0.43c-0.37,0.29-0.63,0.64-0.77,1.04c-0.14,0.41-0.21,0.78-0.21,1.12s0.06,0.69,0.19,1.06
		c0.13,0.37,0.31,0.68,0.56,0.91c0.25,0.23,0.5,0.4,0.77,0.49C55.78,140.7,56.04,140.74,56.3,140.74z"/>
	<path class="st2" d="M67.53,142.98c-0.47,0-0.92-0.07-1.35-0.21c-0.43-0.14-0.83-0.34-1.19-0.59c-0.36-0.26-0.67-0.57-0.94-0.93
		c-0.26-0.36-0.49-0.8-0.68-1.32c-0.19-0.52-0.29-1.11-0.29-1.77s0.11-1.29,0.33-1.88c0.22-0.59,0.53-1.11,0.93-1.55
		c0.4-0.44,0.87-0.78,1.42-1.03c0.55-0.25,1.14-0.37,1.76-0.37s1.19,0.13,1.71,0.38s0.94,0.63,1.26,1.13v-0.45
		c0-0.28,0.08-0.49,0.23-0.64c0.15-0.15,0.36-0.22,0.64-0.22h1.06c0.28,0,0.49,0.08,0.64,0.22c0.15,0.15,0.22,0.36,0.22,0.64v7.52
		c0,0.28-0.08,0.49-0.22,0.64c-0.15,0.15-0.36,0.22-0.64,0.22h-1.06c-0.28,0-0.49-0.08-0.64-0.22c-0.15-0.15-0.23-0.36-0.23-0.64
		v-0.43c-0.32,0.49-0.74,0.86-1.26,1.12S68.15,142.98,67.53,142.98z M68.18,140.74c0.35,0,0.7-0.08,1.06-0.24s0.67-0.46,0.92-0.89
		s0.38-0.92,0.38-1.46s-0.13-1.03-0.38-1.46s-0.56-0.73-0.92-0.89c-0.36-0.16-0.71-0.24-1.06-0.24c-0.53,0-0.98,0.14-1.34,0.43
		s-0.62,0.64-0.76,1.04c-0.14,0.41-0.21,0.78-0.21,1.12c0,0.71,0.2,1.32,0.61,1.83S67.46,140.74,68.18,140.74z"/>
	<path class="st2" d="M76.38,142.78c-0.28,0-0.49-0.08-0.64-0.22c-0.15-0.15-0.22-0.36-0.22-0.64v-7.52c0-0.28,0.07-0.49,0.22-0.64
		c0.15-0.15,0.36-0.22,0.64-0.22h1.06c0.28,0,0.49,0.08,0.64,0.22c0.15,0.15,0.23,0.36,0.23,0.64V135c0.18-0.52,0.5-0.92,0.95-1.22
		c0.46-0.3,0.97-0.45,1.55-0.45c0.41,0,0.8,0.07,1.17,0.22c0.37,0.14,0.68,0.35,0.94,0.6s0.44,0.52,0.58,0.78
		c0.22-0.34,0.47-0.63,0.77-0.89c0.29-0.26,0.63-0.44,1-0.55s0.77-0.16,1.21-0.16c0.71,0,1.31,0.17,1.81,0.5s0.89,0.81,1.17,1.43
		s0.42,1.35,0.42,2.21v4.45c0,0.28-0.08,0.49-0.23,0.64c-0.16,0.15-0.37,0.22-0.65,0.22h-1.04c-0.28,0-0.49-0.08-0.64-0.22
		c-0.15-0.15-0.23-0.36-0.23-0.64v-4.32c0-0.64-0.12-1.13-0.36-1.48c-0.24-0.35-0.56-0.52-0.97-0.52c-0.31,0-0.59,0.1-0.84,0.29
		c-0.25,0.19-0.44,0.46-0.58,0.79s-0.22,0.75-0.23,1.24v4c0,0.28-0.07,0.49-0.22,0.64c-0.15,0.15-0.36,0.22-0.64,0.22h-1.06
		c-0.28,0-0.49-0.08-0.64-0.22c-0.15-0.15-0.23-0.36-0.23-0.64v-4.32c0-0.64-0.12-1.13-0.35-1.48c-0.23-0.35-0.55-0.52-0.96-0.52
		c-0.32,0-0.62,0.1-0.87,0.31s-0.46,0.48-0.59,0.83c-0.14,0.35-0.21,0.77-0.21,1.28v3.91c0,0.28-0.08,0.49-0.23,0.64
		c-0.15,0.15-0.36,0.22-0.64,0.22H76.38z"/>
	<path class="st2" d="M96.72,142.98c-0.79,0-1.52-0.12-2.2-0.37s-1.24-0.59-1.7-1.03c-0.46-0.44-0.82-0.95-1.06-1.54
		c-0.25-0.59-0.37-1.21-0.37-1.85c0-0.64,0.12-1.25,0.36-1.84c0.24-0.59,0.58-1.12,1.03-1.57s0.98-0.8,1.62-1.06
		c0.64-0.26,1.33-0.39,2.07-0.39c0.65,0,1.27,0.1,1.85,0.3c0.59,0.2,1.1,0.49,1.55,0.87c0.44,0.38,0.8,0.86,1.06,1.44
		c0.26,0.58,0.41,1.22,0.45,1.93c0.01,0.25-0.06,0.44-0.23,0.57s-0.38,0.19-0.66,0.19h-6.44c-0.01,0.35,0.1,0.7,0.32,1.04
		c0.23,0.35,0.57,0.62,1.04,0.82c0.46,0.2,0.96,0.3,1.48,0.3c0.71,0,1.39-0.19,2.05-0.56c0.49-0.28,0.9-0.22,1.22,0.18l0.2,0.25
		c0.18,0.22,0.26,0.44,0.23,0.67c-0.02,0.23-0.16,0.43-0.4,0.61C99.26,142.63,98.09,142.98,96.72,142.98z M94.13,137.07h4.64
		c-0.12-0.56-0.39-0.98-0.82-1.24c-0.43-0.26-0.91-0.4-1.45-0.4c-0.38,0-0.76,0.07-1.12,0.22c-0.36,0.14-0.64,0.35-0.85,0.61
		C94.34,136.53,94.2,136.8,94.13,137.07z"/>
	<path class="st2" d="M103.83,142.78c-0.28,0-0.49-0.08-0.64-0.22c-0.15-0.15-0.22-0.36-0.22-0.64v-7.52c0-0.28,0.07-0.49,0.22-0.64
		c0.15-0.15,0.36-0.22,0.64-0.22h1.06c0.28,0,0.49,0.08,0.64,0.22c0.15,0.15,0.23,0.36,0.23,0.64V135c0.23-0.53,0.58-0.94,1.07-1.23
		c0.49-0.29,1.07-0.44,1.74-0.44c0.73,0,1.35,0.17,1.84,0.5s0.88,0.8,1.14,1.41c0.26,0.61,0.4,1.35,0.4,2.21v4.46
		c0,0.28-0.08,0.49-0.23,0.64c-0.16,0.15-0.37,0.22-0.65,0.22h-1.04c-0.28,0-0.49-0.08-0.64-0.22c-0.15-0.15-0.23-0.36-0.23-0.64
		v-4.27c0-0.65-0.13-1.15-0.38-1.51c-0.25-0.36-0.61-0.54-1.08-0.54c-0.23,0-0.49,0.07-0.8,0.2c-0.31,0.13-0.57,0.39-0.8,0.77
		c-0.23,0.38-0.34,0.88-0.34,1.49v3.85c0,0.28-0.08,0.49-0.23,0.64c-0.15,0.15-0.36,0.22-0.64,0.22H103.83z"/>
	<path class="st2" d="M117.78,142.98c-1.04,0-1.84-0.29-2.4-0.86c-0.56-0.58-0.84-1.38-0.84-2.41v-4.1h-0.92
		c-0.13,0-0.24-0.04-0.33-0.13s-0.13-0.19-0.13-0.32v-1.17c0-0.13,0.04-0.24,0.13-0.32s0.2-0.13,0.33-0.13h1.13l0.31-1.87
		c0.04-0.18,0.12-0.32,0.24-0.42s0.28-0.15,0.46-0.15h0.88c0.2,0,0.36,0.06,0.47,0.17c0.11,0.11,0.16,0.27,0.16,0.46v1.82h2.09
		c0.13,0,0.24,0.04,0.32,0.13c0.08,0.08,0.13,0.19,0.13,0.32v1.17c0,0.13-0.04,0.24-0.13,0.32c-0.08,0.08-0.19,0.13-0.32,0.13h-2.09
		v4.19c0,0.32,0.07,0.56,0.22,0.72c0.14,0.16,0.32,0.23,0.54,0.23c0.23,0,0.41-0.08,0.56-0.24c0.14-0.16,0.22-0.36,0.22-0.6
		l-0.02-0.32c-0.04-0.32,0.09-0.49,0.38-0.49h1.1c0.12,0,0.23,0.03,0.32,0.09c0.09,0.06,0.15,0.15,0.19,0.27
		c0.07,0.26,0.11,0.5,0.11,0.7c0,0.6-0.12,1.1-0.37,1.51c-0.25,0.41-0.6,0.73-1.05,0.96C119,142.86,118.44,142.98,117.78,142.98z"/>
	<path class="st2" d="M126.71,142.98c-0.71,0-1.38-0.12-2.01-0.37c-0.63-0.25-1.18-0.59-1.65-1.04c-0.47-0.44-0.83-0.96-1.09-1.56
		c-0.26-0.59-0.39-1.21-0.39-1.86c0-0.31,0.04-0.67,0.13-1.07c0.08-0.4,0.24-0.81,0.48-1.22s0.55-0.81,0.96-1.2
		c0.41-0.38,0.93-0.7,1.56-0.95c0.63-0.25,1.3-0.38,2.01-0.38c0.53,0,1.04,0.07,1.54,0.22c0.5,0.14,0.95,0.35,1.37,0.61
		c0.41,0.26,0.8,0.61,1.16,1.03c0.36,0.42,0.63,0.9,0.8,1.44c0.17,0.54,0.26,1.05,0.26,1.53c0,0.31-0.04,0.67-0.13,1.07
		s-0.24,0.81-0.48,1.22c-0.23,0.41-0.55,0.81-0.96,1.2s-0.93,0.7-1.56,0.95S127.42,142.98,126.71,142.98z M126.71,140.73
		c0.68,0,1.27-0.25,1.75-0.75c0.49-0.5,0.73-1.1,0.73-1.81c0-0.72-0.24-1.33-0.73-1.83c-0.49-0.5-1.07-0.75-1.75-0.75
		c-0.7,0-1.28,0.25-1.76,0.75c-0.48,0.5-0.72,1.11-0.72,1.83c0,0.71,0.24,1.31,0.72,1.81C125.43,140.48,126.02,140.73,126.71,140.73
		z"/>
	<path class="st2" d="M138.7,142.78c-0.28,0-0.49-0.08-0.64-0.22c-0.15-0.15-0.22-0.36-0.22-0.64v-7.52c0-0.28,0.07-0.49,0.22-0.64
		c0.15-0.15,0.36-0.22,0.64-0.22h0.99c0.28,0,0.49,0.08,0.64,0.22c0.15,0.15,0.22,0.36,0.22,0.64v1.15c0.07-0.4,0.22-0.77,0.43-1.12
		c0.22-0.35,0.51-0.62,0.89-0.81c0.38-0.19,0.73-0.29,1.07-0.29l0.31,0.02c0.35,0.02,0.52,0.27,0.52,0.74v1.26
		c0,0.24-0.06,0.42-0.17,0.53c-0.11,0.11-0.27,0.16-0.46,0.14l-0.45-0.04c-0.25,0-0.49,0.04-0.71,0.13
		c-0.22,0.08-0.43,0.22-0.62,0.4c-0.19,0.18-0.36,0.47-0.51,0.87c-0.15,0.4-0.22,0.95-0.22,1.63v2.92c0,0.28-0.08,0.49-0.23,0.64
		c-0.15,0.15-0.36,0.22-0.64,0.22H138.7z"/>
	<path class="st2" d="M148.87,142.98c-0.47,0-0.92-0.07-1.35-0.21c-0.43-0.14-0.83-0.34-1.19-0.59c-0.36-0.26-0.67-0.57-0.94-0.93
		c-0.26-0.36-0.49-0.8-0.68-1.32c-0.19-0.52-0.29-1.11-0.29-1.77s0.11-1.29,0.33-1.88c0.22-0.59,0.53-1.11,0.93-1.55
		c0.4-0.44,0.87-0.78,1.42-1.03c0.55-0.25,1.14-0.37,1.76-0.37s1.19,0.13,1.71,0.38s0.94,0.63,1.26,1.13v-0.45
		c0-0.28,0.08-0.49,0.23-0.64c0.15-0.15,0.36-0.22,0.64-0.22h1.06c0.28,0,0.49,0.08,0.64,0.22c0.15,0.15,0.22,0.36,0.22,0.64v7.52
		c0,0.28-0.08,0.49-0.22,0.64c-0.15,0.15-0.36,0.22-0.64,0.22h-1.06c-0.28,0-0.49-0.08-0.64-0.22c-0.15-0.15-0.23-0.36-0.23-0.64
		v-0.43c-0.32,0.49-0.74,0.86-1.26,1.12S149.49,142.98,148.87,142.98z M149.52,140.74c0.35,0,0.7-0.08,1.06-0.24
		s0.67-0.46,0.92-0.89s0.38-0.92,0.38-1.46s-0.13-1.03-0.38-1.46s-0.56-0.73-0.92-0.89c-0.36-0.16-0.71-0.24-1.06-0.24
		c-0.53,0-0.98,0.14-1.34,0.43s-0.62,0.64-0.76,1.04c-0.14,0.41-0.21,0.78-0.21,1.12c0,0.71,0.2,1.32,0.61,1.83
		S148.8,140.74,149.52,140.74z M148.96,132.37c-0.18,0-0.3-0.05-0.36-0.15c-0.06-0.1-0.05-0.23,0.04-0.39l1.1-2.07
		c0.11-0.22,0.29-0.32,0.54-0.32h1.78c0.19,0,0.31,0.06,0.36,0.17s0.01,0.24-0.11,0.39l-1.76,2.12c-0.13,0.17-0.32,0.25-0.56,0.25
		H148.96z"/>
	<path class="st2" d="M157.73,146.81c-0.28,0-0.49-0.08-0.64-0.23c-0.15-0.15-0.22-0.36-0.22-0.64v-11.56
		c0-0.28,0.07-0.49,0.22-0.64c0.15-0.15,0.36-0.22,0.64-0.22h1.06c0.28,0,0.49,0.08,0.64,0.22c0.15,0.15,0.23,0.36,0.23,0.64v0.43
		c0.32-0.49,0.74-0.86,1.26-1.12s1.09-0.38,1.71-0.38s1.21,0.12,1.76,0.37s1.03,0.59,1.42,1.03c0.4,0.44,0.71,0.95,0.93,1.55
		c0.22,0.59,0.33,1.22,0.33,1.88c0,0.49-0.07,1.01-0.22,1.56c-0.14,0.55-0.42,1.09-0.83,1.63c-0.41,0.54-0.92,0.95-1.54,1.22
		c-0.62,0.28-1.24,0.41-1.86,0.41s-1.19-0.13-1.71-0.38s-0.94-0.63-1.26-1.13v4.48c0,0.28-0.08,0.49-0.23,0.64
		c-0.15,0.15-0.36,0.23-0.64,0.23H157.73z M161.97,140.74c0.72,0,1.28-0.25,1.69-0.76s0.61-1.12,0.61-1.83
		c0-0.34-0.07-0.71-0.21-1.12c-0.14-0.41-0.39-0.76-0.76-1.04c-0.37-0.29-0.81-0.43-1.34-0.43c-0.35,0-0.7,0.08-1.06,0.24
		c-0.36,0.16-0.67,0.46-0.92,0.89s-0.38,0.92-0.38,1.46s0.13,1.03,0.38,1.46s0.56,0.73,0.92,0.89S161.62,140.74,161.97,140.74z"/>
	<path class="st2" d="M170.16,132.43c-0.49,0-0.89-0.14-1.21-0.41c-0.31-0.28-0.47-0.62-0.47-1.03c0-0.42,0.15-0.77,0.45-1.04
		c0.3-0.28,0.71-0.41,1.22-0.41c0.37,0,0.7,0.08,0.97,0.24s0.46,0.36,0.56,0.58c0.1,0.23,0.14,0.44,0.14,0.63
		c0,0.41-0.16,0.75-0.47,1.03C171.06,132.29,170.65,132.43,170.16,132.43z M169.64,142.78c-0.28,0-0.49-0.08-0.64-0.22
		c-0.15-0.15-0.22-0.36-0.22-0.64v-7.52c0-0.28,0.07-0.49,0.22-0.64c0.15-0.15,0.36-0.22,0.64-0.22h1.04c0.28,0,0.49,0.08,0.65,0.22
		c0.16,0.15,0.23,0.36,0.23,0.64v7.52c0,0.28-0.08,0.49-0.23,0.64c-0.16,0.15-0.37,0.22-0.65,0.22H169.64z"/>
	<path class="st2" d="M177.72,142.98c-0.47,0-0.92-0.07-1.36-0.21c-0.44-0.14-0.84-0.34-1.2-0.59c-0.36-0.26-0.67-0.57-0.94-0.93
		c-0.26-0.36-0.49-0.8-0.68-1.32c-0.19-0.52-0.29-1.11-0.29-1.77s0.11-1.29,0.33-1.88c0.22-0.59,0.53-1.11,0.93-1.55
		c0.4-0.44,0.87-0.78,1.42-1.03c0.55-0.25,1.15-0.37,1.78-0.37c0.61,0,1.18,0.13,1.69,0.38s0.94,0.63,1.26,1.13v-4.21
		c0-0.28,0.08-0.49,0.23-0.64c0.16-0.15,0.37-0.22,0.65-0.22h1.04c0.28,0,0.49,0.08,0.64,0.22c0.15,0.15,0.22,0.36,0.22,0.64v11.29
		c0,0.28-0.08,0.49-0.22,0.64c-0.15,0.15-0.36,0.22-0.64,0.22h-1.04c-0.28,0-0.49-0.08-0.65-0.22c-0.16-0.15-0.23-0.36-0.23-0.64
		v-0.43c-0.32,0.49-0.74,0.86-1.26,1.12S178.33,142.98,177.72,142.98z M178.35,140.74c0.35,0,0.7-0.08,1.06-0.24
		s0.67-0.46,0.92-0.89s0.38-0.92,0.4-1.46c-0.01-0.54-0.14-1.03-0.4-1.46s-0.56-0.73-0.92-0.89c-0.36-0.16-0.71-0.24-1.06-0.24
		c-0.52,0-0.96,0.14-1.33,0.43c-0.37,0.29-0.63,0.64-0.77,1.04c-0.14,0.41-0.21,0.78-0.21,1.12s0.06,0.69,0.19,1.06
		c0.13,0.37,0.31,0.68,0.56,0.91c0.25,0.23,0.5,0.4,0.77,0.49C177.84,140.7,178.1,140.74,178.35,140.74z"/>
	<path class="st2" d="M190.23,142.98c-0.71,0-1.38-0.12-2.01-0.37c-0.63-0.25-1.18-0.59-1.65-1.04c-0.47-0.44-0.83-0.96-1.09-1.56
		c-0.26-0.59-0.39-1.21-0.39-1.86c0-0.31,0.04-0.67,0.13-1.07c0.08-0.4,0.24-0.81,0.48-1.22s0.55-0.81,0.96-1.2
		c0.41-0.38,0.93-0.7,1.56-0.95c0.63-0.25,1.3-0.38,2.01-0.38c0.53,0,1.04,0.07,1.54,0.22c0.5,0.14,0.95,0.35,1.37,0.61
		c0.41,0.26,0.8,0.61,1.16,1.03c0.36,0.42,0.63,0.9,0.8,1.44c0.17,0.54,0.26,1.05,0.26,1.53c0,0.31-0.04,0.67-0.13,1.07
		s-0.24,0.81-0.48,1.22c-0.23,0.41-0.55,0.81-0.96,1.2s-0.93,0.7-1.56,0.95S190.94,142.98,190.23,142.98z M190.23,140.73
		c0.68,0,1.27-0.25,1.75-0.75c0.49-0.5,0.73-1.1,0.73-1.81c0-0.72-0.24-1.33-0.73-1.83c-0.49-0.5-1.07-0.75-1.75-0.75
		c-0.7,0-1.28,0.25-1.76,0.75c-0.48,0.5-0.72,1.11-0.72,1.83c0,0.71,0.24,1.31,0.72,1.81C188.95,140.48,189.54,140.73,190.23,140.73
		z"/>
	<path class="st2" d="M40.56,163.98c-0.79,0-1.52-0.12-2.2-0.37s-1.24-0.59-1.7-1.03c-0.46-0.44-0.82-0.95-1.06-1.54
		c-0.25-0.59-0.37-1.21-0.37-1.85c0-0.64,0.12-1.25,0.36-1.84c0.24-0.59,0.58-1.12,1.03-1.57s0.98-0.8,1.62-1.06
		c0.64-0.26,1.33-0.39,2.07-0.39c0.65,0,1.27,0.1,1.85,0.3c0.59,0.2,1.1,0.49,1.55,0.87c0.44,0.38,0.8,0.86,1.06,1.44
		c0.26,0.58,0.41,1.22,0.45,1.93c0.01,0.25-0.06,0.44-0.23,0.57s-0.38,0.19-0.66,0.19H37.9c-0.01,0.35,0.1,0.7,0.32,1.04
		c0.23,0.35,0.57,0.62,1.04,0.82c0.46,0.2,0.96,0.3,1.48,0.3c0.71,0,1.39-0.19,2.05-0.56c0.49-0.28,0.9-0.22,1.22,0.18l0.2,0.25
		c0.18,0.22,0.26,0.44,0.23,0.67c-0.02,0.23-0.16,0.43-0.4,0.61C43.1,163.63,41.93,163.98,40.56,163.98z M37.97,158.07h4.64
		c-0.12-0.56-0.39-0.98-0.82-1.24c-0.43-0.26-0.91-0.4-1.45-0.4c-0.38,0-0.76,0.07-1.12,0.22c-0.36,0.14-0.64,0.35-0.85,0.61
		C38.18,157.53,38.04,157.8,37.97,158.07z"/>
	<path class="st2" d="M52.66,163.78c-0.28,0-0.49-0.08-0.64-0.22c-0.15-0.15-0.22-0.36-0.22-0.64v-6.32h-0.83
		c-0.13,0-0.24-0.04-0.32-0.13s-0.13-0.19-0.13-0.32v-1.04c0-0.13,0.04-0.24,0.13-0.32s0.19-0.13,0.32-0.13h0.83v-0.59
		c0-1.13,0.3-1.99,0.9-2.59c0.6-0.6,1.44-0.9,2.52-0.9c0.37,0,0.73,0.04,1.06,0.13s0.65,0.2,0.93,0.36c0.28,0.16,0.54,0.4,0.76,0.73
		s0.34,0.75,0.34,1.25l-0.04,0.29c-0.01,0.1-0.06,0.18-0.14,0.24s-0.18,0.1-0.29,0.1h-1.3c-0.11,0-0.2-0.03-0.27-0.1
		c-0.07-0.07-0.11-0.14-0.11-0.23v-0.11c0-0.17-0.08-0.31-0.23-0.42c-0.15-0.11-0.33-0.17-0.55-0.17c-0.28,0-0.49,0.09-0.65,0.28
		c-0.16,0.19-0.23,0.45-0.23,0.78v0.95h1.62c0.13,0,0.24,0.04,0.32,0.13s0.13,0.19,0.13,0.32v1.04c0,0.13-0.04,0.24-0.13,0.32
		s-0.19,0.13-0.32,0.13h-1.57v6.32c0,0.28-0.08,0.49-0.23,0.64c-0.16,0.15-0.37,0.22-0.65,0.22H52.66z"/>
	<path class="st2" d="M61.89,163.98c-0.47,0-0.92-0.07-1.35-0.21c-0.43-0.14-0.83-0.34-1.19-0.59c-0.36-0.26-0.67-0.57-0.94-0.93
		c-0.26-0.36-0.49-0.8-0.68-1.32c-0.19-0.52-0.29-1.11-0.29-1.77s0.11-1.29,0.33-1.88c0.22-0.59,0.53-1.11,0.93-1.55
		c0.4-0.44,0.87-0.78,1.42-1.03c0.55-0.25,1.14-0.37,1.76-0.37s1.19,0.13,1.71,0.38s0.94,0.63,1.26,1.13v-0.45
		c0-0.28,0.08-0.49,0.23-0.64c0.15-0.15,0.36-0.22,0.64-0.22h1.06c0.28,0,0.49,0.08,0.64,0.22c0.15,0.15,0.22,0.36,0.22,0.64v7.52
		c0,0.28-0.08,0.49-0.22,0.64c-0.15,0.15-0.36,0.22-0.64,0.22h-1.06c-0.28,0-0.49-0.08-0.64-0.22c-0.15-0.15-0.23-0.36-0.23-0.64
		v-0.43c-0.32,0.49-0.74,0.86-1.26,1.12S62.52,163.98,61.89,163.98z M62.54,161.74c0.35,0,0.7-0.08,1.06-0.24s0.67-0.46,0.92-0.89
		s0.38-0.92,0.38-1.46s-0.13-1.03-0.38-1.46s-0.56-0.73-0.92-0.89c-0.36-0.16-0.71-0.24-1.06-0.24c-0.53,0-0.98,0.14-1.34,0.43
		s-0.62,0.64-0.76,1.04c-0.14,0.41-0.21,0.78-0.21,1.12c0,0.71,0.2,1.32,0.61,1.83S61.82,161.74,62.54,161.74z M61.98,153.37
		c-0.18,0-0.3-0.05-0.36-0.15c-0.06-0.1-0.05-0.23,0.04-0.39l1.1-2.07c0.11-0.22,0.29-0.32,0.54-0.32h1.78
		c0.19,0,0.31,0.06,0.36,0.17s0.01,0.24-0.11,0.39l-1.76,2.12c-0.13,0.17-0.32,0.25-0.56,0.25H61.98z"/>
	<path class="st2" d="M74.64,163.98c-0.78,0-1.5-0.12-2.16-0.37s-1.23-0.59-1.7-1.03c-0.47-0.44-0.84-0.95-1.09-1.53
		s-0.38-1.2-0.38-1.85c0-0.66,0.13-1.29,0.38-1.89c0.25-0.6,0.61-1.12,1.08-1.57c0.47-0.44,1.04-0.79,1.7-1.04s1.39-0.38,2.17-0.38
		c1.07,0,2.05,0.26,2.93,0.77c0.23,0.14,0.35,0.33,0.38,0.55c0.02,0.22-0.05,0.45-0.22,0.67l-0.29,0.36
		c-0.12,0.16-0.27,0.27-0.45,0.33c-0.18,0.07-0.44,0.03-0.77-0.12c-0.11-0.05-0.29-0.11-0.56-0.2c-0.26-0.08-0.55-0.13-0.86-0.13
		c-0.78,0-1.43,0.24-1.94,0.72c-0.51,0.48-0.76,1.1-0.76,1.85s0.25,1.37,0.76,1.85c0.51,0.48,1.16,0.72,1.94,0.72
		c0.31,0,0.6-0.04,0.86-0.13c0.26-0.08,0.45-0.15,0.56-0.2c0.26-0.12,0.5-0.17,0.69-0.13c0.2,0.03,0.38,0.15,0.53,0.35l0.29,0.36
		c0.17,0.23,0.23,0.46,0.18,0.7s-0.22,0.44-0.5,0.59C76.58,163.74,75.66,163.98,74.64,163.98z"/>
	<path class="st2" d="M81.15,153.43c-0.49,0-0.89-0.14-1.21-0.41c-0.31-0.28-0.47-0.62-0.47-1.03c0-0.42,0.15-0.77,0.45-1.04
		c0.3-0.28,0.71-0.41,1.22-0.41c0.37,0,0.7,0.08,0.97,0.24s0.46,0.36,0.56,0.58c0.1,0.23,0.14,0.44,0.14,0.63
		c0,0.41-0.16,0.75-0.47,1.03C82.05,153.29,81.65,153.43,81.15,153.43z M80.63,163.78c-0.28,0-0.49-0.08-0.64-0.22
		c-0.15-0.15-0.22-0.36-0.22-0.64v-7.52c0-0.28,0.07-0.49,0.22-0.64c0.15-0.15,0.36-0.22,0.64-0.22h1.04c0.28,0,0.49,0.08,0.65,0.22
		c0.16,0.15,0.23,0.36,0.23,0.64v7.52c0,0.28-0.08,0.49-0.23,0.64c-0.16,0.15-0.37,0.22-0.65,0.22H80.63z"/>
	<path class="st2" d="M85.71,163.78c-0.28,0-0.49-0.08-0.64-0.22c-0.15-0.15-0.22-0.36-0.22-0.64v-11.29c0-0.28,0.07-0.49,0.22-0.64
		c0.15-0.15,0.36-0.22,0.64-0.22h1.04c0.28,0,0.49,0.08,0.65,0.22c0.16,0.15,0.23,0.36,0.23,0.64v11.29c0,0.28-0.08,0.49-0.23,0.64
		c-0.16,0.15-0.37,0.22-0.65,0.22H85.71z"/>
	<path class="st2" d="M95.1,167.81c-0.28,0-0.49-0.08-0.64-0.23c-0.15-0.15-0.22-0.36-0.22-0.64v-11.56c0-0.28,0.07-0.49,0.22-0.64
		c0.15-0.15,0.36-0.22,0.64-0.22h1.06c0.28,0,0.49,0.08,0.64,0.22c0.15,0.15,0.23,0.36,0.23,0.64v0.43
		c0.32-0.49,0.74-0.86,1.26-1.12s1.09-0.38,1.71-0.38s1.21,0.12,1.76,0.37s1.03,0.59,1.42,1.03c0.4,0.44,0.71,0.95,0.93,1.55
		c0.22,0.59,0.33,1.22,0.33,1.88c0,0.49-0.07,1.01-0.22,1.56c-0.14,0.55-0.42,1.09-0.83,1.63c-0.41,0.54-0.92,0.95-1.54,1.22
		c-0.62,0.28-1.24,0.41-1.86,0.41s-1.19-0.13-1.71-0.38s-0.94-0.63-1.26-1.13v4.48c0,0.28-0.08,0.49-0.23,0.64
		c-0.15,0.15-0.36,0.23-0.64,0.23H95.1z M99.35,161.74c0.72,0,1.28-0.25,1.69-0.76s0.61-1.12,0.61-1.83c0-0.34-0.07-0.71-0.21-1.12
		c-0.14-0.41-0.39-0.76-0.76-1.04c-0.37-0.29-0.81-0.43-1.34-0.43c-0.35,0-0.7,0.08-1.06,0.24c-0.36,0.16-0.67,0.46-0.92,0.89
		s-0.38,0.92-0.38,1.46s0.13,1.03,0.38,1.46s0.56,0.73,0.92,0.89S99,161.74,99.35,161.74z"/>
	<path class="st2" d="M110.66,163.98c-0.71,0-1.38-0.12-2.01-0.37c-0.63-0.25-1.18-0.59-1.65-1.04c-0.47-0.44-0.83-0.96-1.09-1.56
		c-0.26-0.59-0.39-1.21-0.39-1.86c0-0.31,0.04-0.67,0.13-1.07c0.08-0.4,0.24-0.81,0.48-1.22s0.55-0.81,0.96-1.2
		c0.41-0.38,0.93-0.7,1.56-0.95c0.63-0.25,1.3-0.38,2.01-0.38c0.53,0,1.04,0.07,1.54,0.22c0.5,0.14,0.95,0.35,1.37,0.61
		c0.41,0.26,0.8,0.61,1.16,1.03c0.36,0.42,0.63,0.9,0.8,1.44c0.17,0.54,0.26,1.05,0.26,1.53c0,0.31-0.04,0.67-0.13,1.07
		s-0.24,0.81-0.48,1.22c-0.23,0.41-0.55,0.81-0.96,1.2s-0.93,0.7-1.56,0.95S111.36,163.98,110.66,163.98z M110.66,161.73
		c0.68,0,1.27-0.25,1.75-0.75c0.49-0.5,0.73-1.1,0.73-1.81c0-0.72-0.24-1.33-0.73-1.83c-0.49-0.5-1.07-0.75-1.75-0.75
		c-0.7,0-1.28,0.25-1.76,0.75c-0.48,0.5-0.72,1.11-0.72,1.83c0,0.71,0.24,1.31,0.72,1.81C109.37,161.48,109.96,161.73,110.66,161.73
		z"/>
	<path class="st2" d="M118.29,163.78c-0.28,0-0.49-0.08-0.64-0.22c-0.15-0.15-0.22-0.36-0.22-0.64v-7.52c0-0.28,0.07-0.49,0.22-0.64
		c0.15-0.15,0.36-0.22,0.64-0.22h0.99c0.28,0,0.49,0.08,0.64,0.22c0.15,0.15,0.22,0.36,0.22,0.64v1.15c0.07-0.4,0.22-0.77,0.43-1.12
		c0.22-0.35,0.51-0.62,0.89-0.81c0.38-0.19,0.73-0.29,1.07-0.29l0.31,0.02c0.35,0.02,0.52,0.27,0.52,0.74v1.26
		c0,0.24-0.06,0.42-0.17,0.53c-0.11,0.11-0.27,0.16-0.46,0.14l-0.45-0.04c-0.25,0-0.49,0.04-0.71,0.13
		c-0.22,0.08-0.43,0.22-0.62,0.4c-0.19,0.18-0.36,0.47-0.51,0.87c-0.15,0.4-0.22,0.95-0.22,1.63v2.92c0,0.28-0.08,0.49-0.23,0.64
		c-0.15,0.15-0.36,0.22-0.64,0.22H118.29z"/>
	<path class="st2" d="M131.77,163.98c-0.83,0-1.56-0.16-2.19-0.48c-0.63-0.32-1.1-0.78-1.4-1.38c-0.13-0.25-0.14-0.48-0.03-0.67
		c0.11-0.2,0.31-0.33,0.6-0.41l0.56-0.13c0.11-0.02,0.23-0.03,0.38-0.02c0.14,0.01,0.38,0.18,0.7,0.5c0.16,0.17,0.36,0.3,0.6,0.4
		c0.25,0.1,0.51,0.14,0.78,0.14c0.35,0,0.63-0.08,0.85-0.22c0.22-0.15,0.33-0.35,0.33-0.59c0-0.14-0.05-0.28-0.14-0.4
		c-0.1-0.13-0.34-0.26-0.72-0.41l-1.13-0.4c-1.74-0.56-2.61-1.46-2.61-2.68c0-0.85,0.32-1.55,0.97-2.1
		c0.65-0.55,1.47-0.82,2.47-0.82c0.62,0,1.19,0.11,1.7,0.34c0.51,0.23,0.93,0.58,1.25,1.06c0.17,0.25,0.2,0.49,0.1,0.7
		c-0.1,0.22-0.3,0.36-0.6,0.43l-0.5,0.13c-0.17,0.05-0.33,0.05-0.48,0.02c-0.15-0.04-0.34-0.16-0.57-0.36
		c-0.23-0.23-0.53-0.34-0.9-0.34c-0.28,0-0.5,0.08-0.67,0.23c-0.17,0.16-0.26,0.34-0.26,0.56c0,0.13,0.05,0.26,0.16,0.39
		c0.11,0.13,0.34,0.25,0.68,0.37l1.15,0.43c0.58,0.19,1.05,0.42,1.42,0.68s0.66,0.57,0.87,0.93s0.32,0.75,0.33,1.18
		c0,0.58-0.15,1.08-0.45,1.5c-0.3,0.43-0.73,0.77-1.29,1.02C133.2,163.85,132.54,163.98,131.77,163.98z"/>
	<path class="st2" d="M138.56,153.43c-0.49,0-0.89-0.14-1.21-0.41c-0.31-0.28-0.47-0.62-0.47-1.03c0-0.42,0.15-0.77,0.45-1.04
		c0.3-0.28,0.71-0.41,1.22-0.41c0.37,0,0.7,0.08,0.97,0.24s0.46,0.36,0.56,0.58c0.1,0.23,0.14,0.44,0.14,0.63
		c0,0.41-0.16,0.75-0.47,1.03C139.45,153.29,139.05,153.43,138.56,153.43z M138.03,163.78c-0.28,0-0.49-0.08-0.64-0.22
		c-0.15-0.15-0.22-0.36-0.22-0.64v-7.52c0-0.28,0.07-0.49,0.22-0.64c0.15-0.15,0.36-0.22,0.64-0.22h1.04c0.28,0,0.49,0.08,0.65,0.22
		c0.16,0.15,0.23,0.36,0.23,0.64v7.52c0,0.28-0.08,0.49-0.23,0.64c-0.16,0.15-0.37,0.22-0.65,0.22H138.03z"/>
	<path class="st2" d="M146.04,163.98c-1.04,0-1.84-0.29-2.4-0.86c-0.56-0.58-0.84-1.38-0.84-2.41v-4.1h-0.92
		c-0.13,0-0.24-0.04-0.33-0.13s-0.13-0.19-0.13-0.32v-1.17c0-0.13,0.04-0.24,0.13-0.32s0.2-0.13,0.33-0.13h1.13l0.31-1.87
		c0.04-0.18,0.12-0.32,0.24-0.42s0.28-0.15,0.46-0.15h0.88c0.2,0,0.36,0.06,0.47,0.17c0.11,0.11,0.16,0.27,0.16,0.46v1.82h2.09
		c0.13,0,0.24,0.04,0.32,0.13c0.08,0.08,0.13,0.19,0.13,0.32v1.17c0,0.13-0.04,0.24-0.13,0.32c-0.08,0.08-0.19,0.13-0.32,0.13h-2.09
		v4.19c0,0.32,0.07,0.56,0.22,0.72c0.14,0.16,0.32,0.23,0.54,0.23c0.23,0,0.41-0.08,0.56-0.24c0.14-0.16,0.22-0.36,0.22-0.6
		l-0.02-0.32c-0.04-0.32,0.09-0.49,0.38-0.49h1.1c0.12,0,0.23,0.03,0.32,0.09c0.09,0.06,0.15,0.15,0.19,0.27
		c0.07,0.26,0.11,0.5,0.11,0.7c0,0.6-0.12,1.1-0.37,1.51c-0.25,0.41-0.6,0.73-1.05,0.96C147.26,163.86,146.7,163.98,146.04,163.98z"
		/>
	<path class="st2" d="M155.19,163.98c-0.79,0-1.52-0.12-2.2-0.37s-1.24-0.59-1.7-1.03c-0.46-0.44-0.82-0.95-1.06-1.54
		c-0.25-0.59-0.37-1.21-0.37-1.85c0-0.64,0.12-1.25,0.36-1.84c0.24-0.59,0.58-1.12,1.03-1.57s0.98-0.8,1.62-1.06
		c0.64-0.26,1.33-0.39,2.07-0.39c0.65,0,1.27,0.1,1.85,0.3c0.59,0.2,1.1,0.49,1.55,0.87c0.44,0.38,0.8,0.86,1.06,1.44
		c0.26,0.58,0.41,1.22,0.45,1.93c0.01,0.25-0.06,0.44-0.23,0.57s-0.38,0.19-0.66,0.19h-6.44c-0.01,0.35,0.1,0.7,0.32,1.04
		c0.23,0.35,0.57,0.62,1.04,0.82c0.46,0.2,0.96,0.3,1.48,0.3c0.71,0,1.39-0.19,2.05-0.56c0.49-0.28,0.9-0.22,1.22,0.18l0.2,0.25
		c0.18,0.22,0.26,0.44,0.23,0.67c-0.02,0.23-0.16,0.43-0.4,0.61C157.72,163.63,156.56,163.98,155.19,163.98z M152.6,158.07h4.64
		c-0.12-0.56-0.39-0.98-0.82-1.24c-0.43-0.26-0.91-0.4-1.45-0.4c-0.38,0-0.76,0.07-1.12,0.22c-0.36,0.14-0.64,0.35-0.85,0.61
		C152.8,157.53,152.67,157.8,152.6,158.07z"/>
	<path class="st2" d="M161.9,166.44c-0.12,0.06-0.23,0.07-0.34,0.04c-0.11-0.04-0.2-0.11-0.27-0.22l-0.09-0.14
		c-0.07-0.13-0.09-0.25-0.06-0.36c0.03-0.11,0.1-0.2,0.22-0.27c0.37-0.23,0.68-0.53,0.92-0.92s0.37-0.74,0.38-1.08l-0.27,0.02
		c-0.28-0.01-0.52-0.1-0.72-0.26s-0.34-0.34-0.42-0.55s-0.12-0.38-0.12-0.52c0-0.32,0.08-0.62,0.24-0.87s0.38-0.44,0.64-0.55
		c0.26-0.11,0.52-0.16,0.77-0.16c0.3,0,0.58,0.07,0.85,0.22c0.26,0.15,0.47,0.38,0.6,0.7s0.21,0.62,0.21,0.89
		c0,0.6-0.14,1.2-0.42,1.8c-0.28,0.6-0.62,1.08-1.02,1.45C162.6,166.03,162.24,166.29,161.9,166.44z"/>
	<path class="st2" d="M6.56,184.98c-0.47,0-0.92-0.07-1.35-0.21c-0.43-0.14-0.83-0.34-1.19-0.59c-0.36-0.26-0.67-0.57-0.94-0.93
		c-0.26-0.36-0.49-0.8-0.68-1.32c-0.19-0.52-0.29-1.11-0.29-1.77s0.11-1.29,0.33-1.88c0.22-0.59,0.53-1.11,0.93-1.55
		c0.4-0.44,0.87-0.78,1.42-1.03c0.55-0.25,1.14-0.37,1.76-0.37s1.19,0.13,1.71,0.38s0.94,0.63,1.26,1.13v-0.45
		c0-0.28,0.08-0.49,0.23-0.64c0.15-0.15,0.36-0.22,0.64-0.22h1.06c0.28,0,0.49,0.08,0.64,0.22c0.15,0.15,0.22,0.36,0.22,0.64v7.52
		c0,0.28-0.08,0.49-0.22,0.64c-0.15,0.15-0.36,0.22-0.64,0.22H10.4c-0.28,0-0.49-0.08-0.64-0.22c-0.15-0.15-0.23-0.36-0.23-0.64
		v-0.43c-0.32,0.49-0.74,0.86-1.26,1.12S7.19,184.98,6.56,184.98z M7.21,182.74c0.35,0,0.7-0.08,1.06-0.24s0.67-0.46,0.92-0.89
		s0.38-0.92,0.38-1.46s-0.13-1.03-0.38-1.46s-0.56-0.73-0.92-0.89c-0.36-0.16-0.71-0.24-1.06-0.24c-0.53,0-0.98,0.14-1.34,0.43
		s-0.62,0.64-0.76,1.04c-0.14,0.41-0.21,0.78-0.21,1.12c0,0.71,0.2,1.32,0.61,1.83S6.49,182.74,7.21,182.74z"/>
	<path class="st2" d="M15.42,188.81c-0.28,0-0.49-0.08-0.64-0.23c-0.15-0.15-0.22-0.36-0.22-0.64v-11.56c0-0.28,0.07-0.49,0.22-0.64
		c0.15-0.15,0.36-0.22,0.64-0.22h1.06c0.28,0,0.49,0.08,0.64,0.22c0.15,0.15,0.23,0.36,0.23,0.64v0.43
		c0.32-0.49,0.74-0.86,1.26-1.12s1.09-0.38,1.71-0.38s1.21,0.12,1.76,0.37s1.03,0.59,1.42,1.03c0.4,0.44,0.71,0.95,0.93,1.55
		c0.22,0.59,0.33,1.22,0.33,1.88c0,0.49-0.07,1.01-0.22,1.56c-0.14,0.55-0.42,1.09-0.83,1.63c-0.41,0.54-0.92,0.95-1.54,1.22
		c-0.62,0.28-1.24,0.41-1.86,0.41s-1.19-0.13-1.71-0.38s-0.94-0.63-1.26-1.13v4.48c0,0.28-0.08,0.49-0.23,0.64
		c-0.15,0.15-0.36,0.23-0.64,0.23H15.42z M19.67,182.74c0.72,0,1.28-0.25,1.69-0.76s0.61-1.12,0.61-1.83c0-0.34-0.07-0.71-0.21-1.12
		c-0.14-0.41-0.39-0.76-0.76-1.04c-0.37-0.29-0.81-0.43-1.34-0.43c-0.35,0-0.7,0.08-1.06,0.24c-0.36,0.16-0.67,0.46-0.92,0.89
		s-0.38,0.92-0.38,1.46s0.13,1.03,0.38,1.46s0.56,0.73,0.92,0.89S19.32,182.74,19.67,182.74z"/>
	<path class="st2" d="M27.33,184.78c-0.28,0-0.49-0.08-0.64-0.22c-0.15-0.15-0.22-0.36-0.22-0.64v-11.29c0-0.28,0.07-0.49,0.22-0.64
		c0.15-0.15,0.36-0.22,0.64-0.22h1.04c0.28,0,0.49,0.08,0.65,0.22c0.16,0.15,0.23,0.36,0.23,0.64v11.29c0,0.28-0.08,0.49-0.23,0.64
		c-0.16,0.15-0.37,0.22-0.65,0.22H27.33z"/>
	<path class="st2" d="M32.93,174.43c-0.49,0-0.89-0.14-1.21-0.41c-0.31-0.28-0.47-0.62-0.47-1.03c0-0.42,0.15-0.77,0.45-1.04
		c0.3-0.28,0.71-0.41,1.22-0.41c0.37,0,0.7,0.08,0.97,0.24s0.46,0.36,0.56,0.58c0.1,0.23,0.14,0.44,0.14,0.63
		c0,0.41-0.16,0.75-0.47,1.03C33.83,174.29,33.43,174.43,32.93,174.43z M32.41,184.78c-0.28,0-0.49-0.08-0.64-0.22
		c-0.15-0.15-0.22-0.36-0.22-0.64v-7.52c0-0.28,0.07-0.49,0.22-0.64c0.15-0.15,0.36-0.22,0.64-0.22h1.04c0.28,0,0.49,0.08,0.65,0.22
		c0.16,0.15,0.23,0.36,0.23,0.64v7.52c0,0.28-0.08,0.49-0.23,0.64c-0.16,0.15-0.37,0.22-0.65,0.22H32.41z"/>
	<path class="st2" d="M41.34,184.98c-0.78,0-1.5-0.12-2.16-0.37s-1.23-0.59-1.7-1.03c-0.47-0.44-0.84-0.95-1.09-1.53
		s-0.38-1.2-0.38-1.85c0-0.66,0.13-1.29,0.38-1.89c0.25-0.6,0.61-1.12,1.08-1.57c0.47-0.44,1.04-0.79,1.7-1.04s1.39-0.38,2.17-0.38
		c1.07,0,2.05,0.26,2.93,0.77c0.23,0.14,0.35,0.33,0.38,0.55c0.02,0.22-0.05,0.45-0.22,0.67l-0.29,0.36
		c-0.12,0.16-0.27,0.27-0.45,0.33c-0.18,0.07-0.44,0.03-0.77-0.12c-0.11-0.05-0.29-0.11-0.56-0.2c-0.26-0.08-0.55-0.13-0.86-0.13
		c-0.78,0-1.43,0.24-1.94,0.72c-0.51,0.48-0.76,1.1-0.76,1.85s0.25,1.37,0.76,1.85c0.51,0.48,1.16,0.72,1.94,0.72
		c0.31,0,0.6-0.04,0.86-0.13c0.26-0.08,0.45-0.15,0.56-0.2c0.26-0.12,0.5-0.17,0.69-0.13c0.2,0.03,0.38,0.15,0.53,0.35l0.29,0.36
		c0.17,0.23,0.23,0.46,0.18,0.7s-0.22,0.44-0.5,0.59C43.28,184.74,42.36,184.98,41.34,184.98z"/>
	<path class="st2" d="M50.14,184.98c-0.47,0-0.92-0.07-1.35-0.21c-0.43-0.14-0.83-0.34-1.19-0.59c-0.36-0.26-0.67-0.57-0.94-0.93
		c-0.26-0.36-0.49-0.8-0.68-1.32c-0.19-0.52-0.29-1.11-0.29-1.77s0.11-1.29,0.33-1.88c0.22-0.59,0.53-1.11,0.93-1.55
		c0.4-0.44,0.87-0.78,1.42-1.03c0.55-0.25,1.14-0.37,1.76-0.37s1.19,0.13,1.71,0.38s0.94,0.63,1.26,1.13v-0.45
		c0-0.28,0.08-0.49,0.23-0.64c0.15-0.15,0.36-0.22,0.64-0.22h1.06c0.28,0,0.49,0.08,0.64,0.22c0.15,0.15,0.22,0.36,0.22,0.64v7.52
		c0,0.28-0.08,0.49-0.22,0.64c-0.15,0.15-0.36,0.22-0.64,0.22h-1.06c-0.28,0-0.49-0.08-0.64-0.22c-0.15-0.15-0.23-0.36-0.23-0.64
		v-0.43c-0.32,0.49-0.74,0.86-1.26,1.12S50.76,184.98,50.14,184.98z M50.79,182.74c0.35,0,0.7-0.08,1.06-0.24s0.67-0.46,0.92-0.89
		s0.38-0.92,0.38-1.46s-0.13-1.03-0.38-1.46s-0.56-0.73-0.92-0.89c-0.36-0.16-0.71-0.24-1.06-0.24c-0.53,0-0.98,0.14-1.34,0.43
		s-0.62,0.64-0.76,1.04c-0.14,0.41-0.21,0.78-0.21,1.12c0,0.71,0.2,1.32,0.61,1.83S50.07,182.74,50.79,182.74z"/>
	<path class="st2" d="M61.97,184.98c-1.04,0-1.84-0.29-2.4-0.86c-0.56-0.58-0.84-1.38-0.84-2.41v-4.1h-0.92
		c-0.13,0-0.24-0.04-0.33-0.13s-0.13-0.19-0.13-0.32v-1.17c0-0.13,0.04-0.24,0.13-0.32s0.2-0.13,0.33-0.13h1.13l0.31-1.87
		c0.04-0.18,0.12-0.32,0.24-0.42s0.28-0.15,0.46-0.15h0.88c0.2,0,0.36,0.06,0.47,0.17c0.11,0.11,0.16,0.27,0.16,0.46v1.82h2.09
		c0.13,0,0.24,0.04,0.32,0.13c0.08,0.08,0.13,0.19,0.13,0.32v1.17c0,0.13-0.04,0.24-0.13,0.32c-0.08,0.08-0.19,0.13-0.32,0.13h-2.09
		v4.19c0,0.32,0.07,0.56,0.22,0.72c0.14,0.16,0.32,0.23,0.54,0.23c0.23,0,0.41-0.08,0.56-0.24c0.14-0.16,0.22-0.36,0.22-0.6
		l-0.02-0.32c-0.04-0.32,0.09-0.49,0.38-0.49h1.1c0.12,0,0.23,0.03,0.32,0.09c0.09,0.06,0.15,0.15,0.19,0.27
		c0.07,0.26,0.11,0.5,0.11,0.7c0,0.6-0.12,1.1-0.37,1.51c-0.25,0.41-0.6,0.73-1.05,0.96C63.18,184.86,62.63,184.98,61.97,184.98z"/>
	<path class="st2" d="M67.78,174.43c-0.49,0-0.89-0.14-1.21-0.41c-0.31-0.28-0.47-0.62-0.47-1.03c0-0.42,0.15-0.77,0.45-1.04
		c0.3-0.28,0.71-0.41,1.22-0.41c0.37,0,0.7,0.08,0.97,0.24s0.46,0.36,0.56,0.58c0.1,0.23,0.14,0.44,0.14,0.63
		c0,0.41-0.16,0.75-0.47,1.03C68.67,174.29,68.27,174.43,67.78,174.43z M67.26,184.78c-0.28,0-0.49-0.08-0.64-0.22
		c-0.15-0.15-0.22-0.36-0.22-0.64v-7.52c0-0.28,0.07-0.49,0.22-0.64c0.15-0.15,0.36-0.22,0.64-0.22h1.04c0.28,0,0.49,0.08,0.65,0.22
		c0.16,0.15,0.23,0.36,0.23,0.64v7.52c0,0.28-0.08,0.49-0.23,0.64c-0.16,0.15-0.37,0.22-0.65,0.22H67.26z"/>
	<path class="st2" d="M75.11,184.78c-0.49,0-0.83-0.22-1.03-0.67l-3.17-7.58c-0.12-0.29-0.12-0.53,0-0.72s0.34-0.29,0.67-0.29h1.15
		c0.5,0,0.83,0.23,0.99,0.7l1.98,5.53l2-5.53c0.17-0.47,0.5-0.7,0.99-0.7h1.17c0.32,0,0.55,0.1,0.67,0.29s0.12,0.43,0,0.72
		l-3.17,7.58c-0.18,0.44-0.52,0.67-1.01,0.67H75.11z"/>
	<path class="st2" d="M86.34,184.98c-0.71,0-1.38-0.12-2.01-0.37c-0.63-0.25-1.18-0.59-1.65-1.04c-0.47-0.44-0.83-0.96-1.09-1.56
		c-0.26-0.59-0.39-1.21-0.39-1.86c0-0.31,0.04-0.67,0.13-1.07c0.08-0.4,0.24-0.81,0.48-1.22s0.55-0.81,0.96-1.2
		c0.41-0.38,0.93-0.7,1.56-0.95c0.63-0.25,1.3-0.38,2.01-0.38c0.53,0,1.04,0.07,1.54,0.22c0.5,0.14,0.95,0.35,1.37,0.61
		c0.41,0.26,0.8,0.61,1.16,1.03c0.36,0.42,0.63,0.9,0.8,1.44c0.17,0.54,0.26,1.05,0.26,1.53c0,0.31-0.04,0.67-0.13,1.07
		s-0.24,0.81-0.48,1.22c-0.23,0.41-0.55,0.81-0.96,1.2s-0.93,0.7-1.56,0.95S87.05,184.98,86.34,184.98z M86.34,182.73
		c0.68,0,1.27-0.25,1.75-0.75c0.49-0.5,0.73-1.1,0.73-1.81c0-0.72-0.24-1.33-0.73-1.83c-0.49-0.5-1.07-0.75-1.75-0.75
		c-0.7,0-1.28,0.25-1.76,0.75c-0.48,0.5-0.72,1.11-0.72,1.83c0,0.71,0.24,1.31,0.72,1.81C85.05,182.48,85.64,182.73,86.34,182.73z"
		/>
	<path class="st2" d="M102,184.98c-0.71,0-1.38-0.12-2.01-0.37c-0.63-0.25-1.18-0.59-1.65-1.04c-0.47-0.44-0.83-0.96-1.09-1.56
		c-0.26-0.59-0.39-1.21-0.39-1.86c0-0.31,0.04-0.67,0.13-1.07c0.08-0.4,0.24-0.81,0.48-1.22s0.55-0.81,0.96-1.2
		c0.41-0.38,0.93-0.7,1.56-0.95c0.63-0.25,1.3-0.38,2.01-0.38c0.53,0,1.04,0.07,1.54,0.22c0.5,0.14,0.95,0.35,1.37,0.61
		c0.41,0.26,0.8,0.61,1.16,1.03c0.36,0.42,0.63,0.9,0.8,1.44c0.17,0.54,0.26,1.05,0.26,1.53c0,0.31-0.04,0.67-0.13,1.07
		s-0.24,0.81-0.48,1.22c-0.23,0.41-0.55,0.81-0.96,1.2s-0.93,0.7-1.56,0.95S102.71,184.98,102,184.98z M102,182.73
		c0.68,0,1.27-0.25,1.75-0.75c0.49-0.5,0.73-1.1,0.73-1.81c0-0.72-0.24-1.33-0.73-1.83c-0.49-0.5-1.07-0.75-1.75-0.75
		c-0.7,0-1.28,0.25-1.76,0.75c-0.48,0.5-0.72,1.11-0.72,1.83c0,0.71,0.24,1.31,0.72,1.81C100.71,182.48,101.3,182.73,102,182.73z"/>
	<path class="st2" d="M112.01,184.98c-0.73,0-1.34-0.17-1.84-0.5s-0.87-0.8-1.13-1.41s-0.4-1.35-0.4-2.21v-4.46
		c0-0.28,0.07-0.49,0.22-0.64c0.15-0.15,0.36-0.22,0.64-0.22h1.06c0.28,0,0.49,0.08,0.64,0.22c0.15,0.15,0.23,0.36,0.23,0.64v4.27
		c0,0.48,0.07,0.88,0.22,1.21c0.14,0.33,0.33,0.56,0.57,0.67c0.23,0.12,0.46,0.18,0.67,0.18c0.36,0,0.69-0.11,1-0.32
		c0.31-0.22,0.54-0.5,0.7-0.86c0.16-0.36,0.24-0.79,0.24-1.3v-3.85c0-0.28,0.08-0.49,0.23-0.64c0.15-0.15,0.36-0.22,0.64-0.22h1.04
		c0.28,0,0.49,0.08,0.65,0.22c0.16,0.15,0.23,0.36,0.23,0.64v7.52c0,0.28-0.08,0.49-0.23,0.64c-0.16,0.15-0.37,0.22-0.65,0.22h-1.04
		c-0.28,0-0.49-0.08-0.64-0.22c-0.15-0.15-0.23-0.36-0.23-0.64v-0.59c-0.23,0.52-0.59,0.92-1.08,1.21S112.68,184.98,112.01,184.98z"
		/>
	<path class="st2" d="M128.04,184.98c-1.04,0-1.84-0.29-2.4-0.86c-0.56-0.58-0.84-1.38-0.84-2.41v-4.1h-0.92
		c-0.13,0-0.24-0.04-0.33-0.13s-0.13-0.19-0.13-0.32v-1.17c0-0.13,0.04-0.24,0.13-0.32s0.2-0.13,0.33-0.13h1.13l0.31-1.87
		c0.04-0.18,0.12-0.32,0.24-0.42s0.28-0.15,0.46-0.15h0.88c0.2,0,0.36,0.06,0.47,0.17c0.11,0.11,0.16,0.27,0.16,0.46v1.82h2.09
		c0.13,0,0.24,0.04,0.32,0.13c0.08,0.08,0.13,0.19,0.13,0.32v1.17c0,0.13-0.04,0.24-0.13,0.32c-0.08,0.08-0.19,0.13-0.32,0.13h-2.09
		v4.19c0,0.32,0.07,0.56,0.22,0.72c0.14,0.16,0.32,0.23,0.54,0.23c0.23,0,0.41-0.08,0.56-0.24c0.14-0.16,0.22-0.36,0.22-0.6
		l-0.02-0.32c-0.04-0.32,0.09-0.49,0.38-0.49h1.1c0.12,0,0.23,0.03,0.32,0.09c0.09,0.06,0.15,0.15,0.19,0.27
		c0.07,0.26,0.11,0.5,0.11,0.7c0,0.6-0.12,1.1-0.37,1.51c-0.25,0.41-0.6,0.73-1.05,0.96C129.26,184.86,128.7,184.98,128.04,184.98z"
		/>
	<path class="st2" d="M137.19,184.98c-0.79,0-1.52-0.12-2.2-0.37s-1.24-0.59-1.7-1.03c-0.46-0.44-0.82-0.95-1.06-1.54
		c-0.25-0.59-0.37-1.21-0.37-1.85c0-0.64,0.12-1.25,0.36-1.84c0.24-0.59,0.58-1.12,1.03-1.57s0.98-0.8,1.62-1.06
		c0.64-0.26,1.33-0.39,2.07-0.39c0.65,0,1.27,0.1,1.85,0.3c0.59,0.2,1.1,0.49,1.55,0.87c0.44,0.38,0.8,0.86,1.06,1.44
		c0.26,0.58,0.41,1.22,0.45,1.93c0.01,0.25-0.06,0.44-0.23,0.57s-0.38,0.19-0.66,0.19h-6.44c-0.01,0.35,0.1,0.7,0.32,1.04
		c0.23,0.35,0.57,0.62,1.04,0.82c0.46,0.2,0.96,0.3,1.48,0.3c0.71,0,1.39-0.19,2.05-0.56c0.49-0.28,0.9-0.22,1.22,0.18l0.2,0.25
		c0.18,0.22,0.26,0.44,0.23,0.67c-0.02,0.23-0.16,0.43-0.4,0.61C139.72,184.63,138.56,184.98,137.19,184.98z M134.6,179.07h4.64
		c-0.12-0.56-0.39-0.98-0.82-1.24c-0.43-0.26-0.91-0.4-1.45-0.4c-0.38,0-0.76,0.07-1.12,0.22c-0.36,0.14-0.64,0.35-0.85,0.61
		C134.8,178.53,134.67,178.8,134.6,179.07z"/>
	<path class="st2" d="M144.33,184.78c-0.28,0-0.49-0.08-0.64-0.22c-0.15-0.15-0.22-0.36-0.22-0.64v-11.29
		c0-0.28,0.07-0.49,0.22-0.64c0.15-0.15,0.36-0.22,0.64-0.22h1.04c0.28,0,0.49,0.08,0.65,0.22c0.16,0.15,0.23,0.36,0.23,0.64v11.29
		c0,0.28-0.08,0.49-0.23,0.64c-0.16,0.15-0.37,0.22-0.65,0.22H144.33z"/>
	<path class="st2" d="M153.26,184.98c-0.79,0-1.52-0.12-2.2-0.37s-1.24-0.59-1.7-1.03c-0.46-0.44-0.82-0.95-1.06-1.54
		c-0.25-0.59-0.37-1.21-0.37-1.85c0-0.64,0.12-1.25,0.36-1.84c0.24-0.59,0.58-1.12,1.03-1.57s0.98-0.8,1.62-1.06
		c0.64-0.26,1.33-0.39,2.07-0.39c0.65,0,1.27,0.1,1.85,0.3c0.59,0.2,1.1,0.49,1.55,0.87c0.44,0.38,0.8,0.86,1.06,1.44
		c0.26,0.58,0.41,1.22,0.45,1.93c0.01,0.25-0.06,0.44-0.23,0.57s-0.38,0.19-0.66,0.19h-6.44c-0.01,0.35,0.1,0.7,0.32,1.04
		c0.23,0.35,0.57,0.62,1.04,0.82c0.46,0.2,0.96,0.3,1.48,0.3c0.71,0,1.39-0.19,2.05-0.56c0.49-0.28,0.9-0.22,1.22,0.18l0.2,0.25
		c0.18,0.22,0.26,0.44,0.23,0.67c-0.02,0.23-0.16,0.43-0.4,0.61C155.79,184.63,154.63,184.98,153.26,184.98z M150.67,179.07h4.64
		c-0.12-0.56-0.39-0.98-0.82-1.24c-0.43-0.26-0.91-0.4-1.45-0.4c-0.38,0-0.76,0.07-1.12,0.22c-0.36,0.14-0.64,0.35-0.85,0.61
		C150.88,178.53,150.74,178.8,150.67,179.07z"/>
	<path class="st2" d="M160.89,184.78c-0.28,0-0.49-0.08-0.64-0.22c-0.15-0.15-0.22-0.36-0.22-0.64v-6.32h-0.83
		c-0.13,0-0.24-0.04-0.32-0.13s-0.13-0.19-0.13-0.32v-1.04c0-0.13,0.04-0.24,0.13-0.32s0.19-0.13,0.32-0.13h0.83v-0.59
		c0-1.13,0.3-1.99,0.9-2.59c0.6-0.6,1.44-0.9,2.52-0.9c0.37,0,0.73,0.04,1.06,0.13s0.65,0.2,0.93,0.36c0.28,0.16,0.54,0.4,0.76,0.73
		s0.34,0.75,0.34,1.25l-0.04,0.29c-0.01,0.1-0.06,0.18-0.14,0.24s-0.18,0.1-0.29,0.1h-1.3c-0.11,0-0.2-0.03-0.27-0.1
		c-0.07-0.07-0.11-0.14-0.11-0.23v-0.11c0-0.17-0.08-0.31-0.23-0.42c-0.15-0.11-0.33-0.17-0.55-0.17c-0.28,0-0.49,0.09-0.65,0.28
		c-0.16,0.19-0.23,0.45-0.23,0.78v0.95h1.62c0.13,0,0.24,0.04,0.32,0.13s0.13,0.19,0.13,0.32v1.04c0,0.13-0.04,0.24-0.13,0.32
		s-0.19,0.13-0.32,0.13h-1.57v6.32c0,0.28-0.08,0.49-0.23,0.64c-0.16,0.15-0.37,0.22-0.65,0.22H160.89z"/>
	<path class="st2" d="M170.7,184.98c-0.71,0-1.38-0.12-2.01-0.37c-0.63-0.25-1.18-0.59-1.65-1.04c-0.47-0.44-0.83-0.96-1.09-1.56
		c-0.26-0.59-0.39-1.21-0.39-1.86c0-0.31,0.04-0.67,0.13-1.07c0.08-0.4,0.24-0.81,0.48-1.22s0.55-0.81,0.96-1.2
		c0.41-0.38,0.93-0.7,1.56-0.95c0.63-0.25,1.3-0.38,2.01-0.38c0.53,0,1.04,0.07,1.54,0.22c0.5,0.14,0.95,0.35,1.37,0.61
		c0.41,0.26,0.8,0.61,1.16,1.03c0.36,0.42,0.63,0.9,0.8,1.44c0.17,0.54,0.26,1.05,0.26,1.53c0,0.31-0.04,0.67-0.13,1.07
		s-0.24,0.81-0.48,1.22c-0.23,0.41-0.55,0.81-0.96,1.2s-0.93,0.7-1.56,0.95S171.41,184.98,170.7,184.98z M170.7,182.73
		c0.68,0,1.27-0.25,1.75-0.75c0.49-0.5,0.73-1.1,0.73-1.81c0-0.72-0.24-1.33-0.73-1.83c-0.49-0.5-1.07-0.75-1.75-0.75
		c-0.7,0-1.28,0.25-1.76,0.75c-0.48,0.5-0.72,1.11-0.72,1.83c0,0.71,0.24,1.31,0.72,1.81C169.42,182.48,170.01,182.73,170.7,182.73z
		"/>
	<path class="st2" d="M178.34,184.78c-0.28,0-0.49-0.08-0.64-0.22c-0.15-0.15-0.22-0.36-0.22-0.64v-7.52c0-0.28,0.07-0.49,0.22-0.64
		c0.15-0.15,0.36-0.22,0.64-0.22h1.06c0.28,0,0.49,0.08,0.64,0.22c0.15,0.15,0.23,0.36,0.23,0.64V177c0.23-0.53,0.58-0.94,1.07-1.23
		c0.49-0.29,1.07-0.44,1.74-0.44c0.73,0,1.35,0.17,1.84,0.5s0.88,0.8,1.14,1.41c0.26,0.61,0.4,1.35,0.4,2.21v4.46
		c0,0.28-0.08,0.49-0.23,0.64c-0.16,0.15-0.37,0.22-0.65,0.22h-1.04c-0.28,0-0.49-0.08-0.64-0.22c-0.15-0.15-0.23-0.36-0.23-0.64
		v-4.27c0-0.65-0.13-1.15-0.38-1.51c-0.25-0.36-0.61-0.54-1.08-0.54c-0.23,0-0.49,0.07-0.8,0.2c-0.31,0.13-0.57,0.39-0.8,0.77
		c-0.23,0.38-0.34,0.88-0.34,1.49v3.85c0,0.28-0.08,0.49-0.23,0.64c-0.15,0.15-0.36,0.22-0.64,0.22H178.34z"/>
	<path class="st2" d="M193.31,184.98c-0.79,0-1.52-0.12-2.2-0.37s-1.24-0.59-1.7-1.03c-0.46-0.44-0.82-0.95-1.06-1.54
		c-0.25-0.59-0.37-1.21-0.37-1.85c0-0.64,0.12-1.25,0.36-1.84c0.24-0.59,0.58-1.12,1.03-1.57s0.98-0.8,1.62-1.06
		c0.64-0.26,1.33-0.39,2.07-0.39c0.65,0,1.27,0.1,1.85,0.3c0.59,0.2,1.1,0.49,1.55,0.87c0.44,0.38,0.8,0.86,1.06,1.44
		c0.26,0.58,0.41,1.22,0.45,1.93c0.01,0.25-0.06,0.44-0.23,0.57s-0.38,0.19-0.66,0.19h-6.44c-0.01,0.35,0.1,0.7,0.32,1.04
		c0.23,0.35,0.57,0.62,1.04,0.82c0.46,0.2,0.96,0.3,1.48,0.3c0.71,0,1.39-0.19,2.05-0.56c0.49-0.28,0.9-0.22,1.22,0.18l0.2,0.25
		c0.18,0.22,0.26,0.44,0.23,0.67c-0.02,0.23-0.16,0.43-0.4,0.61C195.84,184.63,194.68,184.98,193.31,184.98z M190.72,179.07h4.64
		c-0.12-0.56-0.39-0.98-0.82-1.24c-0.43-0.26-0.91-0.4-1.45-0.4c-0.38,0-0.76,0.07-1.12,0.22c-0.36,0.14-0.64,0.35-0.85,0.61
		C190.93,178.53,190.79,178.8,190.72,179.07z"/>
</g>
<g>
	<g>
		<g>
			<g>
				<path class="st1" d="M118.03,63.32c0-2.11-1.71-3.83-3.83-3.83c-0.81,0-1.56,0.25-2.16,0.7c-0.55-1.41-1.96-2.42-3.57-2.42
					c-0.81,0-1.56,0.25-2.16,0.7c-0.55-1.41-1.96-2.42-3.57-2.42c-0.7,0-1.36,0.2-1.91,0.5v-8.76c0-1.01-0.4-1.96-1.11-2.72
					c-0.76-0.76-1.71-1.11-2.72-1.11l0,0c-2.11,0-3.83,1.71-3.83,3.83v19.69l-2.67-2.67c-1.31-1.31-3.37-1.51-4.88-0.45
					c-0.91,0.6-1.51,1.56-1.66,2.67c-0.15,1.06,0.15,2.16,0.86,3.02l7.85,9.47c2.37,2.87,5.84,4.48,9.57,4.48h4.88
					c2.92,0,5.69-1.16,7.75-3.22c2.06-2.06,3.22-4.83,3.22-7.75L118.03,63.32z M113.5,79.43c-1.71,1.71-3.98,2.67-6.39,2.67h-4.88
					c-3.12,0-6.09-1.41-8.06-3.83l-7.9-9.47c-0.35-0.45-0.5-0.96-0.45-1.51c0.1-0.55,0.4-1.06,0.86-1.36
					c0.35-0.2,0.7-0.35,1.11-0.35c0.5,0,1.01,0.2,1.36,0.55l3.17,3.12c0.45,0.45,1.16,0.6,1.76,0.35c0.6-0.25,1.01-0.86,1.01-1.51
					V47.81c0-1.06,0.86-1.91,1.91-1.91l0,0c0.5,0,1.01,0.2,1.36,0.55s0.55,0.86,0.55,1.36v14c0,0.5,0.4,0.96,0.96,0.96
					c0.55,0,0.96-0.4,0.96-0.96v-1.91c0-1.06,0.86-1.91,1.91-1.91c1.06,0,1.91,0.86,1.91,1.91v3.62c0,0.5,0.4,0.96,0.96,0.96
					c0.55,0,0.96-0.4,0.96-0.96V61.6c0-1.06,0.86-1.91,1.91-1.91s1.91,0.86,1.91,1.91v3.62c0,0.5,0.4,0.96,0.96,0.96
					s0.96-0.4,0.96-0.96v-1.81c0-0.05,0-0.1,0-0.1c0-1.06,0.86-1.91,1.91-1.91s1.91,0.86,1.91,1.91v9.72
					C116.11,75.45,115.21,77.71,113.5,79.43z"/>
			</g>
		</g>
		<g>
			<path class="st1" d="M92.43,47.81c0-0.78,0.22-1.51,0.57-2.15c-0.03-0.2-0.06-0.4-0.06-0.61c0-2.26,1.84-4.11,4.1-4.11
				c2.26,0,4.1,1.84,4.1,4.11c0,0.27-0.03,0.54-0.08,0.8c0.3,0.62,0.47,1.28,0.47,1.96v1.23c0.95-1.07,1.54-2.45,1.54-3.99
				c0-3.33-2.71-6.04-6.04-6.04c-3.33,0-6.04,2.71-6.04,6.04c0,1.47,0.55,2.8,1.43,3.85V47.81z"/>
		</g>
		<g>
			<path class="st1" d="M92.43,54.2v-2.19c-2.26-1.5-3.75-4.06-3.75-6.97c0-4.61,3.75-8.36,8.36-8.36s8.36,3.75,8.36,8.36
				c0,2.95-1.55,5.54-3.87,7.03v2.19c3.42-1.68,5.8-5.16,5.8-9.22c0-5.68-4.62-10.3-10.29-10.3c-5.68,0-10.29,4.62-10.29,10.3
				C86.75,49.06,89.08,52.51,92.43,54.2z"/>
		</g>
		<g>
			<path class="st1" d="M92.43,59.44v-2.06c-5-1.87-8.58-6.69-8.58-12.34c0-7.27,5.92-13.19,13.19-13.19
				c7.27,0,13.19,5.92,13.19,13.19c0,4.44-2.21,8.36-5.58,10.75c0.61,0.29,1.16,0.7,1.6,1.21c3.59-2.77,5.91-7.09,5.91-11.96
				c0-8.34-6.78-15.12-15.12-15.12s-15.12,6.78-15.12,15.12C81.92,51.78,86.34,57.49,92.43,59.44z"/>
		</g>
	</g>
	<g>
		<path class="st1" d="M117.91,101.47H82.09c-4.94,0-8.97-4.02-8.97-8.97V21.44c0-4.94,4.02-8.97,8.97-8.97h35.83
			c4.94,0,8.97,4.02,8.97,8.97v71.07C126.88,97.45,122.86,101.47,117.91,101.47z M82.09,16.56c-2.69,0-4.87,2.19-4.87,4.87v71.07
			c0,2.69,2.19,4.87,4.87,4.87h35.83c2.69,0,4.87-2.19,4.87-4.87V21.44c0-2.69-2.19-4.87-4.87-4.87H82.09z"/>
	</g>
</g>
</svg>
