<?xml version="1.0" encoding="utf-8"?>
<!-- Generator: Adobe Illustrator 24.1.0, SVG Export Plug-In . SVG Version: 6.00 Build 0)  -->
<svg version="1.1" id="Layer_1" xmlns="http://www.w3.org/2000/svg" xmlns:xlink="http://www.w3.org/1999/xlink" x="0px" y="0px"
	 viewBox="0 0 200 210.66" style="enable-background:new 0 0 200 210.66;" xml:space="preserve">
<style type="text/css">
	.st0{fill:#E20D18;}
	.st1{fill:#FFFFFF;}
	.st2{fill:#12448B;}
	.st3{fill-rule:evenodd;clip-rule:evenodd;fill:#FFFFFF;}
</style>
<circle class="st0" cx="100" cy="56.97" r="56.97"/>
<g>
	<path class="st2" d="M42.18,142.78c-0.28,0-0.49-0.08-0.65-0.22c-0.16-0.15-0.23-0.36-0.23-0.64v-10.87c0-0.28,0.08-0.49,0.23-0.64
		s0.37-0.22,0.65-0.22h4.16c0.92,0,1.78,0.16,2.58,0.49c0.8,0.32,1.48,0.78,2.06,1.36s1.02,1.26,1.33,2.02
		c0.31,0.77,0.47,1.58,0.47,2.43c0,0.85-0.16,1.67-0.47,2.44c-0.31,0.77-0.76,1.45-1.33,2.03s-1.26,1.03-2.06,1.35
		c-0.8,0.32-1.66,0.49-2.58,0.49H42.18z M44.15,140.37h1.89c0.28,0,0.58-0.03,0.93-0.1c0.34-0.07,0.68-0.19,1.02-0.36
		s0.65-0.41,0.94-0.72c0.29-0.31,0.52-0.7,0.7-1.17c0.18-0.47,0.27-0.99,0.27-1.54c0-0.41-0.06-0.83-0.18-1.28
		c-0.12-0.44-0.35-0.88-0.68-1.31c-0.34-0.43-0.77-0.76-1.31-0.97s-1.1-0.32-1.67-0.32h-1.89V140.37z"/>
	<path class="st2" d="M59.27,142.98c-0.79,0-1.52-0.12-2.2-0.37s-1.24-0.59-1.7-1.03c-0.46-0.44-0.82-0.95-1.06-1.54
		c-0.25-0.59-0.37-1.21-0.37-1.85c0-0.64,0.12-1.25,0.36-1.84c0.24-0.59,0.58-1.12,1.03-1.57s0.98-0.8,1.62-1.06
		c0.64-0.26,1.33-0.39,2.07-0.39c0.65,0,1.27,0.1,1.85,0.3c0.59,0.2,1.1,0.49,1.55,0.87c0.44,0.38,0.8,0.86,1.06,1.44
		c0.26,0.58,0.41,1.22,0.45,1.93c0.01,0.25-0.06,0.44-0.23,0.57s-0.38,0.19-0.66,0.19h-6.44c-0.01,0.35,0.1,0.7,0.32,1.04
		c0.23,0.35,0.57,0.62,1.04,0.82c0.46,0.2,0.96,0.3,1.48,0.3c0.71,0,1.39-0.19,2.05-0.56c0.49-0.28,0.9-0.22,1.22,0.18l0.2,0.25
		c0.18,0.22,0.26,0.44,0.23,0.67c-0.02,0.23-0.16,0.43-0.4,0.61C61.81,142.63,60.64,142.98,59.27,142.98z M56.68,137.07h4.64
		c-0.12-0.56-0.39-0.98-0.82-1.24c-0.43-0.26-0.91-0.4-1.45-0.4c-0.38,0-0.76,0.07-1.12,0.22c-0.36,0.14-0.64,0.35-0.85,0.61
		C56.89,136.53,56.75,136.8,56.68,137.07z"/>
	<path class="st2" d="M68.67,142.98c-0.83,0-1.56-0.16-2.19-0.48c-0.63-0.32-1.1-0.78-1.4-1.38c-0.13-0.25-0.14-0.48-0.03-0.67
		c0.11-0.2,0.31-0.33,0.6-0.41l0.56-0.13c0.11-0.02,0.23-0.03,0.38-0.02c0.14,0.01,0.38,0.18,0.7,0.5c0.16,0.17,0.36,0.3,0.6,0.4
		c0.25,0.1,0.51,0.14,0.78,0.14c0.35,0,0.63-0.08,0.85-0.22c0.22-0.15,0.33-0.35,0.33-0.59c0-0.14-0.05-0.28-0.14-0.4
		c-0.1-0.13-0.34-0.26-0.72-0.41l-1.13-0.4c-1.74-0.56-2.61-1.46-2.61-2.68c0-0.85,0.32-1.55,0.97-2.1
		c0.65-0.55,1.47-0.82,2.47-0.82c0.62,0,1.19,0.11,1.7,0.34c0.51,0.23,0.93,0.58,1.25,1.06c0.17,0.25,0.2,0.49,0.1,0.7
		c-0.1,0.22-0.3,0.36-0.6,0.43l-0.5,0.13c-0.17,0.05-0.33,0.05-0.48,0.02c-0.15-0.04-0.34-0.16-0.57-0.36
		c-0.23-0.23-0.53-0.34-0.9-0.34c-0.28,0-0.5,0.08-0.67,0.23c-0.17,0.16-0.26,0.34-0.26,0.56c0,0.13,0.05,0.26,0.16,0.39
		c0.11,0.13,0.34,0.25,0.68,0.37l1.15,0.43c0.58,0.19,1.05,0.42,1.42,0.68s0.66,0.57,0.87,0.93s0.32,0.75,0.33,1.18
		c0,0.58-0.15,1.08-0.45,1.5c-0.3,0.43-0.73,0.77-1.29,1.02C70.1,142.85,69.44,142.98,68.67,142.98z"/>
	<path class="st2" d="M78.79,142.98c-0.78,0-1.5-0.12-2.16-0.37s-1.23-0.59-1.7-1.03c-0.47-0.44-0.84-0.95-1.09-1.53
		s-0.38-1.2-0.38-1.85c0-0.66,0.13-1.29,0.38-1.89c0.25-0.6,0.61-1.12,1.08-1.57c0.47-0.44,1.04-0.79,1.7-1.04s1.39-0.38,2.17-0.38
		c1.07,0,2.05,0.26,2.93,0.77c0.23,0.14,0.35,0.33,0.38,0.55c0.02,0.22-0.05,0.45-0.22,0.67l-0.29,0.36
		c-0.12,0.16-0.27,0.27-0.45,0.33c-0.18,0.07-0.44,0.03-0.77-0.12c-0.11-0.05-0.29-0.11-0.56-0.2c-0.26-0.08-0.55-0.13-0.86-0.13
		c-0.78,0-1.43,0.24-1.94,0.72c-0.51,0.48-0.76,1.1-0.76,1.85s0.25,1.37,0.76,1.85c0.51,0.48,1.16,0.72,1.94,0.72
		c0.31,0,0.6-0.04,0.86-0.13c0.26-0.08,0.45-0.15,0.56-0.2c0.26-0.12,0.5-0.17,0.69-0.13c0.2,0.03,0.38,0.15,0.53,0.35l0.29,0.36
		c0.17,0.23,0.23,0.46,0.18,0.7s-0.22,0.44-0.5,0.59C80.73,142.74,79.81,142.98,78.79,142.98z"/>
	<path class="st2" d="M88.2,142.98c-0.71,0-1.38-0.12-2.01-0.37c-0.63-0.25-1.18-0.59-1.65-1.04c-0.47-0.44-0.83-0.96-1.09-1.56
		c-0.26-0.59-0.39-1.21-0.39-1.86c0-0.31,0.04-0.67,0.13-1.07c0.08-0.4,0.24-0.81,0.48-1.22s0.55-0.81,0.96-1.2
		c0.41-0.38,0.93-0.7,1.56-0.95c0.63-0.25,1.3-0.38,2.01-0.38c0.53,0,1.04,0.07,1.54,0.22c0.5,0.14,0.95,0.35,1.37,0.61
		c0.41,0.26,0.8,0.61,1.16,1.03c0.36,0.42,0.63,0.9,0.8,1.44c0.17,0.54,0.26,1.05,0.26,1.53c0,0.31-0.04,0.67-0.13,1.07
		s-0.24,0.81-0.48,1.22c-0.23,0.41-0.55,0.81-0.96,1.2s-0.93,0.7-1.56,0.95S88.91,142.98,88.2,142.98z M88.2,140.73
		c0.68,0,1.27-0.25,1.75-0.75c0.49-0.5,0.73-1.1,0.73-1.81c0-0.72-0.24-1.33-0.73-1.83c-0.49-0.5-1.07-0.75-1.75-0.75
		c-0.7,0-1.28,0.25-1.76,0.75c-0.48,0.5-0.72,1.11-0.72,1.83c0,0.71,0.24,1.31,0.72,1.81C86.92,140.48,87.5,140.73,88.2,140.73z"/>
	<path class="st2" d="M95.83,142.78c-0.28,0-0.49-0.08-0.64-0.22c-0.15-0.15-0.22-0.36-0.22-0.64v-7.52c0-0.28,0.07-0.49,0.22-0.64
		c0.15-0.15,0.36-0.22,0.64-0.22h1.06c0.28,0,0.49,0.08,0.64,0.22c0.15,0.15,0.23,0.36,0.23,0.64V135c0.23-0.53,0.58-0.94,1.07-1.23
		c0.49-0.29,1.07-0.44,1.74-0.44c0.73,0,1.35,0.17,1.84,0.5s0.88,0.8,1.14,1.41c0.26,0.61,0.4,1.35,0.4,2.21v4.46
		c0,0.28-0.08,0.49-0.23,0.64c-0.16,0.15-0.37,0.22-0.65,0.22h-1.04c-0.28,0-0.49-0.08-0.64-0.22c-0.15-0.15-0.23-0.36-0.23-0.64
		v-4.27c0-0.65-0.13-1.15-0.38-1.51c-0.25-0.36-0.61-0.54-1.08-0.54c-0.23,0-0.49,0.07-0.8,0.2c-0.31,0.13-0.57,0.39-0.8,0.77
		c-0.23,0.38-0.34,0.88-0.34,1.49v3.85c0,0.28-0.08,0.49-0.23,0.64c-0.15,0.15-0.36,0.22-0.64,0.22H95.83z"/>
	<path class="st2" d="M109.78,142.98c-1.04,0-1.84-0.29-2.4-0.86c-0.56-0.58-0.84-1.38-0.84-2.41v-4.1h-0.92
		c-0.13,0-0.24-0.04-0.33-0.13s-0.13-0.19-0.13-0.32v-1.17c0-0.13,0.04-0.24,0.13-0.32s0.2-0.13,0.33-0.13h1.13l0.31-1.87
		c0.04-0.18,0.12-0.32,0.24-0.42s0.28-0.15,0.46-0.15h0.88c0.2,0,0.36,0.06,0.47,0.17c0.11,0.11,0.16,0.27,0.16,0.46v1.82h2.09
		c0.13,0,0.24,0.04,0.32,0.13c0.08,0.08,0.13,0.19,0.13,0.32v1.17c0,0.13-0.04,0.24-0.13,0.32c-0.08,0.08-0.19,0.13-0.32,0.13h-2.09
		v4.19c0,0.32,0.07,0.56,0.22,0.72c0.14,0.16,0.32,0.23,0.54,0.23c0.23,0,0.41-0.08,0.56-0.24c0.14-0.16,0.22-0.36,0.22-0.6
		l-0.02-0.32c-0.04-0.32,0.09-0.49,0.38-0.49h1.1c0.12,0,0.23,0.03,0.32,0.09c0.09,0.06,0.15,0.15,0.19,0.27
		c0.07,0.26,0.11,0.5,0.11,0.7c0,0.6-0.12,1.1-0.37,1.51c-0.25,0.41-0.6,0.73-1.05,0.96C111,142.86,110.44,142.98,109.78,142.98z"/>
	<path class="st2" d="M118.71,142.98c-0.71,0-1.38-0.12-2.01-0.37c-0.63-0.25-1.18-0.59-1.65-1.04c-0.47-0.44-0.83-0.96-1.09-1.56
		c-0.26-0.59-0.39-1.21-0.39-1.86c0-0.31,0.04-0.67,0.13-1.07c0.08-0.4,0.24-0.81,0.48-1.22s0.55-0.81,0.96-1.2
		c0.41-0.38,0.93-0.7,1.56-0.95c0.63-0.25,1.3-0.38,2.01-0.38c0.53,0,1.04,0.07,1.54,0.22c0.5,0.14,0.95,0.35,1.37,0.61
		c0.41,0.26,0.8,0.61,1.16,1.03c0.36,0.42,0.63,0.9,0.8,1.44c0.17,0.54,0.26,1.05,0.26,1.53c0,0.31-0.04,0.67-0.13,1.07
		s-0.24,0.81-0.48,1.22c-0.23,0.41-0.55,0.81-0.96,1.2s-0.93,0.7-1.56,0.95S119.42,142.98,118.71,142.98z M118.71,140.73
		c0.68,0,1.27-0.25,1.75-0.75c0.49-0.5,0.73-1.1,0.73-1.81c0-0.72-0.24-1.33-0.73-1.83c-0.49-0.5-1.07-0.75-1.75-0.75
		c-0.7,0-1.28,0.25-1.76,0.75c-0.48,0.5-0.72,1.11-0.72,1.83c0,0.71,0.24,1.31,0.72,1.81C117.43,140.48,118.01,140.73,118.71,140.73
		z"/>
	<path class="st2" d="M128.63,142.98c-0.83,0-1.56-0.16-2.19-0.48c-0.63-0.32-1.1-0.78-1.4-1.38c-0.13-0.25-0.14-0.48-0.03-0.67
		c0.11-0.2,0.31-0.33,0.6-0.41l0.56-0.13c0.11-0.02,0.23-0.03,0.38-0.02c0.14,0.01,0.38,0.18,0.7,0.5c0.16,0.17,0.36,0.3,0.6,0.4
		c0.25,0.1,0.51,0.14,0.78,0.14c0.35,0,0.63-0.08,0.85-0.22c0.22-0.15,0.33-0.35,0.33-0.59c0-0.14-0.05-0.28-0.14-0.4
		c-0.1-0.13-0.34-0.26-0.72-0.41l-1.13-0.4c-1.74-0.56-2.61-1.46-2.61-2.68c0-0.85,0.32-1.55,0.97-2.1
		c0.65-0.55,1.47-0.82,2.47-0.82c0.62,0,1.19,0.11,1.7,0.34c0.51,0.23,0.93,0.58,1.25,1.06c0.17,0.25,0.2,0.49,0.1,0.7
		c-0.1,0.22-0.3,0.36-0.6,0.43l-0.5,0.13c-0.17,0.05-0.33,0.05-0.48,0.02c-0.15-0.04-0.34-0.16-0.57-0.36
		c-0.23-0.23-0.53-0.34-0.9-0.34c-0.28,0-0.5,0.08-0.67,0.23c-0.17,0.16-0.26,0.34-0.26,0.56c0,0.13,0.05,0.26,0.16,0.39
		c0.11,0.13,0.34,0.25,0.68,0.37l1.15,0.43c0.58,0.19,1.05,0.42,1.42,0.68s0.66,0.57,0.87,0.93s0.32,0.75,0.33,1.18
		c0,0.58-0.15,1.08-0.45,1.5c-0.3,0.43-0.73,0.77-1.29,1.02C130.06,142.85,129.4,142.98,128.63,142.98z"/>
	<path class="st2" d="M142.25,142.98c-0.47,0-0.92-0.07-1.36-0.21c-0.44-0.14-0.84-0.34-1.2-0.59c-0.36-0.26-0.67-0.57-0.94-0.93
		c-0.26-0.36-0.49-0.8-0.68-1.32c-0.19-0.52-0.29-1.11-0.29-1.77s0.11-1.29,0.33-1.88c0.22-0.59,0.53-1.11,0.93-1.55
		c0.4-0.44,0.87-0.78,1.42-1.03c0.55-0.25,1.15-0.37,1.78-0.37c0.61,0,1.18,0.13,1.69,0.38s0.94,0.63,1.26,1.13v-4.21
		c0-0.28,0.08-0.49,0.23-0.64c0.16-0.15,0.37-0.22,0.65-0.22h1.04c0.28,0,0.49,0.08,0.64,0.22c0.15,0.15,0.22,0.36,0.22,0.64v11.29
		c0,0.28-0.08,0.49-0.22,0.64c-0.15,0.15-0.36,0.22-0.64,0.22h-1.04c-0.28,0-0.49-0.08-0.65-0.22c-0.16-0.15-0.23-0.36-0.23-0.64
		v-0.43c-0.32,0.49-0.74,0.86-1.26,1.12S142.87,142.98,142.25,142.98z M142.88,140.74c0.35,0,0.7-0.08,1.06-0.24
		s0.67-0.46,0.92-0.89s0.38-0.92,0.4-1.46c-0.01-0.54-0.14-1.03-0.4-1.46s-0.56-0.73-0.92-0.89c-0.36-0.16-0.71-0.24-1.06-0.24
		c-0.52,0-0.96,0.14-1.33,0.43c-0.37,0.29-0.63,0.64-0.77,1.04c-0.14,0.41-0.21,0.78-0.21,1.12s0.06,0.69,0.19,1.06
		c0.13,0.37,0.31,0.68,0.56,0.91c0.25,0.23,0.5,0.4,0.77,0.49C142.37,140.7,142.63,140.74,142.88,140.74z"/>
	<path class="st2" d="M154.98,142.98c-0.79,0-1.52-0.12-2.2-0.37s-1.24-0.59-1.7-1.03c-0.46-0.44-0.82-0.95-1.06-1.54
		c-0.25-0.59-0.37-1.21-0.37-1.85c0-0.64,0.12-1.25,0.36-1.84c0.24-0.59,0.58-1.12,1.03-1.57s0.98-0.8,1.62-1.06
		c0.64-0.26,1.33-0.39,2.07-0.39c0.65,0,1.27,0.1,1.85,0.3c0.59,0.2,1.1,0.49,1.55,0.87c0.44,0.38,0.8,0.86,1.06,1.44
		c0.26,0.58,0.41,1.22,0.45,1.93c0.01,0.25-0.06,0.44-0.23,0.57s-0.38,0.19-0.66,0.19h-6.44c-0.01,0.35,0.1,0.7,0.32,1.04
		c0.23,0.35,0.57,0.62,1.04,0.82c0.46,0.2,0.96,0.3,1.48,0.3c0.71,0,1.39-0.19,2.05-0.56c0.49-0.28,0.9-0.22,1.22,0.18l0.2,0.25
		c0.18,0.22,0.26,0.44,0.23,0.67c-0.02,0.23-0.16,0.43-0.4,0.61C157.51,142.63,156.35,142.98,154.98,142.98z M152.39,137.07h4.64
		c-0.12-0.56-0.39-0.98-0.82-1.24c-0.43-0.26-0.91-0.4-1.45-0.4c-0.38,0-0.76,0.07-1.12,0.22c-0.36,0.14-0.64,0.35-0.85,0.61
		C152.6,136.53,152.46,136.8,152.39,137.07z"/>
	<path class="st2" d="M48.12,163.98c-0.47,0-0.92-0.07-1.35-0.21c-0.43-0.14-0.83-0.34-1.19-0.59c-0.36-0.26-0.67-0.57-0.94-0.93
		c-0.26-0.36-0.49-0.8-0.68-1.32c-0.19-0.52-0.29-1.11-0.29-1.77s0.11-1.29,0.33-1.88c0.22-0.59,0.53-1.11,0.93-1.55
		c0.4-0.44,0.87-0.78,1.42-1.03c0.55-0.25,1.14-0.37,1.76-0.37s1.19,0.13,1.71,0.38s0.94,0.63,1.26,1.13v-0.45
		c0-0.28,0.08-0.49,0.23-0.64c0.15-0.15,0.36-0.22,0.64-0.22h1.06c0.28,0,0.49,0.08,0.64,0.22c0.15,0.15,0.22,0.36,0.22,0.64v7.52
		c0,0.28-0.08,0.49-0.22,0.64c-0.15,0.15-0.36,0.22-0.64,0.22h-1.06c-0.28,0-0.49-0.08-0.64-0.22c-0.15-0.15-0.23-0.36-0.23-0.64
		v-0.43c-0.32,0.49-0.74,0.86-1.26,1.12S48.74,163.98,48.12,163.98z M48.76,161.74c0.35,0,0.7-0.08,1.06-0.24s0.67-0.46,0.92-0.89
		s0.38-0.92,0.38-1.46s-0.13-1.03-0.38-1.46s-0.56-0.73-0.92-0.89c-0.36-0.16-0.71-0.24-1.06-0.24c-0.53,0-0.98,0.14-1.34,0.43
		s-0.62,0.64-0.76,1.04c-0.14,0.41-0.21,0.78-0.21,1.12c0,0.71,0.2,1.32,0.61,1.83S48.04,161.74,48.76,161.74z"/>
	<path class="st2" d="M59.94,163.98c-1.04,0-1.84-0.29-2.4-0.86c-0.56-0.58-0.84-1.38-0.84-2.41v-4.1h-0.92
		c-0.13,0-0.24-0.04-0.33-0.13s-0.13-0.19-0.13-0.32v-1.17c0-0.13,0.04-0.24,0.13-0.32s0.2-0.13,0.33-0.13h1.13l0.31-1.87
		c0.04-0.18,0.12-0.32,0.24-0.42s0.28-0.15,0.46-0.15h0.88c0.2,0,0.36,0.06,0.47,0.17c0.11,0.11,0.16,0.27,0.16,0.46v1.82h2.09
		c0.13,0,0.24,0.04,0.32,0.13c0.08,0.08,0.13,0.19,0.13,0.32v1.17c0,0.13-0.04,0.24-0.13,0.32c-0.08,0.08-0.19,0.13-0.32,0.13h-2.09
		v4.19c0,0.32,0.07,0.56,0.22,0.72c0.14,0.16,0.32,0.23,0.54,0.23c0.23,0,0.41-0.08,0.56-0.24c0.14-0.16,0.22-0.36,0.22-0.6
		l-0.02-0.32c-0.04-0.32,0.09-0.49,0.38-0.49h1.1c0.12,0,0.23,0.03,0.32,0.09c0.09,0.06,0.15,0.15,0.19,0.27
		c0.07,0.26,0.11,0.5,0.11,0.7c0,0.6-0.12,1.1-0.37,1.51c-0.25,0.41-0.6,0.73-1.05,0.96C61.16,163.86,60.6,163.98,59.94,163.98z"/>
	<path class="st2" d="M69.09,163.98c-0.79,0-1.52-0.12-2.2-0.37s-1.24-0.59-1.7-1.03c-0.46-0.44-0.82-0.95-1.06-1.54
		c-0.25-0.59-0.37-1.21-0.37-1.85c0-0.64,0.12-1.25,0.36-1.84c0.24-0.59,0.58-1.12,1.03-1.57s0.98-0.8,1.62-1.06
		c0.64-0.26,1.33-0.39,2.07-0.39c0.65,0,1.27,0.1,1.85,0.3c0.59,0.2,1.1,0.49,1.55,0.87c0.44,0.38,0.8,0.86,1.06,1.44
		c0.26,0.58,0.41,1.22,0.45,1.93c0.01,0.25-0.06,0.44-0.23,0.57s-0.38,0.19-0.66,0.19h-6.44c-0.01,0.35,0.1,0.7,0.32,1.04
		c0.23,0.35,0.57,0.62,1.04,0.82c0.46,0.2,0.96,0.3,1.48,0.3c0.71,0,1.39-0.19,2.05-0.56c0.49-0.28,0.9-0.22,1.22,0.18l0.2,0.25
		c0.18,0.22,0.26,0.44,0.23,0.67c-0.02,0.23-0.16,0.43-0.4,0.61C71.62,163.63,70.45,163.98,69.09,163.98z M66.49,158.07h4.64
		c-0.12-0.56-0.39-0.98-0.82-1.24c-0.43-0.26-0.91-0.4-1.45-0.4c-0.38,0-0.76,0.07-1.12,0.22c-0.36,0.14-0.64,0.35-0.85,0.61
		C66.7,157.53,66.56,157.8,66.49,158.07z M68.29,153.37c-0.18,0-0.3-0.05-0.36-0.15c-0.06-0.1-0.05-0.23,0.04-0.39l1.1-2.07
		c0.11-0.22,0.29-0.32,0.54-0.32h1.78c0.19,0,0.31,0.06,0.36,0.17s0.01,0.24-0.11,0.39l-1.76,2.12c-0.13,0.17-0.32,0.25-0.56,0.25
		H68.29z"/>
	<path class="st2" d="M83.92,163.98c-1.58,0-2.93-0.34-4.05-1.03c-0.23-0.16-0.35-0.34-0.37-0.57c-0.02-0.22,0.06-0.44,0.23-0.66
		l0.31-0.41c0.31-0.4,0.72-0.47,1.22-0.23c0.3,0.16,0.68,0.29,1.12,0.41c0.45,0.12,0.92,0.18,1.41,0.18c0.74,0,1.37-0.2,1.87-0.61
		s0.76-0.95,0.76-1.62c0-0.42-0.13-0.79-0.38-1.12s-0.56-0.56-0.94-0.68s-0.71-0.19-1.03-0.19c-0.29,0-0.62,0.05-0.99,0.14
		c-0.37,0.1-0.7,0.22-0.99,0.38c-0.42,0.24-0.82,0.29-1.19,0.16l-0.5-0.2c-0.23-0.1-0.4-0.23-0.5-0.4s-0.16-0.38-0.14-0.63
		l0.31-4.88c0.04-0.56,0.34-0.85,0.9-0.85h6.46c0.28,0,0.49,0.07,0.64,0.22c0.15,0.15,0.22,0.36,0.22,0.64v0.52
		c0,0.28-0.08,0.49-0.22,0.65c-0.15,0.16-0.36,0.23-0.64,0.23h-4.88l-0.22,2.77c0.3-0.25,0.69-0.45,1.16-0.59
		c0.47-0.14,0.96-0.22,1.47-0.22c0.61,0,1.18,0.1,1.7,0.31c0.52,0.21,0.97,0.49,1.34,0.86s0.66,0.8,0.86,1.3
		c0.2,0.49,0.3,1.01,0.3,1.57c0,0.66-0.12,1.27-0.35,1.83c-0.23,0.56-0.58,1.04-1.03,1.44c-0.45,0.4-1,0.71-1.67,0.94
		S84.72,163.98,83.92,163.98z"/>
	<path class="st2" d="M96.17,163.98c-0.84,0-1.61-0.17-2.32-0.5c-0.71-0.34-1.31-0.8-1.79-1.4c-0.49-0.59-0.86-1.29-1.12-2.09
		c-0.26-0.8-0.39-1.63-0.39-2.51c0-0.89,0.13-1.73,0.39-2.52c0.26-0.79,0.63-1.48,1.12-2.08c0.49-0.59,1.08-1.06,1.79-1.39
		c0.71-0.34,1.48-0.5,2.32-0.5s1.61,0.17,2.31,0.5s1.3,0.8,1.79,1.39c0.49,0.59,0.87,1.29,1.13,2.08s0.4,1.63,0.4,2.52
		c0,0.88-0.13,1.71-0.4,2.51s-0.64,1.49-1.13,2.09s-1.09,1.06-1.79,1.4S97.01,163.98,96.17,163.98z M96.17,161.67
		c0.54,0,1.04-0.18,1.5-0.54c0.46-0.36,0.81-0.88,1.04-1.55c0.23-0.67,0.35-1.37,0.35-2.11c0-0.73-0.12-1.44-0.35-2.12
		c-0.23-0.68-0.58-1.2-1.04-1.56c-0.46-0.36-0.96-0.54-1.5-0.54s-1.02,0.16-1.44,0.49c-0.42,0.32-0.77,0.8-1.04,1.44
		c-0.27,0.64-0.41,1.4-0.41,2.29c0,0.73,0.11,1.43,0.34,2.11c0.23,0.67,0.57,1.19,1.04,1.55C95.13,161.49,95.63,161.67,96.17,161.67
		z"/>
	<path class="st2" d="M106.69,157.75c-0.48,0-0.91-0.07-1.3-0.22c-0.38-0.15-0.73-0.34-1.03-0.58c-0.31-0.24-0.58-0.58-0.84-1.03
		c-0.25-0.44-0.38-0.95-0.38-1.53c0-0.47,0.09-0.91,0.27-1.33s0.43-0.78,0.76-1.09c0.32-0.31,0.71-0.55,1.14-0.72
		c0.44-0.17,0.9-0.26,1.38-0.26c0.62,0,1.22,0.15,1.79,0.44c0.57,0.29,1.01,0.71,1.31,1.26s0.46,1.11,0.46,1.7
		c0,0.34-0.06,0.69-0.18,1.07c-0.12,0.38-0.32,0.74-0.61,1.07s-0.67,0.62-1.13,0.86S107.31,157.75,106.69,157.75z M106.7,155.95
		c0.42,0,0.78-0.15,1.07-0.46c0.29-0.31,0.44-0.68,0.44-1.12c0-0.2-0.05-0.43-0.14-0.68c-0.1-0.25-0.27-0.47-0.53-0.65
		s-0.54-0.27-0.84-0.27c-0.41,0-0.76,0.16-1.05,0.47c-0.29,0.31-0.44,0.69-0.44,1.13c0,0.44,0.15,0.82,0.44,1.12
		C105.95,155.79,106.3,155.95,106.7,155.95z M107.87,163.78c-0.19,0-0.32-0.06-0.39-0.18c-0.07-0.12-0.06-0.26,0.03-0.43l6.48-11.65
		c0.12-0.23,0.32-0.34,0.59-0.34h0.7c0.19,0,0.32,0.06,0.39,0.18c0.07,0.12,0.06,0.26-0.03,0.43l-6.46,11.63
		c-0.12,0.24-0.32,0.36-0.59,0.36H107.87z M116.6,163.98c-0.61,0-1.2-0.15-1.77-0.44c-0.57-0.29-1.01-0.71-1.31-1.26
		c-0.31-0.55-0.46-1.11-0.46-1.68c0-0.58,0.15-1.14,0.46-1.68c0.31-0.55,0.74-0.97,1.31-1.26c0.57-0.29,1.16-0.44,1.77-0.44
		c0.49,0,0.96,0.09,1.39,0.26c0.44,0.17,0.82,0.41,1.13,0.72s0.57,0.67,0.75,1.08s0.27,0.85,0.27,1.32c0,0.47-0.09,0.91-0.27,1.32
		s-0.43,0.77-0.75,1.08c-0.32,0.31-0.7,0.55-1.13,0.72C117.56,163.89,117.1,163.98,116.6,163.98z M116.62,162.18
		c0.19,0,0.41-0.05,0.64-0.15c0.23-0.1,0.44-0.29,0.6-0.55s0.25-0.56,0.25-0.88c0-0.2-0.05-0.43-0.14-0.68
		c-0.1-0.25-0.27-0.47-0.52-0.65c-0.25-0.18-0.53-0.27-0.83-0.27c-0.19,0-0.41,0.05-0.64,0.15c-0.23,0.1-0.44,0.29-0.6,0.56
		c-0.17,0.27-0.25,0.57-0.25,0.89c0,0.2,0.05,0.43,0.14,0.67c0.1,0.25,0.27,0.46,0.52,0.64S116.32,162.18,116.62,162.18z"/>
	<path class="st2" d="M135.31,163.98c-0.79,0-1.52-0.12-2.2-0.37s-1.24-0.59-1.7-1.03c-0.46-0.44-0.82-0.95-1.06-1.54
		c-0.25-0.59-0.37-1.21-0.37-1.85c0-0.64,0.12-1.25,0.36-1.84c0.24-0.59,0.58-1.12,1.03-1.57s0.98-0.8,1.62-1.06
		c0.64-0.26,1.33-0.39,2.07-0.39c0.65,0,1.27,0.1,1.85,0.3c0.59,0.2,1.1,0.49,1.55,0.87c0.44,0.38,0.8,0.86,1.06,1.44
		c0.26,0.58,0.41,1.22,0.45,1.93c0.01,0.25-0.06,0.44-0.23,0.57s-0.38,0.19-0.66,0.19h-6.44c-0.01,0.35,0.1,0.7,0.32,1.04
		c0.23,0.35,0.57,0.62,1.04,0.82c0.46,0.2,0.96,0.3,1.48,0.3c0.71,0,1.39-0.19,2.05-0.56c0.49-0.28,0.9-0.22,1.22,0.18l0.2,0.25
		c0.18,0.22,0.26,0.44,0.23,0.67c-0.02,0.23-0.16,0.43-0.4,0.61C137.84,163.63,136.67,163.98,135.31,163.98z M132.71,158.07h4.64
		c-0.12-0.56-0.39-0.98-0.82-1.24c-0.43-0.26-0.91-0.4-1.45-0.4c-0.38,0-0.76,0.07-1.12,0.22c-0.36,0.14-0.64,0.35-0.85,0.61
		C132.92,157.53,132.79,157.8,132.71,158.07z"/>
	<path class="st2" d="M142.42,163.78c-0.28,0-0.49-0.08-0.64-0.22c-0.15-0.15-0.22-0.36-0.22-0.64v-7.52c0-0.28,0.07-0.49,0.22-0.64
		c0.15-0.15,0.36-0.22,0.64-0.22h1.06c0.28,0,0.49,0.08,0.64,0.22c0.15,0.15,0.23,0.36,0.23,0.64V156c0.18-0.52,0.5-0.92,0.95-1.22
		c0.46-0.3,0.97-0.45,1.55-0.45c0.41,0,0.8,0.07,1.17,0.22c0.37,0.14,0.68,0.35,0.94,0.6s0.44,0.52,0.58,0.78
		c0.22-0.34,0.47-0.63,0.77-0.89c0.29-0.26,0.63-0.44,1-0.55s0.77-0.16,1.21-0.16c0.71,0,1.31,0.17,1.81,0.5s0.89,0.81,1.17,1.43
		s0.42,1.35,0.42,2.21v4.45c0,0.28-0.08,0.49-0.23,0.64c-0.16,0.15-0.37,0.22-0.65,0.22h-1.04c-0.28,0-0.49-0.08-0.64-0.22
		c-0.15-0.15-0.23-0.36-0.23-0.64v-4.32c0-0.64-0.12-1.13-0.36-1.48c-0.24-0.35-0.56-0.52-0.97-0.52c-0.31,0-0.59,0.1-0.84,0.29
		c-0.25,0.19-0.44,0.46-0.58,0.79s-0.22,0.75-0.23,1.24v4c0,0.28-0.07,0.49-0.22,0.64c-0.15,0.15-0.36,0.22-0.64,0.22h-1.06
		c-0.28,0-0.49-0.08-0.64-0.22c-0.15-0.15-0.23-0.36-0.23-0.64v-4.32c0-0.64-0.12-1.13-0.35-1.48c-0.23-0.35-0.55-0.52-0.96-0.52
		c-0.32,0-0.62,0.1-0.87,0.31s-0.46,0.48-0.59,0.83c-0.14,0.35-0.21,0.77-0.21,1.28v3.91c0,0.28-0.08,0.49-0.23,0.64
		c-0.15,0.15-0.36,0.22-0.64,0.22H142.42z"/>
	<path class="st2" d="M6.83,184.98c-0.79,0-1.52-0.12-2.2-0.37s-1.24-0.59-1.7-1.03c-0.46-0.44-0.82-0.95-1.06-1.54
		c-0.25-0.59-0.37-1.21-0.37-1.85c0-0.64,0.12-1.25,0.36-1.84c0.24-0.59,0.58-1.12,1.03-1.57s0.98-0.8,1.62-1.06
		c0.64-0.26,1.33-0.39,2.07-0.39c0.65,0,1.27,0.1,1.85,0.3c0.59,0.2,1.1,0.49,1.55,0.87c0.44,0.38,0.8,0.86,1.06,1.44
		c0.26,0.58,0.41,1.22,0.45,1.93c0.01,0.25-0.06,0.44-0.23,0.57s-0.38,0.19-0.66,0.19H4.17c-0.01,0.35,0.1,0.7,0.32,1.04
		c0.23,0.35,0.57,0.62,1.04,0.82c0.46,0.2,0.96,0.3,1.48,0.3c0.71,0,1.39-0.19,2.05-0.56c0.49-0.28,0.9-0.22,1.22,0.18l0.2,0.25
		c0.18,0.22,0.26,0.44,0.23,0.67c-0.02,0.23-0.16,0.43-0.4,0.61C9.36,184.63,8.2,184.98,6.83,184.98z M4.24,179.07h4.64
		c-0.12-0.56-0.39-0.98-0.82-1.24c-0.43-0.26-0.91-0.4-1.45-0.4c-0.38,0-0.76,0.07-1.12,0.22c-0.36,0.14-0.64,0.35-0.85,0.61
		C4.45,178.53,4.31,178.8,4.24,179.07z"/>
	<path class="st2" d="M12.84,184.78c-0.36,0-0.59-0.1-0.69-0.32c-0.1-0.21-0.03-0.46,0.21-0.75l3.1-3.71l-2.75-3.42
		c-0.23-0.29-0.29-0.54-0.19-0.75c0.1-0.21,0.33-0.32,0.69-0.32h1.13c0.44,0,0.8,0.17,1.06,0.52l1.78,2.14l1.78-2.14
		c0.28-0.35,0.63-0.52,1.06-0.52h1.17c0.36,0,0.59,0.11,0.69,0.32c0.1,0.21,0.04,0.46-0.19,0.75l-2.79,3.42l3.1,3.71
		c0.24,0.29,0.31,0.54,0.21,0.75c-0.1,0.21-0.33,0.32-0.69,0.32h-1.08c-0.42,0-0.77-0.16-1.06-0.49l-2.2-2.61l-2.2,2.61
		c-0.29,0.32-0.64,0.49-1.06,0.49H12.84z"/>
	<path class="st2" d="M27.3,184.98c-0.47,0-0.92-0.07-1.35-0.21c-0.43-0.14-0.83-0.34-1.19-0.59c-0.36-0.26-0.67-0.57-0.94-0.93
		c-0.26-0.36-0.49-0.8-0.68-1.32c-0.19-0.52-0.29-1.11-0.29-1.77s0.11-1.29,0.33-1.88c0.22-0.59,0.53-1.11,0.93-1.55
		c0.4-0.44,0.87-0.78,1.42-1.03c0.55-0.25,1.14-0.37,1.76-0.37s1.19,0.13,1.71,0.38s0.94,0.63,1.26,1.13v-0.45
		c0-0.28,0.08-0.49,0.23-0.64c0.15-0.15,0.36-0.22,0.64-0.22h1.06c0.28,0,0.49,0.08,0.64,0.22c0.15,0.15,0.22,0.36,0.22,0.64v7.52
		c0,0.28-0.08,0.49-0.22,0.64c-0.15,0.15-0.36,0.22-0.64,0.22h-1.06c-0.28,0-0.49-0.08-0.64-0.22c-0.15-0.15-0.23-0.36-0.23-0.64
		v-0.43c-0.32,0.49-0.74,0.86-1.26,1.12S27.92,184.98,27.3,184.98z M27.95,182.74c0.35,0,0.7-0.08,1.06-0.24s0.67-0.46,0.92-0.89
		s0.38-0.92,0.38-1.46s-0.13-1.03-0.38-1.46s-0.56-0.73-0.92-0.89c-0.36-0.16-0.71-0.24-1.06-0.24c-0.53,0-0.98,0.14-1.34,0.43
		s-0.62,0.64-0.76,1.04c-0.14,0.41-0.21,0.78-0.21,1.12c0,0.71,0.2,1.32,0.61,1.83S27.23,182.74,27.95,182.74z"/>
	<path class="st2" d="M36.15,184.78c-0.28,0-0.49-0.08-0.64-0.22c-0.15-0.15-0.22-0.36-0.22-0.64v-7.52c0-0.28,0.07-0.49,0.22-0.64
		c0.15-0.15,0.36-0.22,0.64-0.22h1.06c0.28,0,0.49,0.08,0.64,0.22c0.15,0.15,0.23,0.36,0.23,0.64V177c0.18-0.52,0.5-0.92,0.95-1.22
		c0.46-0.3,0.97-0.45,1.55-0.45c0.41,0,0.8,0.07,1.17,0.22c0.37,0.14,0.68,0.35,0.94,0.6s0.44,0.52,0.58,0.78
		c0.22-0.34,0.47-0.63,0.77-0.89c0.29-0.26,0.63-0.44,1-0.55s0.77-0.16,1.21-0.16c0.71,0,1.31,0.17,1.81,0.5s0.89,0.81,1.17,1.43
		s0.42,1.35,0.42,2.21v4.45c0,0.28-0.08,0.49-0.23,0.64c-0.16,0.15-0.37,0.22-0.65,0.22h-1.04c-0.28,0-0.49-0.08-0.64-0.22
		c-0.15-0.15-0.23-0.36-0.23-0.64v-4.32c0-0.64-0.12-1.13-0.36-1.48c-0.24-0.35-0.56-0.52-0.97-0.52c-0.31,0-0.59,0.1-0.84,0.29
		c-0.25,0.19-0.44,0.46-0.58,0.79s-0.22,0.75-0.23,1.24v4c0,0.28-0.07,0.49-0.22,0.64c-0.15,0.15-0.36,0.22-0.64,0.22h-1.06
		c-0.28,0-0.49-0.08-0.64-0.22c-0.15-0.15-0.23-0.36-0.23-0.64v-4.32c0-0.64-0.12-1.13-0.35-1.48c-0.23-0.35-0.55-0.52-0.96-0.52
		c-0.32,0-0.62,0.1-0.87,0.31s-0.46,0.48-0.59,0.83c-0.14,0.35-0.21,0.77-0.21,1.28v3.91c0,0.28-0.08,0.49-0.23,0.64
		c-0.15,0.15-0.36,0.22-0.64,0.22H36.15z"/>
	<path class="st2" d="M56.49,184.98c-0.79,0-1.52-0.12-2.2-0.37s-1.24-0.59-1.7-1.03c-0.46-0.44-0.82-0.95-1.06-1.54
		c-0.25-0.59-0.37-1.21-0.37-1.85c0-0.64,0.12-1.25,0.36-1.84c0.24-0.59,0.58-1.12,1.03-1.57s0.98-0.8,1.62-1.06
		c0.64-0.26,1.33-0.39,2.07-0.39c0.65,0,1.27,0.1,1.85,0.3c0.59,0.2,1.1,0.49,1.55,0.87c0.44,0.38,0.8,0.86,1.06,1.44
		c0.26,0.58,0.41,1.22,0.45,1.93c0.01,0.25-0.06,0.44-0.23,0.57s-0.38,0.19-0.66,0.19h-6.44c-0.01,0.35,0.1,0.7,0.32,1.04
		c0.23,0.35,0.57,0.62,1.04,0.82c0.46,0.2,0.96,0.3,1.48,0.3c0.71,0,1.39-0.19,2.05-0.56c0.49-0.28,0.9-0.22,1.22,0.18l0.2,0.25
		c0.18,0.22,0.26,0.44,0.23,0.67c-0.02,0.23-0.16,0.43-0.4,0.61C59.02,184.63,57.86,184.98,56.49,184.98z M53.9,179.07h4.64
		c-0.12-0.56-0.39-0.98-0.82-1.24c-0.43-0.26-0.91-0.4-1.45-0.4c-0.38,0-0.76,0.07-1.12,0.22c-0.36,0.14-0.64,0.35-0.85,0.61
		C54.11,178.53,53.97,178.8,53.9,179.07z"/>
	<path class="st2" d="M65.89,184.98c-0.83,0-1.56-0.16-2.19-0.48c-0.63-0.32-1.1-0.78-1.4-1.38c-0.13-0.25-0.14-0.48-0.03-0.67
		c0.11-0.2,0.31-0.33,0.6-0.41l0.56-0.13c0.11-0.02,0.23-0.03,0.38-0.02c0.14,0.01,0.38,0.18,0.7,0.5c0.16,0.17,0.36,0.3,0.6,0.4
		c0.25,0.1,0.51,0.14,0.78,0.14c0.35,0,0.63-0.08,0.85-0.22c0.22-0.15,0.33-0.35,0.33-0.59c0-0.14-0.05-0.28-0.14-0.4
		c-0.1-0.13-0.34-0.26-0.72-0.41l-1.13-0.4c-1.74-0.56-2.61-1.46-2.61-2.68c0-0.85,0.32-1.55,0.97-2.1
		c0.65-0.55,1.47-0.82,2.47-0.82c0.62,0,1.19,0.11,1.7,0.34c0.51,0.23,0.93,0.58,1.25,1.06c0.17,0.25,0.2,0.49,0.1,0.7
		c-0.1,0.22-0.3,0.36-0.6,0.43l-0.5,0.13c-0.17,0.05-0.33,0.05-0.48,0.02c-0.15-0.04-0.34-0.16-0.57-0.36
		c-0.23-0.23-0.53-0.34-0.9-0.34c-0.28,0-0.5,0.08-0.67,0.23c-0.17,0.16-0.26,0.34-0.26,0.56c0,0.13,0.05,0.26,0.16,0.39
		c0.11,0.13,0.34,0.25,0.68,0.37l1.15,0.43c0.58,0.19,1.05,0.42,1.42,0.68s0.66,0.57,0.87,0.93s0.32,0.75,0.33,1.18
		c0,0.58-0.15,1.08-0.45,1.5c-0.3,0.43-0.73,0.77-1.29,1.02C67.32,184.85,66.66,184.98,65.89,184.98z"/>
	<path class="st2" d="M76.51,184.78c-0.28,0-0.49-0.08-0.64-0.22c-0.15-0.15-0.22-0.36-0.22-0.64v-11.29c0-0.28,0.07-0.49,0.22-0.64
		c0.15-0.15,0.36-0.22,0.64-0.22h1.04c0.28,0,0.49,0.08,0.65,0.22c0.16,0.15,0.23,0.36,0.23,0.64v11.29c0,0.28-0.08,0.49-0.23,0.64
		c-0.16,0.15-0.37,0.22-0.65,0.22H76.51z"/>
	<path class="st2" d="M84.57,184.98c-0.47,0-0.92-0.07-1.35-0.21c-0.43-0.14-0.83-0.34-1.19-0.59c-0.36-0.26-0.67-0.57-0.94-0.93
		c-0.26-0.36-0.49-0.8-0.68-1.32c-0.19-0.52-0.29-1.11-0.29-1.77s0.11-1.29,0.33-1.88c0.22-0.59,0.53-1.11,0.93-1.55
		c0.4-0.44,0.87-0.78,1.42-1.03c0.55-0.25,1.14-0.37,1.76-0.37s1.19,0.13,1.71,0.38s0.94,0.63,1.26,1.13v-0.45
		c0-0.28,0.08-0.49,0.23-0.64c0.15-0.15,0.36-0.22,0.64-0.22h1.06c0.28,0,0.49,0.08,0.64,0.22c0.15,0.15,0.22,0.36,0.22,0.64v7.52
		c0,0.28-0.08,0.49-0.22,0.64c-0.15,0.15-0.36,0.22-0.64,0.22h-1.06c-0.28,0-0.49-0.08-0.64-0.22c-0.15-0.15-0.23-0.36-0.23-0.64
		v-0.43c-0.32,0.49-0.74,0.86-1.26,1.12S85.2,184.98,84.57,184.98z M85.22,182.74c0.35,0,0.7-0.08,1.06-0.24s0.67-0.46,0.92-0.89
		s0.38-0.92,0.38-1.46s-0.13-1.03-0.38-1.46s-0.56-0.73-0.92-0.89c-0.36-0.16-0.71-0.24-1.06-0.24c-0.53,0-0.98,0.14-1.34,0.43
		s-0.62,0.64-0.76,1.04c-0.14,0.41-0.21,0.78-0.21,1.12c0,0.71,0.2,1.32,0.61,1.83S84.5,182.74,85.22,182.74z"/>
	<path class="st2" d="M98.31,184.98c-0.61,0-1.18-0.13-1.69-0.38s-0.94-0.62-1.26-1.12v0.43c0,0.28-0.08,0.49-0.23,0.64
		c-0.16,0.15-0.37,0.22-0.65,0.22h-1.04c-0.28,0-0.49-0.08-0.64-0.22c-0.15-0.15-0.22-0.36-0.22-0.64v-11.29
		c0-0.28,0.07-0.49,0.22-0.64c0.15-0.15,0.36-0.22,0.64-0.22h1.04c0.28,0,0.49,0.08,0.65,0.22c0.16,0.15,0.23,0.36,0.23,0.64v4.21
		c0.32-0.5,0.74-0.88,1.26-1.13s1.08-0.38,1.69-0.38c0.64,0,1.23,0.12,1.78,0.37s1.03,0.59,1.42,1.03c0.4,0.44,0.71,0.95,0.93,1.55
		c0.22,0.59,0.33,1.22,0.33,1.88c0,0.31-0.04,0.67-0.11,1.09s-0.21,0.83-0.41,1.24c-0.2,0.41-0.47,0.81-0.82,1.19
		c-0.35,0.38-0.8,0.69-1.35,0.94S98.94,184.98,98.31,184.98z M97.68,182.74c0.25,0,0.51-0.04,0.78-0.13
		c0.27-0.09,0.53-0.25,0.77-0.49c0.25-0.23,0.43-0.54,0.56-0.91c0.13-0.37,0.19-0.73,0.19-1.06s-0.07-0.71-0.21-1.12
		c-0.14-0.41-0.39-0.76-0.77-1.04s-0.82-0.43-1.33-0.43c-0.72,0-1.29,0.25-1.72,0.76s-0.64,1.12-0.66,1.84
		c0.01,0.72,0.23,1.33,0.66,1.84S96.96,182.74,97.68,182.74z"/>
	<path class="st2" d="M108.98,184.98c-0.71,0-1.38-0.12-2.01-0.37c-0.63-0.25-1.18-0.59-1.65-1.04c-0.47-0.44-0.83-0.96-1.09-1.56
		c-0.26-0.59-0.39-1.21-0.39-1.86c0-0.31,0.04-0.67,0.13-1.07c0.08-0.4,0.24-0.81,0.48-1.22s0.55-0.81,0.96-1.2
		c0.41-0.38,0.93-0.7,1.56-0.95c0.63-0.25,1.3-0.38,2.01-0.38c0.53,0,1.04,0.07,1.54,0.22c0.5,0.14,0.95,0.35,1.37,0.61
		c0.41,0.26,0.8,0.61,1.16,1.03c0.36,0.42,0.63,0.9,0.8,1.44c0.17,0.54,0.26,1.05,0.26,1.53c0,0.31-0.04,0.67-0.13,1.07
		s-0.24,0.81-0.48,1.22c-0.23,0.41-0.55,0.81-0.96,1.2s-0.93,0.7-1.56,0.95S109.69,184.98,108.98,184.98z M108.98,182.73
		c0.68,0,1.27-0.25,1.75-0.75c0.49-0.5,0.73-1.1,0.73-1.81c0-0.72-0.24-1.33-0.73-1.83c-0.49-0.5-1.07-0.75-1.75-0.75
		c-0.7,0-1.28,0.25-1.76,0.75c-0.48,0.5-0.72,1.11-0.72,1.83c0,0.71,0.24,1.31,0.72,1.81C107.7,182.48,108.28,182.73,108.98,182.73z
		"/>
	<path class="st2" d="M116.61,184.78c-0.28,0-0.49-0.08-0.64-0.22c-0.15-0.15-0.22-0.36-0.22-0.64v-7.52c0-0.28,0.07-0.49,0.22-0.64
		c0.15-0.15,0.36-0.22,0.64-0.22h0.99c0.28,0,0.49,0.08,0.64,0.22c0.15,0.15,0.22,0.36,0.22,0.64v1.15c0.07-0.4,0.22-0.77,0.43-1.12
		c0.22-0.35,0.51-0.62,0.89-0.81c0.38-0.19,0.73-0.29,1.07-0.29l0.31,0.02c0.35,0.02,0.52,0.27,0.52,0.74v1.26
		c0,0.24-0.06,0.42-0.17,0.53c-0.11,0.11-0.27,0.16-0.46,0.14l-0.45-0.04c-0.25,0-0.49,0.04-0.71,0.13
		c-0.22,0.08-0.43,0.22-0.62,0.4c-0.19,0.18-0.36,0.47-0.51,0.87c-0.15,0.4-0.22,0.95-0.22,1.63v2.92c0,0.28-0.08,0.49-0.23,0.64
		c-0.15,0.15-0.36,0.22-0.64,0.22H116.61z"/>
	<path class="st2" d="M126.78,184.98c-0.47,0-0.92-0.07-1.35-0.21c-0.43-0.14-0.83-0.34-1.19-0.59c-0.36-0.26-0.67-0.57-0.94-0.93
		c-0.26-0.36-0.49-0.8-0.68-1.32c-0.19-0.52-0.29-1.11-0.29-1.77s0.11-1.29,0.33-1.88c0.22-0.59,0.53-1.11,0.93-1.55
		c0.4-0.44,0.87-0.78,1.42-1.03c0.55-0.25,1.14-0.37,1.76-0.37s1.19,0.13,1.71,0.38s0.94,0.63,1.26,1.13v-0.45
		c0-0.28,0.08-0.49,0.23-0.64c0.15-0.15,0.36-0.22,0.64-0.22h1.06c0.28,0,0.49,0.08,0.64,0.22c0.15,0.15,0.22,0.36,0.22,0.64v7.52
		c0,0.28-0.08,0.49-0.22,0.64c-0.15,0.15-0.36,0.22-0.64,0.22h-1.06c-0.28,0-0.49-0.08-0.64-0.22c-0.15-0.15-0.23-0.36-0.23-0.64
		v-0.43c-0.32,0.49-0.74,0.86-1.26,1.12S127.41,184.98,126.78,184.98z M127.43,182.74c0.35,0,0.7-0.08,1.06-0.24
		s0.67-0.46,0.92-0.89s0.38-0.92,0.38-1.46s-0.13-1.03-0.38-1.46s-0.56-0.73-0.92-0.89c-0.36-0.16-0.71-0.24-1.06-0.24
		c-0.53,0-0.98,0.14-1.34,0.43s-0.62,0.64-0.76,1.04c-0.14,0.41-0.21,0.78-0.21,1.12c0,0.71,0.2,1.32,0.61,1.83
		S126.71,182.74,127.43,182.74z"/>
	<path class="st2" d="M138.61,184.98c-1.04,0-1.84-0.29-2.4-0.86c-0.56-0.58-0.84-1.38-0.84-2.41v-4.1h-0.92
		c-0.13,0-0.24-0.04-0.33-0.13s-0.13-0.19-0.13-0.32v-1.17c0-0.13,0.04-0.24,0.13-0.32s0.2-0.13,0.33-0.13h1.13l0.31-1.87
		c0.04-0.18,0.12-0.32,0.24-0.42s0.28-0.15,0.46-0.15h0.88c0.2,0,0.36,0.06,0.47,0.17c0.11,0.11,0.16,0.27,0.16,0.46v1.82h2.09
		c0.13,0,0.24,0.04,0.32,0.13c0.08,0.08,0.13,0.19,0.13,0.32v1.17c0,0.13-0.04,0.24-0.13,0.32c-0.08,0.08-0.19,0.13-0.32,0.13h-2.09
		v4.19c0,0.32,0.07,0.56,0.22,0.72c0.14,0.16,0.32,0.23,0.54,0.23c0.23,0,0.41-0.08,0.56-0.24c0.14-0.16,0.22-0.36,0.22-0.6
		l-0.02-0.32c-0.04-0.32,0.09-0.49,0.38-0.49h1.1c0.12,0,0.23,0.03,0.32,0.09c0.09,0.06,0.15,0.15,0.19,0.27
		c0.07,0.26,0.11,0.5,0.11,0.7c0,0.6-0.12,1.1-0.37,1.51c-0.25,0.41-0.6,0.73-1.05,0.96C139.83,184.86,139.27,184.98,138.61,184.98z
		"/>
	<path class="st2" d="M147.54,184.98c-0.71,0-1.38-0.12-2.01-0.37c-0.63-0.25-1.18-0.59-1.65-1.04c-0.47-0.44-0.83-0.96-1.09-1.56
		c-0.26-0.59-0.39-1.21-0.39-1.86c0-0.31,0.04-0.67,0.13-1.07c0.08-0.4,0.24-0.81,0.48-1.22s0.55-0.81,0.96-1.2
		c0.41-0.38,0.93-0.7,1.56-0.95c0.63-0.25,1.3-0.38,2.01-0.38c0.53,0,1.04,0.07,1.54,0.22c0.5,0.14,0.95,0.35,1.37,0.61
		c0.41,0.26,0.8,0.61,1.16,1.03c0.36,0.42,0.63,0.9,0.8,1.44c0.17,0.54,0.26,1.05,0.26,1.53c0,0.31-0.04,0.67-0.13,1.07
		s-0.24,0.81-0.48,1.22c-0.23,0.41-0.55,0.81-0.96,1.2s-0.93,0.7-1.56,0.95S148.24,184.98,147.54,184.98z M147.54,182.73
		c0.68,0,1.27-0.25,1.75-0.75c0.49-0.5,0.73-1.1,0.73-1.81c0-0.72-0.24-1.33-0.73-1.83c-0.49-0.5-1.07-0.75-1.75-0.75
		c-0.7,0-1.28,0.25-1.76,0.75c-0.48,0.5-0.72,1.11-0.72,1.83c0,0.71,0.24,1.31,0.72,1.81C146.25,182.48,146.84,182.73,147.54,182.73
		z"/>
	<path class="st2" d="M155.17,184.78c-0.28,0-0.49-0.08-0.64-0.22c-0.15-0.15-0.22-0.36-0.22-0.64v-7.52c0-0.28,0.07-0.49,0.22-0.64
		c0.15-0.15,0.36-0.22,0.64-0.22h0.99c0.28,0,0.49,0.08,0.64,0.22c0.15,0.15,0.22,0.36,0.22,0.64v1.15c0.07-0.4,0.22-0.77,0.43-1.12
		c0.22-0.35,0.51-0.62,0.89-0.81c0.38-0.19,0.73-0.29,1.07-0.29l0.31,0.02c0.35,0.02,0.52,0.27,0.52,0.74v1.26
		c0,0.24-0.06,0.42-0.17,0.53c-0.11,0.11-0.27,0.16-0.46,0.14l-0.45-0.04c-0.25,0-0.49,0.04-0.71,0.13
		c-0.22,0.08-0.43,0.22-0.62,0.4c-0.19,0.18-0.36,0.47-0.51,0.87c-0.15,0.4-0.22,0.95-0.22,1.63v2.92c0,0.28-0.08,0.49-0.23,0.64
		c-0.15,0.15-0.36,0.22-0.64,0.22H155.17z"/>
	<path class="st2" d="M162.98,174.43c-0.49,0-0.89-0.14-1.21-0.41c-0.31-0.28-0.47-0.62-0.47-1.03c0-0.42,0.15-0.77,0.45-1.04
		c0.3-0.28,0.71-0.41,1.22-0.41c0.37,0,0.7,0.08,0.97,0.24s0.46,0.36,0.56,0.58c0.1,0.23,0.14,0.44,0.14,0.63
		c0,0.41-0.16,0.75-0.47,1.03C163.87,174.29,163.47,174.43,162.98,174.43z M162.46,184.78c-0.28,0-0.49-0.08-0.64-0.22
		c-0.15-0.15-0.22-0.36-0.22-0.64v-7.52c0-0.28,0.07-0.49,0.22-0.64c0.15-0.15,0.36-0.22,0.64-0.22h1.04c0.28,0,0.49,0.08,0.65,0.22
		c0.16,0.15,0.23,0.36,0.23,0.64v7.52c0,0.28-0.08,0.49-0.23,0.64c-0.16,0.15-0.37,0.22-0.65,0.22H162.46z"/>
	<path class="st2" d="M170.52,184.98c-0.47,0-0.92-0.07-1.35-0.21c-0.43-0.14-0.83-0.34-1.19-0.59c-0.36-0.26-0.67-0.57-0.94-0.93
		c-0.26-0.36-0.49-0.8-0.68-1.32c-0.19-0.52-0.29-1.11-0.29-1.77s0.11-1.29,0.33-1.88c0.22-0.59,0.53-1.11,0.93-1.55
		c0.4-0.44,0.87-0.78,1.42-1.03c0.55-0.25,1.14-0.37,1.76-0.37s1.19,0.13,1.71,0.38s0.94,0.63,1.26,1.13v-0.45
		c0-0.28,0.08-0.49,0.23-0.64c0.15-0.15,0.36-0.22,0.64-0.22h1.06c0.28,0,0.49,0.08,0.64,0.22c0.15,0.15,0.22,0.36,0.22,0.64v7.52
		c0,0.28-0.08,0.49-0.22,0.64c-0.15,0.15-0.36,0.22-0.64,0.22h-1.06c-0.28,0-0.49-0.08-0.64-0.22c-0.15-0.15-0.23-0.36-0.23-0.64
		v-0.43c-0.32,0.49-0.74,0.86-1.26,1.12S171.15,184.98,170.52,184.98z M171.17,182.74c0.35,0,0.7-0.08,1.06-0.24
		s0.67-0.46,0.92-0.89s0.38-0.92,0.38-1.46s-0.13-1.03-0.38-1.46s-0.56-0.73-0.92-0.89c-0.36-0.16-0.71-0.24-1.06-0.24
		c-0.53,0-0.98,0.14-1.34,0.43s-0.62,0.64-0.76,1.04c-0.14,0.41-0.21,0.78-0.21,1.12c0,0.71,0.2,1.32,0.61,1.83
		S170.45,182.74,171.17,182.74z"/>
	<path class="st2" d="M179.94,174.43c-0.49,0-0.89-0.14-1.21-0.41c-0.31-0.28-0.47-0.62-0.47-1.03c0-0.42,0.15-0.77,0.45-1.04
		c0.3-0.28,0.71-0.41,1.22-0.41c0.37,0,0.7,0.08,0.97,0.24s0.46,0.36,0.56,0.58c0.1,0.23,0.14,0.44,0.14,0.63
		c0,0.41-0.16,0.75-0.47,1.03C180.83,174.29,180.43,174.43,179.94,174.43z M179.41,184.78c-0.28,0-0.49-0.08-0.64-0.22
		c-0.15-0.15-0.22-0.36-0.22-0.64v-7.52c0-0.28,0.07-0.49,0.22-0.64c0.15-0.15,0.36-0.22,0.64-0.22h1.04c0.28,0,0.49,0.08,0.65,0.22
		c0.16,0.15,0.23,0.36,0.23,0.64v7.52c0,0.28-0.08,0.49-0.23,0.64c-0.16,0.15-0.37,0.22-0.65,0.22H179.41z"/>
	<path class="st2" d="M186.74,184.98c-0.83,0-1.56-0.16-2.19-0.48c-0.63-0.32-1.1-0.78-1.4-1.38c-0.13-0.25-0.14-0.48-0.03-0.67
		c0.11-0.2,0.31-0.33,0.6-0.41l0.56-0.13c0.11-0.02,0.23-0.03,0.38-0.02c0.14,0.01,0.38,0.18,0.7,0.5c0.16,0.17,0.36,0.3,0.6,0.4
		c0.25,0.1,0.51,0.14,0.78,0.14c0.35,0,0.63-0.08,0.85-0.22c0.22-0.15,0.33-0.35,0.33-0.59c0-0.14-0.05-0.28-0.14-0.4
		c-0.1-0.13-0.34-0.26-0.72-0.41l-1.13-0.4c-1.74-0.56-2.61-1.46-2.61-2.68c0-0.85,0.32-1.55,0.97-2.1
		c0.65-0.55,1.47-0.82,2.47-0.82c0.62,0,1.19,0.11,1.7,0.34c0.51,0.23,0.93,0.58,1.25,1.06c0.17,0.25,0.2,0.49,0.1,0.7
		c-0.1,0.22-0.3,0.36-0.6,0.43l-0.5,0.13c-0.17,0.05-0.33,0.05-0.48,0.02c-0.15-0.04-0.34-0.16-0.57-0.36
		c-0.23-0.23-0.53-0.34-0.9-0.34c-0.28,0-0.5,0.08-0.67,0.23c-0.17,0.16-0.26,0.34-0.26,0.56c0,0.13,0.05,0.26,0.16,0.39
		c0.11,0.13,0.34,0.25,0.68,0.37l1.15,0.43c0.58,0.19,1.05,0.42,1.42,0.68s0.66,0.57,0.87,0.93s0.32,0.75,0.33,1.18
		c0,0.58-0.15,1.08-0.45,1.5c-0.3,0.43-0.73,0.77-1.29,1.02C188.17,184.85,187.51,184.98,186.74,184.98z"/>
	<path class="st2" d="M193.89,177.99c-0.11,0.14-0.23,0.23-0.36,0.25c-0.13,0.02-0.27-0.02-0.41-0.13l-0.49-0.38
		c-0.14-0.11-0.22-0.23-0.24-0.37c-0.02-0.14,0.03-0.27,0.15-0.4l1.1-1.37l-1.71-0.5c-0.17-0.05-0.28-0.13-0.34-0.25
		c-0.06-0.12-0.07-0.26-0.02-0.43l0.2-0.63c0.05-0.17,0.14-0.28,0.27-0.33s0.28-0.05,0.45,0.01l1.64,0.65l-0.11-1.78
		c-0.01-0.18,0.03-0.32,0.13-0.41c0.1-0.1,0.23-0.14,0.41-0.14h0.67c0.18,0,0.32,0.05,0.41,0.15c0.1,0.1,0.14,0.24,0.13,0.42
		l-0.13,1.75l1.67-0.63c0.17-0.06,0.31-0.06,0.44-0.01s0.21,0.17,0.26,0.35l0.2,0.61c0.04,0.16,0.03,0.3-0.03,0.42
		c-0.05,0.13-0.17,0.21-0.35,0.26l-1.69,0.47l1.12,1.4c0.24,0.29,0.21,0.55-0.09,0.77l-0.5,0.36c-0.14,0.11-0.29,0.15-0.42,0.13
		s-0.25-0.11-0.35-0.27l-0.95-1.48L193.89,177.99z"/>
	<path class="st2" d="M36.22,205.78c-0.21,0-0.34-0.1-0.41-0.29l-2.19-6.29c-0.05-0.12-0.04-0.22,0.02-0.3s0.15-0.12,0.27-0.12h0.34
		c0.09,0,0.18,0.03,0.26,0.08c0.08,0.05,0.13,0.13,0.15,0.22l1.8,5.41l1.77-5.41c0.03-0.09,0.08-0.17,0.16-0.22
		c0.08-0.05,0.17-0.08,0.26-0.08h0.34c0.13,0,0.22,0.04,0.27,0.12c0.05,0.08,0.06,0.18,0.02,0.3l-2.2,6.29
		c-0.07,0.19-0.2,0.29-0.41,0.29H36.22z"/>
	<path class="st2" d="M39.85,205.78c-0.13,0-0.23-0.04-0.28-0.12c-0.05-0.08-0.05-0.18,0-0.3l2.41-6.29
		c0.03-0.09,0.09-0.16,0.17-0.21c0.08-0.05,0.16-0.08,0.25-0.08h0.58c0.21,0,0.35,0.1,0.42,0.29l2.43,6.29
		c0.05,0.13,0.04,0.23,0,0.3c-0.05,0.08-0.14,0.12-0.28,0.12h-0.32c-0.21,0-0.35-0.1-0.43-0.29l-0.43-1.14h-3.34l-0.43,1.14
		c-0.08,0.19-0.22,0.29-0.42,0.29H39.85z M41.33,203.49h2.74l-1.38-3.68L41.33,203.49z"/>
	<path class="st2" d="M51.83,205.89c-0.29,0-0.57-0.07-0.83-0.2c-0.27-0.13-0.5-0.34-0.7-0.61c-0.2-0.27-0.35-0.58-0.47-0.92
		c-0.12-0.34-0.19-0.68-0.22-1h-1.38v2.27c0,0.11-0.03,0.2-0.09,0.27s-0.15,0.09-0.26,0.09h-0.34c-0.11,0-0.2-0.03-0.26-0.09
		s-0.09-0.15-0.09-0.27v-6.28c0-0.11,0.03-0.2,0.09-0.27s0.15-0.09,0.26-0.09h2.59c0.24,0,0.48,0.04,0.73,0.12
		c0.25,0.08,0.48,0.21,0.69,0.39c0.21,0.19,0.38,0.42,0.51,0.71c0.13,0.29,0.2,0.62,0.2,0.99c0,0.53-0.15,0.99-0.44,1.38
		s-0.69,0.63-1.2,0.74c0.02,0.19,0.08,0.43,0.17,0.72s0.24,0.56,0.44,0.81c0.2,0.25,0.43,0.37,0.7,0.37c0.2,0,0.37-0.04,0.51-0.12
		c0.11-0.05,0.21-0.07,0.29-0.05c0.08,0.02,0.14,0.08,0.19,0.18l0.05,0.09c0.1,0.23,0.06,0.39-0.11,0.5
		c-0.14,0.09-0.3,0.17-0.48,0.21C52.18,205.86,52,205.89,51.83,205.89z M48.23,202.31h1.68c0.19,0,0.38-0.04,0.56-0.12
		c0.19-0.08,0.35-0.23,0.48-0.45s0.19-0.47,0.19-0.75c0-0.19-0.04-0.38-0.11-0.59c-0.07-0.21-0.21-0.38-0.41-0.53
		s-0.44-0.22-0.72-0.22h-1.68V202.31z"/>
	<path class="st2" d="M54.52,205.78c-0.11,0-0.2-0.03-0.27-0.09s-0.09-0.15-0.09-0.27v-6.28c0-0.11,0.03-0.2,0.09-0.27
		s0.15-0.09,0.27-0.09h0.34c0.11,0,0.2,0.03,0.26,0.09s0.09,0.15,0.09,0.27v6.28c0,0.11-0.03,0.2-0.09,0.27s-0.15,0.09-0.26,0.09
		H54.52z"/>
	<path class="st2" d="M56.86,205.78c-0.13,0-0.23-0.04-0.28-0.12c-0.05-0.08-0.05-0.18,0-0.3l2.41-6.29
		c0.03-0.09,0.09-0.16,0.17-0.21c0.08-0.05,0.16-0.08,0.25-0.08h0.58c0.21,0,0.35,0.1,0.42,0.29l2.43,6.29
		c0.05,0.13,0.04,0.23,0,0.3c-0.05,0.08-0.14,0.12-0.28,0.12h-0.32c-0.21,0-0.35-0.1-0.43-0.29l-0.43-1.14h-3.34l-0.43,1.14
		c-0.08,0.19-0.22,0.29-0.42,0.29H56.86z M58.34,203.49h2.74l-1.38-3.68L58.34,203.49z"/>
	<path class="st2" d="M70.2,205.89c-0.57,0-1.1-0.1-1.57-0.29c-0.47-0.19-0.88-0.45-1.21-0.79s-0.58-0.72-0.75-1.16
		c-0.17-0.44-0.26-0.9-0.26-1.38s0.09-0.94,0.26-1.38c0.17-0.44,0.42-0.83,0.75-1.16s0.73-0.59,1.21-0.79
		c0.47-0.19,1-0.29,1.57-0.29c0.77,0,1.45,0.19,2.04,0.57c0.19,0.13,0.23,0.29,0.12,0.5l-0.09,0.16c-0.11,0.2-0.28,0.24-0.5,0.12
		c-0.21-0.11-0.46-0.21-0.75-0.29s-0.56-0.12-0.81-0.12c-0.41,0-0.79,0.07-1.13,0.21c-0.34,0.14-0.63,0.33-0.86,0.58
		s-0.41,0.53-0.54,0.86c-0.12,0.33-0.18,0.67-0.18,1.02s0.06,0.69,0.18,1.02c0.12,0.33,0.3,0.61,0.54,0.86s0.52,0.43,0.86,0.58
		c0.34,0.14,0.72,0.21,1.13,0.21c0.25,0,0.52-0.04,0.81-0.12c0.29-0.08,0.54-0.17,0.75-0.29c0.22-0.12,0.39-0.08,0.5,0.12l0.09,0.16
		c0.11,0.2,0.09,0.35-0.06,0.46C71.69,205.68,70.99,205.89,70.2,205.89z"/>
	<path class="st2" d="M76.86,205.89c-0.49,0-0.95-0.09-1.4-0.28c-0.45-0.19-0.84-0.45-1.18-0.78c-0.34-0.33-0.6-0.72-0.78-1.17
		c-0.19-0.44-0.28-0.9-0.28-1.38s0.09-0.94,0.28-1.38c0.19-0.44,0.45-0.83,0.78-1.17c0.34-0.33,0.73-0.59,1.18-0.78
		c0.45-0.19,0.91-0.28,1.4-0.28s0.95,0.09,1.4,0.28c0.45,0.19,0.84,0.45,1.17,0.78s0.6,0.72,0.79,1.17s0.28,0.9,0.28,1.38
		s-0.09,0.94-0.28,1.38s-0.45,0.83-0.79,1.17c-0.34,0.33-0.73,0.59-1.17,0.78C77.81,205.79,77.35,205.89,76.86,205.89z
		 M76.86,204.94c0.34,0,0.67-0.07,0.98-0.2c0.31-0.13,0.59-0.32,0.82-0.57c0.24-0.24,0.42-0.53,0.56-0.85
		c0.13-0.33,0.2-0.67,0.2-1.04c0-0.37-0.07-0.71-0.2-1.04c-0.13-0.33-0.32-0.61-0.56-0.85c-0.24-0.24-0.51-0.43-0.82-0.57
		c-0.31-0.13-0.64-0.2-0.98-0.2s-0.67,0.07-0.98,0.2c-0.31,0.13-0.59,0.32-0.83,0.57c-0.24,0.24-0.42,0.53-0.55,0.85
		c-0.13,0.33-0.2,0.67-0.2,1.04c0,0.37,0.07,0.71,0.2,1.04c0.13,0.33,0.32,0.61,0.55,0.85c0.24,0.24,0.51,0.43,0.83,0.57
		C76.19,204.87,76.52,204.94,76.86,204.94z"/>
	<path class="st2" d="M82.37,205.78c-0.11,0-0.2-0.03-0.27-0.09s-0.09-0.15-0.09-0.27v-6.28c0-0.11,0.03-0.2,0.09-0.27
		s0.15-0.09,0.27-0.09h0.15c0.19,0,0.34,0.07,0.45,0.22l3.58,4.84v-4.7c0-0.11,0.03-0.2,0.09-0.27s0.15-0.09,0.27-0.09h0.34
		c0.11,0,0.2,0.03,0.27,0.09s0.1,0.15,0.1,0.27v6.28c0,0.11-0.03,0.2-0.1,0.27s-0.16,0.09-0.27,0.09h-0.14
		c-0.19,0-0.34-0.07-0.45-0.22l-3.59-4.86v4.72c0,0.11-0.03,0.2-0.09,0.27s-0.15,0.09-0.26,0.09H82.37z"/>
	<path class="st2" d="M93.77,198.78c0.11,0,0.2,0.03,0.26,0.09s0.1,0.15,0.1,0.27v0.15c0,0.11-0.03,0.2-0.1,0.27
		s-0.15,0.09-0.26,0.09h-3.06v2.27h2.62c0.11,0,0.2,0.03,0.27,0.1s0.1,0.15,0.1,0.26v0.13c0,0.11-0.03,0.2-0.1,0.27
		c-0.07,0.07-0.16,0.1-0.27,0.1h-2.62v2.64c0,0.11-0.03,0.2-0.09,0.27s-0.15,0.09-0.26,0.09h-0.34c-0.11,0-0.2-0.03-0.27-0.09
		s-0.09-0.15-0.09-0.27v-6.28c0-0.11,0.03-0.2,0.09-0.27s0.15-0.09,0.27-0.09H93.77z"/>
	<path class="st2" d="M98.62,205.89c-0.49,0-0.95-0.09-1.4-0.28c-0.45-0.19-0.84-0.45-1.18-0.78c-0.34-0.33-0.6-0.72-0.78-1.17
		c-0.19-0.44-0.28-0.9-0.28-1.38s0.09-0.94,0.28-1.38c0.19-0.44,0.45-0.83,0.78-1.17c0.34-0.33,0.73-0.59,1.18-0.78
		c0.45-0.19,0.91-0.28,1.4-0.28s0.95,0.09,1.4,0.28c0.45,0.19,0.84,0.45,1.17,0.78s0.6,0.72,0.79,1.17s0.28,0.9,0.28,1.38
		s-0.09,0.94-0.28,1.38s-0.45,0.83-0.79,1.17c-0.34,0.33-0.73,0.59-1.17,0.78C99.57,205.79,99.11,205.89,98.62,205.89z
		 M98.62,204.94c0.34,0,0.67-0.07,0.98-0.2c0.31-0.13,0.59-0.32,0.82-0.57c0.24-0.24,0.42-0.53,0.56-0.85
		c0.13-0.33,0.2-0.67,0.2-1.04c0-0.37-0.07-0.71-0.2-1.04c-0.13-0.33-0.32-0.61-0.56-0.85c-0.24-0.24-0.51-0.43-0.82-0.57
		c-0.31-0.13-0.64-0.2-0.98-0.2s-0.67,0.07-0.98,0.2c-0.31,0.13-0.59,0.32-0.83,0.57c-0.24,0.24-0.42,0.53-0.55,0.85
		c-0.13,0.33-0.2,0.67-0.2,1.04c0,0.37,0.07,0.71,0.2,1.04c0.13,0.33,0.32,0.61,0.55,0.85c0.24,0.24,0.51,0.43,0.83,0.57
		C97.95,204.87,98.28,204.94,98.62,204.94z"/>
	<path class="st2" d="M108.42,205.89c-0.29,0-0.57-0.07-0.83-0.2c-0.27-0.13-0.5-0.34-0.7-0.61c-0.2-0.27-0.35-0.58-0.47-0.92
		c-0.12-0.34-0.19-0.68-0.22-1h-1.38v2.27c0,0.11-0.03,0.2-0.09,0.27s-0.15,0.09-0.26,0.09h-0.34c-0.11,0-0.2-0.03-0.26-0.09
		s-0.09-0.15-0.09-0.27v-6.28c0-0.11,0.03-0.2,0.09-0.27s0.15-0.09,0.26-0.09h2.59c0.24,0,0.48,0.04,0.73,0.12
		c0.25,0.08,0.48,0.21,0.69,0.39c0.21,0.19,0.38,0.42,0.51,0.71c0.13,0.29,0.2,0.62,0.2,0.99c0,0.53-0.15,0.99-0.44,1.38
		s-0.69,0.63-1.2,0.74c0.02,0.19,0.08,0.43,0.17,0.72s0.24,0.56,0.44,0.81c0.2,0.25,0.43,0.37,0.7,0.37c0.2,0,0.37-0.04,0.51-0.12
		c0.11-0.05,0.21-0.07,0.29-0.05c0.08,0.02,0.14,0.08,0.19,0.18l0.05,0.09c0.1,0.23,0.06,0.39-0.11,0.5
		c-0.14,0.09-0.3,0.17-0.48,0.21C108.77,205.86,108.59,205.89,108.42,205.89z M104.82,202.31h1.68c0.19,0,0.38-0.04,0.56-0.12
		c0.19-0.08,0.35-0.23,0.48-0.45s0.19-0.47,0.19-0.75c0-0.19-0.04-0.38-0.11-0.59c-0.07-0.21-0.21-0.38-0.41-0.53
		s-0.44-0.22-0.72-0.22h-1.68V202.31z"/>
	<path class="st2" d="M110.83,205.78c-0.12,0-0.21-0.03-0.28-0.1c-0.06-0.07-0.09-0.16-0.08-0.28l0.6-6.28
		c0.02-0.23,0.14-0.34,0.37-0.34h0.53c0.2,0,0.34,0.09,0.41,0.28l2.18,5.21l2.17-5.21c0.09-0.19,0.23-0.28,0.42-0.28h0.52
		c0.23,0,0.36,0.11,0.38,0.34l0.59,6.28c0.01,0.12-0.02,0.21-0.08,0.28c-0.06,0.07-0.15,0.1-0.27,0.1h-0.33
		c-0.24,0-0.37-0.11-0.39-0.34l-0.43-5.05l-2.08,5.02c-0.08,0.19-0.22,0.28-0.42,0.28h-0.17c-0.19,0-0.33-0.09-0.41-0.28l-2.08-5.02
		l-0.44,5.05c-0.02,0.23-0.15,0.34-0.38,0.34H110.83z"/>
	<path class="st2" d="M124.52,199.65h-3.06v2.27h2.62c0.11,0,0.2,0.03,0.27,0.1s0.09,0.15,0.09,0.26v0.13c0,0.11-0.03,0.2-0.09,0.27
		c-0.06,0.07-0.15,0.1-0.27,0.1h-2.62v2.13h3.06c0.11,0,0.19,0.03,0.26,0.09c0.07,0.06,0.1,0.15,0.1,0.27v0.15
		c0,0.11-0.03,0.2-0.1,0.27s-0.15,0.09-0.26,0.09h-3.76c-0.11,0-0.2-0.03-0.27-0.09s-0.09-0.15-0.09-0.27v-6.28
		c0-0.11,0.03-0.2,0.09-0.27s0.15-0.09,0.27-0.09h3.76c0.11,0,0.19,0.03,0.26,0.09s0.1,0.15,0.1,0.27v0.15c0,0.11-0.03,0.2-0.1,0.27
		S124.63,199.65,124.52,199.65z"/>
	<path class="st2" d="M133.82,205.89c-0.29,0-0.57-0.07-0.83-0.2c-0.27-0.13-0.5-0.34-0.7-0.61c-0.2-0.27-0.35-0.58-0.47-0.92
		c-0.12-0.34-0.19-0.68-0.22-1h-1.38v2.27c0,0.11-0.03,0.2-0.09,0.27s-0.15,0.09-0.26,0.09h-0.34c-0.11,0-0.2-0.03-0.26-0.09
		s-0.09-0.15-0.09-0.27v-6.28c0-0.11,0.03-0.2,0.09-0.27s0.15-0.09,0.26-0.09h2.59c0.24,0,0.48,0.04,0.73,0.12
		c0.25,0.08,0.48,0.21,0.69,0.39c0.21,0.19,0.38,0.42,0.51,0.71c0.13,0.29,0.2,0.62,0.2,0.99c0,0.53-0.15,0.99-0.44,1.38
		s-0.69,0.63-1.2,0.74c0.02,0.19,0.08,0.43,0.17,0.72s0.24,0.56,0.44,0.81c0.2,0.25,0.43,0.37,0.7,0.37c0.2,0,0.37-0.04,0.51-0.12
		c0.11-0.05,0.21-0.07,0.29-0.05c0.08,0.02,0.14,0.08,0.19,0.18l0.05,0.09c0.1,0.23,0.06,0.39-0.11,0.5
		c-0.14,0.09-0.3,0.17-0.48,0.21C134.17,205.86,133.99,205.89,133.82,205.89z M130.22,202.31h1.68c0.19,0,0.38-0.04,0.56-0.12
		c0.19-0.08,0.35-0.23,0.48-0.45s0.19-0.47,0.19-0.75c0-0.19-0.04-0.38-0.11-0.59c-0.07-0.21-0.21-0.38-0.41-0.53
		s-0.44-0.22-0.72-0.22h-1.68V202.31z"/>
	<path class="st2" d="M140.27,199.65h-3.06v2.27h2.62c0.11,0,0.2,0.03,0.27,0.1s0.09,0.15,0.09,0.26v0.13c0,0.11-0.03,0.2-0.09,0.27
		c-0.06,0.07-0.15,0.1-0.27,0.1h-2.62v2.13h3.06c0.11,0,0.19,0.03,0.26,0.09c0.07,0.06,0.1,0.15,0.1,0.27v0.15
		c0,0.11-0.03,0.2-0.1,0.27s-0.15,0.09-0.26,0.09h-3.76c-0.11,0-0.2-0.03-0.27-0.09s-0.09-0.15-0.09-0.27v-6.28
		c0-0.11,0.03-0.2,0.09-0.27s0.15-0.09,0.27-0.09h3.76c0.11,0,0.19,0.03,0.26,0.09s0.1,0.15,0.1,0.27v0.15c0,0.11-0.03,0.2-0.1,0.27
		S140.38,199.65,140.27,199.65z"/>
	<path class="st2" d="M145.29,205.89c-0.52,0-1.01-0.09-1.47-0.28c-0.46-0.19-0.86-0.45-1.2-0.78s-0.6-0.71-0.78-1.15
		c-0.18-0.44-0.27-0.9-0.27-1.38c0-0.49,0.09-0.95,0.28-1.4c0.19-0.45,0.45-0.84,0.78-1.17c0.34-0.33,0.73-0.59,1.18-0.78
		c0.45-0.19,0.91-0.28,1.4-0.28c0.89,0,1.64,0.19,2.27,0.58c0.19,0.12,0.23,0.29,0.12,0.5l-0.1,0.17c-0.11,0.21-0.27,0.26-0.5,0.13
		c-0.27-0.14-0.53-0.25-0.79-0.32s-0.59-0.11-1-0.11c-0.35,0-0.68,0.07-0.99,0.21s-0.59,0.33-0.82,0.58s-0.42,0.53-0.55,0.86
		c-0.13,0.33-0.2,0.67-0.2,1.03c0,0.33,0.06,0.66,0.17,0.98c0.12,0.32,0.29,0.6,0.51,0.85s0.51,0.45,0.86,0.6
		c0.34,0.15,0.73,0.22,1.16,0.22c0.6,0,1.13-0.15,1.6-0.45v-1.39h-1.58c-0.11,0-0.2-0.03-0.26-0.1c-0.06-0.07-0.1-0.16-0.1-0.27
		v-0.12c0-0.11,0.03-0.2,0.1-0.26c0.06-0.06,0.15-0.1,0.26-0.1h2.19c0.11,0,0.2,0.03,0.26,0.1s0.09,0.15,0.09,0.26v2.02
		c0,0.19-0.1,0.37-0.31,0.53c-0.27,0.2-0.61,0.37-1,0.51C146.21,205.82,145.78,205.89,145.29,205.89z"/>
	<path class="st2" d="M149.89,205.78c-0.11,0-0.2-0.03-0.27-0.09s-0.09-0.15-0.09-0.27v-6.28c0-0.11,0.03-0.2,0.09-0.27
		s0.15-0.09,0.27-0.09h0.34c0.11,0,0.2,0.03,0.26,0.09s0.09,0.15,0.09,0.27v6.28c0,0.11-0.03,0.2-0.09,0.27s-0.15,0.09-0.26,0.09
		H149.89z"/>
	<path class="st2" d="M152.23,205.78c-0.13,0-0.23-0.04-0.28-0.12c-0.05-0.08-0.05-0.18,0-0.3l2.41-6.29
		c0.03-0.09,0.09-0.16,0.17-0.21c0.08-0.05,0.16-0.08,0.25-0.08h0.58c0.21,0,0.35,0.1,0.42,0.29l2.43,6.29
		c0.05,0.13,0.04,0.23,0,0.3c-0.05,0.08-0.14,0.12-0.28,0.12h-0.32c-0.21,0-0.35-0.1-0.43-0.29l-0.43-1.14h-3.34l-0.43,1.14
		c-0.08,0.19-0.22,0.29-0.42,0.29H152.23z M154.07,197.85c-0.07,0.11-0.16,0.16-0.27,0.13l-0.09-0.02c-0.02-0.01-0.05-0.03-0.1-0.07
		c-0.05-0.04-0.06-0.11-0.03-0.2c0.09-0.29,0.2-0.51,0.33-0.65c0.13-0.14,0.3-0.21,0.51-0.21c0.15,0,0.38,0.07,0.68,0.21
		c0.3,0.14,0.5,0.21,0.59,0.21c0.17,0,0.31-0.1,0.41-0.31c0.06-0.11,0.15-0.16,0.26-0.13l0.09,0.02c0.02,0.01,0.05,0.03,0.1,0.07
		c0.05,0.04,0.06,0.11,0.03,0.2c-0.09,0.29-0.2,0.51-0.33,0.64c-0.13,0.14-0.3,0.21-0.51,0.21c-0.15,0-0.38-0.07-0.68-0.21
		c-0.3-0.14-0.5-0.21-0.59-0.21C154.3,197.54,154.17,197.64,154.07,197.85z M153.71,203.49h2.74l-1.38-3.68L153.71,203.49z"/>
	<path class="st2" d="M162.69,205.89c-0.49,0-0.95-0.09-1.4-0.28c-0.45-0.19-0.84-0.45-1.18-0.78c-0.34-0.33-0.6-0.72-0.78-1.17
		c-0.19-0.44-0.28-0.9-0.28-1.38s0.09-0.94,0.28-1.38c0.19-0.44,0.45-0.83,0.78-1.17c0.34-0.33,0.73-0.59,1.18-0.78
		c0.45-0.19,0.91-0.28,1.4-0.28s0.95,0.09,1.4,0.28c0.45,0.19,0.84,0.45,1.17,0.78s0.6,0.72,0.79,1.17s0.28,0.9,0.28,1.38
		s-0.09,0.94-0.28,1.38s-0.45,0.83-0.79,1.17c-0.34,0.33-0.73,0.59-1.17,0.78C163.64,205.79,163.17,205.89,162.69,205.89z
		 M162.69,204.94c0.34,0,0.67-0.07,0.98-0.2c0.31-0.13,0.59-0.32,0.82-0.57c0.24-0.24,0.42-0.53,0.56-0.85
		c0.13-0.33,0.2-0.67,0.2-1.04c0-0.37-0.07-0.71-0.2-1.04c-0.13-0.33-0.32-0.61-0.56-0.85c-0.24-0.24-0.51-0.43-0.82-0.57
		c-0.31-0.13-0.64-0.2-0.98-0.2s-0.67,0.07-0.98,0.2c-0.31,0.13-0.59,0.32-0.83,0.57c-0.24,0.24-0.42,0.53-0.55,0.85
		c-0.13,0.33-0.2,0.67-0.2,1.04c0,0.37,0.07,0.71,0.2,1.04c0.13,0.33,0.32,0.61,0.55,0.85c0.24,0.24,0.51,0.43,0.83,0.57
		C162.02,204.87,162.35,204.94,162.69,204.94z"/>
</g>
<g>
	<g>
		<path class="st1" d="M94.09,81.7c-0.44,0.44-0.44,1.09,0,1.52c0.44,0.44,1.09,0.44,1.52,0c0.44-0.44,0.44-1.09,0-1.52
			C95.29,81.26,94.53,81.26,94.09,81.7z"/>
	</g>
	<g>
		<path class="st1" d="M78.3,45.65h16.55c0.65,0,1.09-0.44,1.09-1.09s-0.44-1.09-1.09-1.09H78.3c-0.65,0-1.09,0.44-1.09,1.09
			C77.21,45.1,77.64,45.65,78.3,45.65z"/>
	</g>
	<g>
		<path class="st1" d="M93.76,64.27V47.83H79.39v16.45l-13.5,19.82c-1.96,2.94,0.11,6.97,3.7,6.97h33.98c3.59,0,5.66-4.03,3.7-6.97
			L93.76,64.27z M91.69,69.61c0,1.31-1.09,2.4-2.4,2.4s-2.4-1.09-2.4-2.4s1.09-2.4,2.4-2.4S91.69,68.3,91.69,69.61z M86.79,50.87
			c0.87,0,1.63,0.76,1.63,1.63s-0.76,1.63-1.63,1.63c-0.87,0-1.63-0.65-1.63-1.63C85.27,51.64,85.92,50.87,86.79,50.87z
			 M84.29,58.72c0.44-0.44,1.09-0.44,1.52,0s0.44,1.09,0,1.52s-1.09,0.44-1.52,0S83.96,59.15,84.29,58.72z M103.57,88.88H69.59
			c-1.85,0-2.94-2.07-1.85-3.59l5.45-8.06l5.23,2.18c2.07,0.87,4.57,0.54,6.43-0.76c2.5-1.85,5.55,0,5.88,0.22
			c1.31,1.09,5.34,1.31,7.73-1.52l0.98-1.09l5.99,9.04C106.51,86.82,105.42,88.88,103.57,88.88z"/>
	</g>
	<g>
		<path class="st1" d="M77.54,82.89c-0.44,0.44-0.44,1.09,0,1.52c0.44,0.44,1.09,0.44,1.52,0c0.44-0.44,0.44-1.09,0-1.52
			S77.86,82.46,77.54,82.89z"/>
	</g>
	<g>
		<path class="st1" d="M101.06,36.17c0.44-0.44,0.44-1.09,0-1.52c-0.44-0.44-1.09-0.44-1.52,0c-0.44,0.44-0.44,1.09,0,1.52
			C99.86,36.61,100.62,36.61,101.06,36.17z"/>
	</g>
	<g>
		<path class="st1" d="M132.32,50.44l-32.02-24.4l1.09-1.42c0.33-0.44,0.33-1.2-0.22-1.52c-0.44-0.33-1.2-0.33-1.52,0.22
			c-3.59,4.79-8.71,11.54-9.69,12.85c-0.33,0.44-0.33,1.2,0.22,1.52c0.44,0.33,1.2,0.33,1.52-0.22l1.09-1.42l32.02,24.4
			c2.83,2.07,6.75,1.52,8.82-1.2C135.69,56.54,135.15,52.51,132.32,50.44z M105.09,42.82l-11.11-8.49l5.01-6.64l15.36,11.65
			C112.93,40.86,109.45,43.47,105.09,42.82z M117.94,49.35c-0.44,0.44-1.09,0.44-1.52,0c-0.44-0.44-0.44-1.09,0-1.52
			c0.44-0.44,1.09-0.44,1.52,0C118.38,48.26,118.38,48.91,117.94,49.35z M127.96,53.27c-0.44,0.44-1.09,0.44-1.52,0
			c-0.44-0.44-0.44-1.2,0-1.52c0.44-0.44,1.2-0.44,1.52,0C128.4,52.18,128.4,52.84,127.96,53.27z"/>
	</g>
</g>
</svg>
